<svg width="24" height="24" viewBox="0 0 24 24" fill="none" xmlns="http://www.w3.org/2000/svg">
<path d="M17.7476 17.0797C17.7476 17.6868 17.3171 18.3644 16.8476 18.6327C16.6888 18.7244 16.5229 18.7703 16.3677 18.7456L13.1806 18.2374C13.0324 18.2162 12.8665 18.2585 12.6971 18.3538C12.5277 18.4526 12.3582 18.6044 12.2135 18.7985L9.04061 22.9774C8.88887 23.1785 8.72291 23.3232 8.56057 23.4185C8.30293 23.5668 8.05589 23.5774 7.88648 23.4609L6.55235 22.6879C6.39708 22.5962 6.29471 22.4056 6.29471 22.1162L6.25232 6.92207C6.25232 6.3503 6.65119 5.65853 7.14536 5.37265L15.4429 0.583236C15.69 0.43854 15.9159 0.424408 16.0818 0.519709L17.4406 1.31029C17.4336 1.30676 17.4265 1.30325 17.4159 1.29972C17.5924 1.38442 17.7018 1.58913 17.7018 1.88559L17.7476 17.0797Z" fill="#FF3D47"/>
<path d="M16.0803 0.520028C15.9171 0.425222 15.6911 0.438707 15.4415 0.582801L7.14695 5.3717C6.65097 5.65803 6.25081 6.35112 6.25245 6.92103L6.29553 22.1151C6.29631 22.4058 6.39721 22.5978 6.55369 22.6887L7.91479 23.4797C7.75839 23.3888 7.65749 23.1969 7.65671 22.9062L7.61363 7.71207C7.61199 7.14216 8.01215 6.44907 8.50813 6.16274L16.8028 1.37384C17.0523 1.22974 17.2783 1.21628 17.4414 1.31109L16.0803 0.520028Z" fill="#E8183B"/>
<path d="M16.8028 1.37387C17.2988 1.08751 17.7015 1.31703 17.7031 1.88695L17.7462 17.081C17.7479 17.6855 17.3161 18.3629 16.8491 18.6325C16.6873 18.7259 16.5213 18.7704 16.3676 18.7459L13.1823 18.2384C13.034 18.2152 12.8653 18.2582 12.6968 18.3555C12.5283 18.4528 12.3599 18.6044 12.2123 18.7985L9.04025 22.9763C8.88723 23.1779 8.72146 23.325 8.55964 23.4184C8.09264 23.688 7.65844 23.5107 7.65673 22.9062L7.61365 7.7121C7.61204 7.14218 8.0122 6.44911 8.50815 6.16277L16.8028 1.37387Z" fill="#FF3D47"/>
<path d="M17.7476 17.0797C17.7476 17.6868 17.317 18.3644 16.8476 18.6326C16.6888 18.7244 16.5229 18.7703 16.3676 18.7456L13.1805 18.2373C13.0323 18.2162 12.8665 18.2585 12.6971 18.3538C12.5277 18.4526 12.3582 18.6044 12.2135 18.7985L9.04055 22.9773C8.88881 23.1785 8.72285 23.3232 8.56051 23.4185C8.09116 23.6868 7.65705 23.5103 7.65705 22.9068L7.62878 12.3856C7.72055 12.3926 7.81232 12.3962 7.90409 12.3962C10.5405 12.3962 12.6794 10.335 12.6794 7.79381C12.6794 6.5303 12.1535 5.38675 11.2993 4.55381L16.8017 1.37381C17.2993 1.08793 17.7017 1.31735 17.7017 1.88558L17.7476 17.0797Z" fill="#F72D40"/>
<path d="M12.291 5.58387C12.5141 5.45509 12.7126 5.44159 12.8573 5.52406C13.002 5.60648 13.0905 5.78363 13.0912 6.0348L13.0978 8.35485L15.1169 7.18911C15.5563 6.93544 15.9113 7.14287 15.9127 7.64779C15.9134 7.89637 15.8262 8.17498 15.6824 8.42654C15.5409 8.67424 15.3429 8.88971 15.1221 9.01719L13.103 10.1829L13.1096 12.503C13.111 13.0053 12.7584 13.6186 12.3145 13.8749C12.0937 14.0024 11.8951 14.016 11.7549 13.9309C11.6079 13.8523 11.5194 13.6752 11.5187 13.4215L11.5121 11.1014L9.49531 12.2658C9.05592 12.5195 8.69869 12.316 8.69727 11.8136C8.69656 11.5625 8.7838 11.2787 8.92979 11.0284C9.07353 10.782 9.27153 10.564 9.49012 10.4377L11.5069 9.27336L11.5003 6.95331C11.4989 6.44839 11.8538 5.83628 12.291 5.58387Z" fill="#E8183B"/>
<path d="M13.041 5.80446C13.2641 5.67568 13.4626 5.66218 13.6073 5.74464C13.752 5.82707 13.8405 6.00421 13.8412 6.25538L13.8478 8.57543L15.8669 7.4097C16.3063 7.15602 16.6613 7.36345 16.6627 7.86837C16.6634 8.11695 16.5762 8.39556 16.4324 8.64712C16.2909 8.89482 16.0929 9.11029 15.8721 9.23777L13.853 10.4035L13.8596 12.7235C13.861 13.2259 13.5084 13.8392 13.0645 14.0955C12.8437 14.223 12.6451 14.2365 12.5049 14.1515C12.3579 14.0729 12.2694 13.8958 12.2687 13.6421L12.2621 11.322L10.2453 12.4864C9.80592 12.7401 9.44869 12.5365 9.44727 12.0342C9.44656 11.783 9.5338 11.4993 9.67979 11.249C9.82353 11.0026 10.0215 10.7845 10.2401 10.6583L12.2569 9.49394L12.2503 7.17389C12.2489 6.66897 12.6038 6.05687 13.041 5.80446Z" fill="#FFD86A"/>
<path d="M16.6642 7.86797C16.6642 8.11857 16.5759 8.39385 16.4313 8.64798C16.2901 8.89502 16.0924 9.11033 15.8737 9.23738L13.8513 10.4021L13.8583 12.7244C13.8618 13.2256 13.5089 13.8397 13.0642 14.0939C12.8454 14.2244 12.6442 14.235 12.5066 14.1503C12.3583 14.0727 12.2701 13.8962 12.2701 13.6421L12.2631 11.3233L10.2442 12.488C9.80654 12.7386 9.45007 12.5374 9.44653 12.0327C9.44653 11.7821 9.53477 11.4997 9.67953 11.2492C9.8242 11.0021 10.0219 10.7833 10.2407 10.6597L11.2112 10.0986C11.416 10.388 11.7371 10.5715 12.0971 10.5715C12.7218 10.5715 13.2266 10.0103 13.2266 9.32209C13.2266 8.69033 12.803 8.16796 12.2524 8.08679L12.249 7.17267C12.249 6.66796 12.6053 6.05738 13.0395 5.80327C13.2654 5.6762 13.463 5.66209 13.6077 5.74326C13.7524 5.82796 13.8406 6.00443 13.8406 6.25503L13.8477 8.57385L15.8666 7.40915C16.3078 7.15502 16.6607 7.36327 16.6642 7.86797Z" fill="#FCCB4F"/>
</svg>
