<svg width="16" height="16" viewBox="0 0 16 16" fill="none" xmlns="http://www.w3.org/2000/svg">
<g id="Mallet">
<path id="Vector" d="M15.6799 10.8677L15.6754 12.0163C15.6735 12.7052 15.2205 13.3934 14.3134 13.9206C12.4919 14.9791 9.52374 14.9792 7.69037 13.9207C6.76784 13.3881 6.30714 12.6882 6.30909 11.9893L6.31354 10.8407C6.31155 11.5396 6.77229 12.2395 7.69482 12.7721C9.52819 13.8306 12.4963 13.8305 14.3179 12.772C15.225 12.2448 15.6779 11.5567 15.6799 10.8677Z" fill="#755E53"/>
<path id="Vector_2" d="M14.1115 9.29225C14.9791 9.29475 15.6803 10 15.6779 10.8676C15.6759 11.5565 15.223 12.2448 14.3158 12.772C12.4943 13.8305 9.52619 13.8306 7.69281 12.7721C6.77028 12.2395 6.30958 11.5396 6.31153 10.8407C6.31399 9.97311 7.01934 9.2718 7.88692 9.2743L14.1115 9.29225Z" fill="#8A6E62"/>
<g id="Group">
<path id="Vector_3" d="M15.298 10.1315L15.2939 10.4681C15.2921 11.1009 14.8761 11.7329 14.043 12.2171C12.37 13.1893 9.64389 13.1894 7.96005 12.2172C7.11276 11.7281 6.68962 11.0852 6.69141 10.4433L6.69548 10.1068C6.69368 10.7486 7.11682 11.3915 7.96412 11.8806C9.64796 12.8528 12.3741 12.8527 14.0471 11.8805C14.8802 11.3963 15.2962 10.7643 15.298 10.1315Z" fill="#755E53"/>
<path id="Vector_4" d="M14.027 8.35719C15.7108 9.32935 15.7254 10.9051 14.0469 11.8805C12.3739 12.8527 9.64778 12.8528 7.96394 11.8806C6.2801 10.9085 6.27137 9.32941 7.94433 8.35719C9.62282 7.38173 12.3431 7.38503 14.027 8.35719Z" fill="#8A6E62"/>
</g>
<g id="Group_2">
<g id="Group_3">
<path id="Vector_5" d="M1.35387 1.44259C1.26869 1.39245 1.14843 1.39734 1.0132 1.47245C0.742608 1.62778 0.532208 2.00355 0.532208 2.31424C0.532208 2.4647 0.587312 2.56989 0.672464 2.62493L0.46008 2.49888C0.374928 2.44874 0.319824 2.34355 0.319824 2.18819C0.319824 1.88266 0.535248 1.50688 0.800816 1.35155C0.93608 1.27645 1.0563 1.26618 1.14651 1.31632L1.35387 1.44259Z" fill="#A18B81"/>
<path id="Vector_6" d="M1.01269 1.47479C1.2814 1.31965 1.4964 1.4458 1.4973 1.75469C1.49816 2.05981 1.28456 2.43341 1.01586 2.58855C0.747125 2.74365 0.532117 2.61754 0.531253 2.31242C0.530357 2.00353 0.743989 1.62993 1.01269 1.47479Z" fill="#755E53"/>
</g>
<g id="Group_4">
<path id="Vector_7" d="M6.83206 4.7559C6.75888 4.71283 6.65562 4.71702 6.53946 4.78153C6.30707 4.91494 6.12637 5.23766 6.12637 5.50451C6.12637 5.63373 6.1737 5.72406 6.24685 5.77133L0.786464 2.59584C0.713312 2.55277 0.666016 2.46243 0.666016 2.32899C0.666016 2.06656 0.85104 1.74384 1.0791 1.61043C1.19526 1.54592 1.29853 1.53712 1.376 1.58019L6.83206 4.7559Z" fill="#8A6E62"/>
<path id="Vector_8" d="M6.53896 4.78355C6.76975 4.6503 6.95442 4.75866 6.95515 5.02394C6.95589 5.28598 6.77243 5.60685 6.54168 5.74006C6.3109 5.87331 6.12623 5.76496 6.12549 5.50294C6.12472 5.23766 6.30818 4.91677 6.53896 4.78355Z" fill="#8A6E62"/>
</g>
<g id="Group_5">
<path id="Vector_9" d="M7.02379 4.73425C6.93861 4.6841 6.81835 4.689 6.68312 4.7641C6.41256 4.91943 6.20213 5.29521 6.20213 5.6059C6.20213 5.75636 6.25723 5.86154 6.34239 5.91658L6.13 5.79057C6.04485 5.74042 5.98975 5.63524 5.98975 5.47988C5.98975 5.17434 6.20517 4.79857 6.47074 4.64324C6.606 4.56814 6.72623 4.55786 6.81643 4.60801L7.02379 4.73425Z" fill="#A18B81"/>
<path id="Vector_10" d="M6.68258 4.7664C6.95129 4.61127 7.16629 4.73741 7.16719 5.04631C7.16805 5.35143 6.95446 5.72503 6.68575 5.88016C6.41705 6.0353 6.20204 5.90915 6.20117 5.60407C6.20028 5.29517 6.41388 4.92154 6.68258 4.7664Z" fill="#755E53"/>
</g>
<g id="Group_6">
<path id="Vector_11" d="M6.92637 4.98288C6.9207 4.98288 6.9207 4.98288 6.91504 4.98288V4.97734L6.92637 4.98288Z" fill="#A18B81"/>
<path id="Vector_12" d="M8.53357 5.84208C8.83764 5.66653 9.08096 5.80928 9.08192 6.15882C9.08292 6.50406 8.84119 6.92685 8.53712 7.1024C8.23306 7.27795 7.98973 7.13523 7.98877 6.78995C7.98781 6.44042 8.22951 6.01763 8.53357 5.84208Z" fill="#DDE4E7"/>
<path id="Vector_13" d="M8.84949 5.77658C8.76446 5.75389 8.65109 5.77075 8.53202 5.83885C8.22587 6.01463 7.98776 6.43984 7.98776 6.79139C7.98776 6.96138 8.05013 7.08039 8.14648 7.14269L6.56338 5.6633C6.55771 5.6633 6.55771 5.65747 6.55771 5.65747C6.50667 5.63504 6.47266 5.57248 6.47266 5.4817C6.47266 5.31171 6.59173 5.09635 6.74478 5.01136C6.80718 4.97149 6.86952 4.96595 6.9149 4.98285C6.92053 4.98285 6.92053 4.98285 6.92622 4.98285L8.84949 5.77658Z" fill="#8A6E62"/>
</g>
<g id="Group_7">
<path id="Vector_14" d="M9.41374 5.82608C9.29713 5.75744 9.13259 5.76413 8.94747 5.86691C8.57717 6.07952 8.2892 6.59379 8.2892 7.01901C8.2892 7.22493 8.36462 7.3689 8.48117 7.44422L8.10603 7.23021C7.98949 7.16157 7.91406 7.0176 7.91406 6.80499C7.91406 6.38682 8.20891 5.87254 8.57233 5.65994C8.75745 5.55715 8.922 5.54307 9.04545 5.61171L9.41374 5.82608Z" fill="#755E53"/>
<path id="Vector_15" d="M8.947 5.87012C9.31475 5.6578 9.60902 5.83044 9.61023 6.25319C9.61142 6.67076 9.31907 7.18209 8.95132 7.39441C8.58358 7.60673 8.28927 7.43409 8.28809 7.01652C8.28691 6.59377 8.57926 6.08244 8.947 5.87012Z" fill="#DDE4E7"/>
</g>
<g id="Group_8">
<path id="Vector_16" d="M13.7849 9.58164L13.7822 9.93901C13.7811 10.3443 13.5146 10.7492 12.9809 11.0594C11.9092 11.6822 10.1628 11.6823 9.08416 11.0595C8.54138 10.7461 8.2703 10.3343 8.27149 9.92314L8.27411 9.5658C8.27296 9.977 8.54403 10.3888 9.08682 10.7021C10.1655 11.3249 11.9118 11.3249 12.9836 10.7021C13.5172 10.3918 13.7837 9.98695 13.7849 9.58164Z" fill="#755E53"/>
<path id="Vector_17" d="M12.9706 8.44499C14.0493 9.06778 14.0586 10.0772 12.9833 10.702C11.9116 11.3248 10.1653 11.3249 9.08661 10.7021C8.00796 10.0794 8.00232 9.06781 9.07407 8.44499C10.1493 7.8201 11.8919 7.82221 12.9706 8.44499Z" fill="#A18B81"/>
</g>
<g id="Group_9">
<path id="Vector_18" d="M13.3418 8.70449L13.3396 9.48017C13.3386 9.82033 13.115 10.1601 12.6671 10.4204C11.7677 10.9431 10.3021 10.9431 9.39686 10.4205C8.94134 10.1575 8.71385 9.81195 8.71485 9.46686L8.71705 8.69118C8.71609 9.03627 8.94358 9.38187 9.39907 9.64484C10.3043 10.1675 11.7699 10.1674 12.6693 9.64474C13.1172 9.38446 13.3408 9.04465 13.3418 8.70449Z" fill="#755E53"/>
<path id="Vector_19" d="M12.6588 7.7506C13.564 8.27325 13.5719 9.12036 12.6695 9.64474C11.7701 10.1674 10.3046 10.1675 9.39931 9.64484C8.49407 9.12221 8.48936 8.27328 9.38879 7.7506C10.2911 7.22621 11.7536 7.22794 12.6588 7.7506Z" fill="#A18B81"/>
</g>
<g id="Group_10">
<path id="Vector_20" d="M13.9733 7.99027L13.9705 8.37207C13.9693 8.80509 13.6845 9.23767 13.1143 9.56903C11.9693 10.2344 10.1037 10.2345 8.95124 9.56912C8.37136 9.23434 8.08176 8.79437 8.08301 8.35507L8.0858 7.97328C8.08455 8.41258 8.37415 8.85255 8.95405 9.18733C10.1065 9.85267 11.9722 9.85261 13.1172 9.18723C13.6873 8.85587 13.972 8.4233 13.9733 7.99027Z" fill="#8A6E62"/>
<path id="Vector_21" d="M13.1037 6.77591C14.2561 7.44125 14.266 8.51965 13.1173 9.1872C11.9723 9.85258 10.1066 9.85264 8.95418 9.1873C7.80177 8.52195 7.79578 7.44125 8.94078 6.77587C10.0895 6.10835 11.9512 6.11059 13.1037 6.77591Z" fill="#A18B81"/>
</g>
<g id="Group_11">
<path id="Vector_22" d="M13.7849 5.22138L13.7822 7.8465C13.7811 8.25181 13.5146 8.65671 12.9809 8.96688C11.9092 9.5897 10.1628 9.58976 9.08416 8.96698C8.54138 8.6536 8.2703 8.24179 8.27149 7.83063L8.27411 5.20551C8.27296 5.61667 8.54403 6.02851 9.08682 6.34186C10.1655 6.96464 11.9118 6.96458 12.9836 6.34176C13.5172 6.03159 13.7837 5.62672 13.7849 5.22138Z" fill="#FEE182"/>
<path id="Vector_23" d="M12.9706 4.08474C14.0493 4.70752 14.0586 5.7169 12.9833 6.34176C11.9116 6.96458 10.1653 6.96464 9.08661 6.34186C8.00796 5.7191 8.00232 4.70755 9.07407 4.08474C10.1493 3.45987 11.8919 3.46195 12.9706 4.08474Z" fill="#A18B81"/>
</g>
<g id="Group_12">
<path id="Vector_24" d="M13.9733 4.73107L13.9705 5.11286C13.9693 5.54589 13.6845 5.97847 13.1143 6.30983C11.9693 6.9752 10.1037 6.97527 8.95124 6.30992C8.37136 5.97514 8.08176 5.53517 8.08301 5.09587L8.0858 4.71408C8.08455 5.15338 8.37415 5.59334 8.95405 5.92813C10.1065 6.59347 11.9722 6.59341 13.1172 5.92803C13.6873 5.59667 13.972 5.1641 13.9733 4.73107Z" fill="#8A6E62"/>
<path id="Vector_25" d="M13.1037 3.51674C14.2561 4.18209 14.266 5.26049 13.1173 5.92804C11.9723 6.59342 10.1066 6.59348 8.95418 5.92814C7.80177 5.26279 7.79578 4.18209 8.94078 3.51671C10.0895 2.84916 11.9512 2.8514 13.1037 3.51674Z" fill="#A18B81"/>
</g>
<g id="Group_13">
<path id="Vector_26" d="M13.3418 3.8632L13.3396 4.63888C13.3386 4.97904 13.115 5.31884 12.6671 5.57913C11.7677 6.10182 10.3021 6.10185 9.39686 5.57923C8.94134 5.31625 8.71385 4.97065 8.71485 4.62556L8.71705 3.84988C8.71609 4.19497 8.94358 4.54057 9.39907 4.80355C10.3043 5.3262 11.7699 5.32614 12.6693 4.80345C13.1172 4.54316 13.3408 4.20336 13.3418 3.8632Z" fill="#755E53"/>
<path id="Vector_27" d="M12.6588 2.90931C13.564 3.43197 13.5719 4.27907 12.6695 4.80346C11.7701 5.32615 10.3046 5.32618 9.39931 4.80355C8.49407 4.2809 8.48936 3.432 9.38879 2.90931C10.2911 2.3849 11.7536 2.38666 12.6588 2.90931Z" fill="#A18B81"/>
</g>
<g id="Group_14">
<path id="Vector_28" d="M13.7849 3.55565L13.7822 3.91303C13.7811 4.31834 13.5146 4.72323 12.9809 5.03341C11.9092 5.65623 10.1628 5.65629 9.08416 5.03351C8.54138 4.72013 8.2703 4.30832 8.27149 3.89715L8.27411 3.53981C8.27296 3.95101 8.54403 4.36282 9.08682 4.67616C10.1655 5.29895 11.9118 5.29888 12.9836 4.67607C13.5172 4.36586 13.7837 3.96096 13.7849 3.55565Z" fill="#8A6E62"/>
<path id="Vector_29" d="M12.9706 2.41901C14.0493 3.04179 14.0586 4.05117 12.9833 4.67603C11.9116 5.29885 10.1653 5.29891 9.08661 4.67613C8.00796 4.05335 8.00232 3.04183 9.07407 2.41901C10.1493 1.79415 11.8919 1.79623 12.9706 2.41901Z" fill="#A18B81"/>
</g>
<path id="Vector_30" d="M12.651 2.593C13.5562 3.11566 13.564 3.96276 12.6617 4.48714C11.7623 5.00983 10.2967 5.00986 9.3915 4.48724C8.48625 3.96458 8.48155 3.11569 9.38097 2.593C10.2833 2.06858 11.7457 2.07034 12.651 2.593Z" fill="#8A6E62"/>
<g id="Group_15">
<path id="Vector_31" d="M1.93788 1.90826C1.8646 1.86512 1.76117 1.86935 1.64485 1.93392C1.41215 2.06752 1.23119 2.39072 1.23119 2.65792C1.23119 2.78733 1.27858 2.8778 1.35183 2.92516L1.28031 2.88445C1.20706 2.84132 1.15967 2.75085 1.15967 2.61722C1.15967 2.35444 1.34495 2.03124 1.57336 1.89764C1.68968 1.83303 1.79311 1.8242 1.87071 1.86733L1.93788 1.90826Z" fill="#755E53"/>
</g>
<g id="Group_16">
<path id="Vector_32" d="M2.13319 2.02192C2.05991 1.97879 1.95648 1.98301 1.84016 2.04759C1.60746 2.18119 1.42647 2.50439 1.42647 2.77159C1.42647 2.90099 1.47386 2.99146 1.54711 3.03882L1.47562 2.99811C1.40237 2.95498 1.35498 2.86451 1.35498 2.73088C1.35498 2.4681 1.54026 2.1449 1.76868 2.0113C1.885 1.94669 1.98842 1.93786 2.06602 1.98099L2.13319 2.02192Z" fill="#755E53"/>
</g>
<g id="Group_17">
<path id="Vector_33" d="M2.32801 2.13558C2.25473 2.09245 2.15131 2.09667 2.03499 2.16128C1.80228 2.29488 1.62129 2.61805 1.62129 2.88528C1.62129 3.01469 1.66868 3.10515 1.74193 3.15251L1.67044 3.11181C1.5972 3.06867 1.5498 2.97821 1.5498 2.84458C1.5498 2.58179 1.73508 2.25859 1.9635 2.12499C2.07982 2.06038 2.18324 2.05155 2.26084 2.09469L2.32801 2.13558Z" fill="#755E53"/>
</g>
<g id="Group_18">
<path id="Vector_34" d="M2.52329 2.24928C2.45001 2.20615 2.34659 2.21037 2.23027 2.27495C1.99757 2.40855 1.81661 2.73175 1.81661 2.99895C1.81661 3.12836 1.864 3.21882 1.93725 3.26618L1.86576 3.22548C1.79251 3.18234 1.74512 3.09188 1.74512 2.95824C1.74512 2.69546 1.9304 2.37226 2.15881 2.23866C2.27513 2.17408 2.37853 2.16522 2.45613 2.20836L2.52329 2.24928Z" fill="#755E53"/>
</g>
<g id="Group_19">
<path id="Vector_35" d="M2.71861 2.36294C2.64533 2.3198 2.5419 2.32403 2.42558 2.3886C2.19288 2.52224 2.01192 2.8454 2.01192 3.11264C2.01192 3.24204 2.05931 3.33251 2.13256 3.37987L2.06107 3.33916C1.98782 3.29603 1.94043 3.20556 1.94043 3.07193C1.94043 2.80915 2.12571 2.48595 2.35413 2.35235C2.47045 2.28774 2.57387 2.27891 2.65147 2.32204L2.71861 2.36294Z" fill="#755E53"/>
</g>
<g id="Group_20">
<path id="Vector_36" d="M2.91346 2.47663C2.84018 2.4335 2.73676 2.43769 2.62044 2.5023C2.38773 2.6359 2.20674 2.9591 2.20674 3.2263C2.20674 3.35571 2.25413 3.44617 2.32738 3.49353L2.25589 3.45283C2.18265 3.40969 2.13525 3.31923 2.13525 3.18559C2.13525 2.92281 2.32053 2.59961 2.54895 2.46601C2.66527 2.4014 2.76869 2.39257 2.84629 2.43571L2.91346 2.47663Z" fill="#755E53"/>
</g>
<g id="Group_21">
<path id="Vector_37" d="M3.10877 2.59031C3.03549 2.54718 2.93207 2.5514 2.81575 2.61598C2.58305 2.74958 2.40205 3.07278 2.40205 3.33998C2.40205 3.46938 2.44945 3.55985 2.52269 3.60721L2.45121 3.5665C2.37796 3.52337 2.33057 3.4329 2.33057 3.29927C2.33057 3.03649 2.51585 2.71329 2.74426 2.57969C2.86058 2.51508 2.96401 2.50625 3.04161 2.54938L3.10877 2.59031Z" fill="#8A6E62"/>
</g>
</g>
</g>
</svg>
