<svg width="16" height="16" viewBox="0 0 16 16" fill="none" xmlns="http://www.w3.org/2000/svg">
<g id="Stationery">
<g id="_x31_73">
<path id="Vector" d="M11.3453 5.01083H4.62872L4.6294 5.01518C3.95472 5.53548 3.68769 6.17596 3.82842 6.79366H3.82462L4.51258 13.1229C4.58137 13.5861 4.92306 14.0355 5.53306 14.3887C6.90207 15.1798 9.12187 15.1798 10.484 14.3864C11.078 14.0424 11.4082 13.6044 11.4816 13.155H11.4839L11.4976 13.0564L12.1787 6.79366H12.175C12.3098 6.17404 12.0303 5.53211 11.3453 5.01083Z" fill="#DF3260"/>
<path id="Vector_2" d="M12.1777 6.79315L11.497 13.0564L11.4824 13.1553C11.4446 13.3793 11.3428 13.6004 11.177 13.8099C11.0111 14.0193 10.7813 14.2142 10.4846 14.3859C9.12023 15.18 6.90059 15.18 5.53334 14.3888C4.92242 14.0368 4.58206 13.5859 4.51224 13.1233L3.82568 6.79315H12.1777Z" fill="#DF3260"/>
<path id="Vector_3" d="M10.9885 8.20398C9.34887 9.15794 6.67962 9.15794 5.03081 8.20626C3.37972 7.2523 3.37283 5.7067 5.01246 4.75502C6.6521 3.80106 9.31906 3.80106 10.9702 4.75502C12.619 5.7067 12.6281 7.2523 10.9885 8.20398Z" fill="#F45170"/>
<path id="Vector_4" d="M11.6442 6.48637C11.6442 7.57314 9.91936 8.26601 8.73642 8.37367C8.68369 8.37824 8.63093 8.38284 8.57819 8.38972C8.48876 8.39659 8.39704 8.40348 8.3053 8.40576C8.28008 8.40576 8.25486 8.40806 8.22962 8.40806C8.15854 8.41035 8.08517 8.41265 8.01178 8.41265C7.4537 8.41265 6.84042 8.34287 6.31482 8.18333C5.85867 8.05491 5.40766 7.85388 5.02146 7.56646C4.59034 7.24083 4.35645 6.86245 4.35645 6.47261C4.35645 6.18826 4.48486 5.9039 4.72564 5.64477C4.86095 5.5003 5.02835 5.36501 5.23015 5.23659C5.26226 5.21824 5.29435 5.1976 5.32646 5.17926C5.4801 5.08982 5.64292 5.00955 5.8172 4.94076C6.17346 4.7941 6.55819 4.6929 6.95233 4.62889C6.9959 4.62201 7.04176 4.61513 7.08533 4.60825C7.37657 4.56697 7.67697 4.54634 7.98655 4.54634C8.06911 4.54634 8.15396 4.54864 8.23651 4.55092C8.26173 4.55092 8.28467 4.55321 8.30989 4.55551C9.61058 4.61892 11.6442 5.25775 11.6442 6.48637Z" fill="#DF3260"/>
<g id="Group">
<path id="Vector_5" d="M5.44246 2.48031L4.2666 2.66242L4.49089 1.59566L4.61133 1.0182L4.9034 1.53195L5.44246 2.48031Z" fill="#FFDE9B"/>
<path id="Vector_6" d="M6.31456 8.18333C6.07837 8.11683 5.85363 8.03426 5.64495 7.93566C5.54176 7.88751 5.44086 7.83476 5.34455 7.77972C5.22759 7.71093 5.11981 7.63984 5.0212 7.56646L4.90196 6.79825L4.76207 5.88097L4.72538 5.64477L4.27362 2.69574C4.26904 2.68655 4.26904 2.6728 4.26904 2.66133C4.26904 2.65217 4.26904 2.64528 4.27362 2.63611C4.27362 2.62694 4.27592 2.61547 4.28051 2.604C4.29656 2.54438 4.34013 2.48247 4.40433 2.42744C4.61532 2.26003 4.98452 2.2027 5.23676 2.3013C5.31703 2.33111 5.37894 2.37698 5.41104 2.42744C5.41793 2.43431 5.42251 2.4412 5.4248 2.44807V2.45266C5.4271 2.46183 5.43627 2.46871 5.43627 2.48018V2.48247C5.44086 2.49164 5.44086 2.5031 5.44545 2.51457L5.81694 4.94076L5.88344 5.37877L6.00956 6.20431H6.01186L6.31456 8.18333ZM4.90318 1.53187C4.77647 1.57933 4.62865 1.60474 4.49066 1.59576L4.61115 1.01813L4.90318 1.53187Z" fill="#72D561"/>
<g id="Group_2">
<path id="Vector_7" d="M8.29574 4.11811L6.94971 4.14895L7.39043 2.98153L7.62782 2.3488L7.8684 2.98153L8.29574 4.11811Z" fill="#FFDE9B"/>
<path id="Vector_8" d="M8.30976 4.19097V5.07154L8.30747 6.84646L8.30517 8.40583C8.27995 8.40583 8.25473 8.40812 8.22949 8.40812C8.1584 8.41042 8.08503 8.41271 8.01165 8.41271C7.69289 8.41271 7.37873 8.38979 7.07832 8.3485C7.03245 8.34163 6.98888 8.33474 6.94531 8.32787L6.9499 6.89233L6.9522 5.14033V4.18867C6.9522 4.17491 6.9522 4.16115 6.95907 4.14968C6.97053 4.06253 7.03475 3.97541 7.14941 3.90889C7.41541 3.75526 7.84424 3.75526 8.11025 3.90889C8.22721 3.97541 8.28912 4.06253 8.30287 4.14968C8.30976 4.16343 8.30976 4.17719 8.30976 4.19097ZM7.86846 2.98145C7.71677 3.01295 7.54507 3.01579 7.39051 2.98145L7.62805 2.34898L7.86846 2.98145Z" fill="#5094FF"/>
</g>
<g id="Group_3">
<path id="Vector_9" d="M11.3836 2.73786L11.1683 5.55095C11.1661 5.58015 11.0038 7.68604 11.0141 7.55241C10.9443 7.60768 10.8687 7.66004 10.7901 7.70949C10.7523 7.73277 10.7145 7.75605 10.6738 7.77931C10.5952 7.82877 10.508 7.8724 10.4207 7.91313C10.3654 7.93932 10.3043 7.9684 10.2461 7.99459C9.95523 8.11677 9.63815 8.21567 9.29779 8.2855H9.29488C9.26286 8.29131 9.23087 8.29713 9.19887 8.30296C9.17559 8.30585 9.15523 8.31167 9.13197 8.31459C9.04179 8.33204 8.94869 8.34658 8.84978 8.36112C8.83815 8.36112 8.82361 8.36404 8.80615 8.36404L8.91668 6.92986L9.05633 5.13495L9.09415 4.6404L9.32687 1.59459H9.32979L9.54797 1.48985L11.3807 2.73786H11.3836Z" fill="#FFDE9B"/>
<g id="Group_4">
<path id="Vector_10" d="M11.383 2.737L11.1674 5.55074C11.1652 5.57995 11.0035 7.68632 11.0138 7.55269C10.945 7.60772 10.8693 7.66046 10.7891 7.71092C10.7913 7.68182 10.9799 5.22952 10.9679 5.38563L11.1629 2.84249L11.3807 2.737H11.383Z" fill="#FEBC1F"/>
<path id="Vector_11" d="M11.1627 2.84249L10.9678 5.38563C10.9656 5.41473 10.7769 7.86702 10.7889 7.71092C10.7522 7.73385 10.7133 7.75679 10.6743 7.77972C10.594 7.82788 10.5092 7.87145 10.422 7.91272C10.3647 7.94024 10.3051 7.96776 10.2454 7.99528C9.95421 8.11682 9.63775 8.21543 9.29836 8.28422H9.29607C9.26396 8.29109 9.23187 8.29798 9.19976 8.30257C9.17682 8.30714 9.15619 8.31174 9.13325 8.31403C9.04153 8.33238 8.9475 8.34614 8.85119 8.3599C8.83743 8.36218 8.82367 8.36447 8.80762 8.36447L8.91769 6.92894L9.05529 5.13568L9.09427 4.64034L9.32817 1.595H9.33047L11.1627 2.84249Z" fill="#FFD06C"/>
<path id="Vector_12" d="M11.3805 2.73744L11.1632 2.84304L9.32959 1.59562L9.5469 1.49002L11.3805 2.73744Z" fill="#FFDE9B"/>
</g>
<path id="Vector_13" d="M9.29842 8.28422H9.29612C9.26401 8.2911 9.23192 8.29798 9.19981 8.30257C9.17687 8.30715 9.15624 8.31174 9.1333 8.31404L9.00488 8.2269L9.01406 8.08931L9.29842 8.28422Z" fill="#31323D"/>
<path id="Vector_14" d="M9.67024 8.0506L9.66006 8.185L9.03955 7.76289L9.04973 7.62849L9.67024 8.0506Z" fill="#31323D"/>
<path id="Vector_15" d="M9.99055 3.88334L9.98037 4.01745L9.35986 3.59534L9.37005 3.46123L9.99055 3.88334Z" fill="#31323D"/>
<path id="Vector_16" d="M10.3128 4.59024L10.3026 4.72464L9.32373 4.05875L9.3342 3.92435L10.3128 4.59024Z" fill="#31323D"/>
<path id="Vector_17" d="M9.91956 4.80843L9.90908 4.94429L9.28857 4.52218L9.29905 4.38632L9.91956 4.80843Z" fill="#31323D"/>
<path id="Vector_18" d="M9.88391 5.27184L9.87344 5.4077L9.25293 4.98559L9.2634 4.84973L9.88391 5.27184Z" fill="#31323D"/>
<path id="Vector_19" d="M10.2064 5.97905L10.1959 6.11316L9.21729 5.44727L9.22747 5.31316L10.2064 5.97905Z" fill="#31323D"/>
<path id="Vector_20" d="M9.81282 6.19867L9.80264 6.33278L9.18213 5.91067L9.19231 5.77657L9.81282 6.19867Z" fill="#31323D"/>
<path id="Vector_21" d="M9.77698 6.66034L9.76651 6.7962L9.146 6.37409L9.15647 6.23824L9.77698 6.66034Z" fill="#31323D"/>
<path id="Vector_22" d="M10.0999 7.36755L10.0895 7.50341L9.11084 6.83751L9.12131 6.70166L10.0999 7.36755Z" fill="#31323D"/>
<path id="Vector_23" d="M9.70618 7.58719L9.6957 7.72159L9.0752 7.29948L9.08567 7.16508L9.70618 7.58719Z" fill="#31323D"/>
<path id="Vector_24" d="M10.026 3.41991L10.0158 3.55577L9.39502 3.13366L9.40549 2.9978L10.026 3.41991Z" fill="#31323D"/>
<path id="Vector_25" d="M10.4198 3.19999L10.4093 3.33585L9.43066 2.67025L9.44114 2.53439L10.4198 3.19999Z" fill="#31323D"/>
<path id="Vector_26" d="M10.0973 2.49453L10.0868 2.62893L9.46631 2.20682L9.47678 2.07242L10.0973 2.49453Z" fill="#31323D"/>
</g>
</g>
</g>
</g>
</svg>
