<svg width="24" height="24" viewBox="0 0 24 24" fill="none" xmlns="http://www.w3.org/2000/svg">
<path d="M15.5819 2.54641C15.5784 2.08759 15.4161 1.76287 15.1548 1.61111C15.1372 1.60053 15.1196 1.58993 15.1019 1.58289L13.7643 0.802881C13.4995 0.651119 13.1325 0.672294 12.7302 0.905226L4.02304 5.9311C3.21841 6.39699 2.56897 7.52287 2.56897 8.44758L2.60783 21.4535C2.60783 21.9123 2.77017 22.237 3.03134 22.3888L4.40778 23.1864C4.67249 23.3488 5.04662 23.3311 5.45954 23.0946L14.1667 18.0688C14.9713 17.6029 15.6207 16.477 15.6172 15.5523L15.5819 2.54641ZM12.356 15.9617L5.32899 20.017L5.30073 8.95935C5.2972 8.62054 5.53717 8.20758 5.83368 8.03817L12.8573 3.98288L12.889 15.0405C12.889 15.3793 12.649 15.7923 12.356 15.9617Z" fill="#423751"/>
<path d="M15.0648 15.2544C15.0672 16.0912 14.4787 17.1097 13.7506 17.5305L5.86886 22.0803C5.14071 22.5011 4.54841 22.1641 4.54606 21.3265L4.5127 9.55328C4.51035 8.71721 5.09879 7.69794 5.82694 7.27719L13.7087 2.72734C14.4368 2.30659 15.0291 2.64505 15.0315 3.48112L15.0648 15.2544Z" fill="#FFD86A"/>
<path d="M15.0652 15.2545C15.0669 16.0915 14.4786 17.1095 13.7505 17.5306L5.86904 22.0802C5.14095 22.5013 4.54833 22.1642 4.54573 21.3263L4.52429 13.7905C4.76013 13.8308 5.00201 13.8514 5.24899 13.8514C7.72747 13.8514 9.73686 11.7606 9.73686 9.18173C9.73686 7.8593 9.20856 6.66465 8.3587 5.81562L13.7085 2.72737C14.4365 2.30628 15.0292 2.64504 15.0318 3.48121L15.0652 15.2545Z" fill="#FCCB4F"/>
<path d="M14.0879 3.45469L12.6977 2.64679C12.7935 2.70245 12.8529 2.82065 12.8534 2.98842L12.8876 15.0398C12.8885 15.3789 12.65 15.7907 12.3554 15.9608L4.47943 20.508C4.33098 20.5937 4.19639 20.6018 4.09924 20.5454L5.48947 21.3533C5.58657 21.4097 5.72116 21.4016 5.86961 21.3159L13.7457 16.7687C14.0402 16.5986 14.2787 16.1868 14.2778 15.8477L14.2436 3.79632C14.2431 3.62855 14.1837 3.51036 14.0879 3.45469Z" fill="#312944"/>
<path d="M13.7653 0.804225C13.5004 0.650322 13.1337 0.671872 12.7291 0.905516L4.02181 5.93264C3.21743 6.39704 2.56744 7.52353 2.57008 8.44716L2.60693 21.4536C2.60822 21.913 2.77032 22.2361 3.03167 22.3879L4.42189 23.1959C4.16051 23.044 3.99845 22.7209 3.99715 22.2615L3.9603 9.25506C3.95766 8.33143 4.60765 7.20494 5.41204 6.74054L14.1192 1.71342C14.5239 1.47977 14.8906 1.45822 15.1555 1.61212L13.7653 0.804225Z" fill="#312944"/>
<path d="M14.1193 1.71344C14.9236 1.24906 15.5779 1.62252 15.5805 2.54616L15.6174 15.5526C15.62 16.4775 14.97 17.6027 14.1657 18.0671L5.45844 23.0942C4.65408 23.5586 3.99983 23.1864 3.99721 22.2615L3.96034 9.25509C3.95772 8.33145 4.60771 7.20496 5.41208 6.74056L14.1193 1.71344ZM14.2778 15.8477L14.2437 3.79634C14.2427 3.45847 14.0026 3.32167 13.7081 3.49174L5.83204 8.03897C5.53744 8.20905 5.29898 8.62213 5.29993 8.96L5.3341 21.0113C5.33506 21.3505 5.57508 21.486 5.86968 21.3159L13.7457 16.7687C14.0403 16.5987 14.2788 16.1868 14.2778 15.8477Z" fill="#423751"/>
<path d="M9.09089 11.6335L13.1319 17.2251C13.1697 17.2774 13.2117 17.316 13.2529 17.3392C13.3138 17.3752 13.3729 17.3777 13.4132 17.3486L13.9501 17.0381C13.987 17.0158 14.011 16.9704 14.011 16.9009L14.0153 15.5751L17.9097 17.8237C17.9748 17.8614 18.0341 17.8614 18.0735 17.8306C18.0701 17.834 18.0658 17.8366 18.0615 17.8391L18.6052 17.5227C18.6438 17.5004 18.667 17.4532 18.6678 17.3863L18.6738 15.2818C18.6738 15.1462 18.5786 14.9816 18.4611 14.9138L14.2365 12.4748C14.119 12.407 14.0239 12.2424 14.0247 12.1077L14.029 10.396C14.0298 10.2519 13.927 10.0924 13.8172 10.0289C13.776 10.0049 13.734 9.99459 13.6954 10.0032L9.63636 10.9165C9.62517 10.9191 9.61492 10.9234 9.60545 10.9285L9.07548 11.2373L9.07116 11.2398C8.96995 11.2844 8.97682 11.4765 9.09089 11.6335Z" fill="#EDEEF2"/>
<path d="M9.60546 10.9285C9.61458 10.9232 9.62476 10.9192 9.63594 10.9168L13.6954 10.003C13.7338 9.99439 13.7759 10.0048 13.8169 10.0285C13.9273 10.0923 14.0298 10.2522 14.0294 10.3962L14.0246 12.1076C14.0242 12.2422 14.1191 12.4067 14.2369 12.4747L18.4613 14.9136C18.5789 14.9816 18.674 15.1461 18.6736 15.2814L18.6676 17.386C18.6674 17.4532 18.6437 17.5004 18.6055 17.5226L18.0615 17.8388C18.0997 17.8166 18.1234 17.7693 18.1236 17.7021L18.1296 15.5975C18.13 15.4622 18.035 15.2977 17.9173 15.2298L13.6929 12.7908C13.5752 12.7229 13.4802 12.5584 13.4806 12.4237L13.4854 10.7124C13.4858 10.5683 13.3833 10.4084 13.2729 10.3446C13.2319 10.3209 13.1898 10.3105 13.1514 10.3191L9.09194 11.2329C9.08076 11.2354 9.07058 11.2394 9.06145 11.2447L9.60546 10.9285ZM13.467 17.2175L13.4718 15.5067C13.472 15.4395 13.4957 15.3922 13.534 15.37L14.0779 15.0539C14.0397 15.0761 14.016 15.1234 14.0158 15.1906L14.011 16.9013C14.0108 16.9706 13.9868 17.0162 13.9497 17.0378L13.4057 17.3539C13.4428 17.3324 13.4668 17.2868 13.467 17.2175Z" fill="#871577"/>
<path d="M13.2729 10.3447C13.2318 10.321 13.1897 10.3106 13.1514 10.3191L9.09189 11.233C8.97006 11.2597 8.96947 11.466 9.09076 11.6337L13.1318 17.225C13.1699 17.2777 13.2118 17.3157 13.2527 17.3394C13.3633 17.4032 13.4665 17.3617 13.4669 17.2175L13.4718 15.5067C13.4722 15.3715 13.5677 15.317 13.6855 15.385L17.9099 17.8239C18.0276 17.8919 18.1232 17.8374 18.1235 17.7021L18.1295 15.5975C18.1299 15.4622 18.0349 15.2977 17.9172 15.2298L13.6928 12.7908C13.5751 12.7229 13.4801 12.5584 13.4805 12.4238L13.4854 10.7124C13.4858 10.5683 13.3833 10.4084 13.2729 10.3447Z" fill="#CF1CB6"/>
</svg>
