<svg width="24" height="24" viewBox="0 0 24 24" fill="none" xmlns="http://www.w3.org/2000/svg">
<path d="M15.5819 2.54641C15.5784 2.08759 15.4161 1.76287 15.1548 1.61111C15.1372 1.60053 15.1196 1.58993 15.1019 1.58289L13.7643 0.802881C13.4995 0.651119 13.1325 0.672294 12.7302 0.905226L4.02304 5.9311C3.21841 6.39699 2.56897 7.52287 2.56897 8.44758L2.60783 21.4535C2.60783 21.9123 2.77017 22.237 3.03134 22.3888L4.40778 23.1864C4.67249 23.3488 5.04662 23.3311 5.45954 23.0946L14.1667 18.0688C14.9713 17.6029 15.6207 16.477 15.6172 15.5523L15.5819 2.54641ZM12.356 15.9617L5.32899 20.017L5.30073 8.95935C5.2972 8.62054 5.53717 8.20758 5.83368 8.03817L12.8573 3.98288L12.889 15.0405C12.889 15.3793 12.649 15.7923 12.356 15.9617Z" fill="#423751"/>
<path d="M15.0648 15.2544C15.0672 16.0912 14.4787 17.1097 13.7506 17.5305L5.86886 22.0803C5.14071 22.5011 4.54841 22.1641 4.54606 21.3265L4.5127 9.55328C4.51035 8.71721 5.09879 7.69794 5.82694 7.27719L13.7087 2.72734C14.4368 2.30659 15.0291 2.64505 15.0315 3.48112L15.0648 15.2544Z" fill="#FFD86A"/>
<path d="M15.0652 15.2545C15.0669 16.0915 14.4786 17.1095 13.7505 17.5306L5.86904 22.0802C5.14095 22.5013 4.54833 22.1642 4.54573 21.3263L4.52429 13.7905C4.76013 13.8308 5.00201 13.8514 5.24899 13.8514C7.72747 13.8514 9.73686 11.7606 9.73686 9.18173C9.73686 7.8593 9.20856 6.66465 8.3587 5.81562L13.7085 2.72737C14.4365 2.30628 15.0292 2.64504 15.0318 3.48121L15.0652 15.2545Z" fill="#FCCB4F"/>
<path d="M14.0879 3.45469L12.6977 2.64679C12.7935 2.70245 12.8529 2.82065 12.8534 2.98842L12.8876 15.0398C12.8885 15.3789 12.65 15.7907 12.3554 15.9608L4.47943 20.508C4.33098 20.5937 4.19639 20.6018 4.09924 20.5454L5.48947 21.3533C5.58657 21.4097 5.72116 21.4016 5.86961 21.3159L13.7457 16.7687C14.0402 16.5986 14.2787 16.1868 14.2778 15.8477L14.2436 3.79632C14.2431 3.62855 14.1837 3.51036 14.0879 3.45469Z" fill="#312944"/>
<path d="M13.7653 0.804225C13.5004 0.650322 13.1337 0.671872 12.7291 0.905516L4.02181 5.93264C3.21743 6.39704 2.56744 7.52353 2.57008 8.44716L2.60693 21.4536C2.60822 21.913 2.77032 22.2361 3.03167 22.3879L4.42189 23.1959C4.16051 23.044 3.99845 22.7209 3.99715 22.2615L3.9603 9.25506C3.95766 8.33143 4.60765 7.20494 5.41204 6.74054L14.1192 1.71342C14.5239 1.47977 14.8906 1.45822 15.1555 1.61212L13.7653 0.804225Z" fill="#312944"/>
<path d="M14.1193 1.71344C14.9236 1.24906 15.5779 1.62252 15.5805 2.54616L15.6174 15.5526C15.62 16.4775 14.97 17.6027 14.1657 18.0671L5.45844 23.0942C4.65408 23.5586 3.99983 23.1864 3.99721 22.2615L3.96034 9.25509C3.95772 8.33145 4.60771 7.20496 5.41208 6.74056L14.1193 1.71344ZM14.2778 15.8477L14.2437 3.79634C14.2427 3.45847 14.0026 3.32167 13.7081 3.49174L5.83204 8.03897C5.53744 8.20905 5.29898 8.62213 5.29993 8.96L5.3341 21.0113C5.33506 21.3505 5.57508 21.486 5.86968 21.3159L13.7457 16.7687C14.0403 16.5987 14.2788 16.1868 14.2778 15.8477Z" fill="#423751"/>
<path d="M21.34 6.68109L17.299 12.2727C17.2612 12.325 17.2192 12.3636 17.178 12.3868C17.1171 12.4228 17.058 12.4254 17.0177 12.3962L16.4808 12.0857C16.4439 12.0634 16.4199 12.018 16.4199 11.9485L16.4156 10.6227L12.5212 12.8713C12.4561 12.909 12.3969 12.909 12.3574 12.8782C12.3608 12.8816 12.3652 12.8842 12.3694 12.8868L11.8257 12.5703C11.7871 12.548 11.7639 12.5008 11.7631 12.4339L11.7571 10.3294C11.7571 10.1939 11.8523 10.0292 11.9698 9.96145L16.1944 7.52241C16.3119 7.45465 16.4071 7.28999 16.4062 7.15535L16.4019 5.44357C16.4011 5.29948 16.504 5.13997 16.6137 5.07651C16.6549 5.0525 16.6969 5.0422 16.7355 5.05078L20.7946 5.96413C20.8057 5.9667 20.816 5.97099 20.8255 5.97614L21.3554 6.28488L21.3597 6.28745C21.461 6.33205 21.4541 6.52415 21.34 6.68109Z" fill="#EDEEF2"/>
<path d="M20.8255 5.97613C20.8163 5.97082 20.8061 5.96686 20.795 5.9644L16.7355 5.05059C16.6971 5.042 16.655 5.05242 16.614 5.07611C16.5036 5.13987 16.4011 5.29978 16.4015 5.44382L16.4063 7.1552C16.4067 7.28984 16.3118 7.45432 16.194 7.52229L11.9696 9.96125C11.852 10.0292 11.7569 10.1937 11.7573 10.329L11.7633 12.4336C11.7635 12.5008 11.7872 12.548 11.8254 12.5703L12.3694 12.8864C12.3312 12.8642 12.3075 12.8169 12.3073 12.7497L12.3013 10.6451C12.301 10.5098 12.3959 10.3453 12.5136 10.2774L16.738 7.83843C16.8557 7.77046 16.9507 7.60598 16.9503 7.47133L16.9455 5.75996C16.9451 5.61591 17.0476 5.456 17.158 5.39224C17.199 5.36855 17.2411 5.35814 17.2795 5.36672L21.339 6.28054C21.3502 6.28299 21.3603 6.28696 21.3695 6.29227L20.8255 5.97613ZM16.9639 12.2651L16.9591 10.5543C16.9589 10.4871 16.9352 10.4399 16.8969 10.4176L16.353 10.1015C16.3912 10.1237 16.4149 10.171 16.4151 10.2382L16.4199 11.9489C16.4201 12.0182 16.4441 12.0638 16.4812 12.0854L17.0252 12.4015C16.9881 12.38 16.9641 12.3344 16.9639 12.2651Z" fill="#9E380E"/>
<path d="M17.158 5.39227C17.1991 5.36858 17.2412 5.35816 17.2795 5.36675L21.339 6.28056C21.4608 6.30727 21.4614 6.51365 21.3402 6.68135L17.2991 12.2726C17.261 12.3253 17.2191 12.3633 17.1782 12.387C17.0676 12.4508 16.9644 12.4093 16.964 12.2651L16.9591 10.5543C16.9587 10.4191 16.8632 10.3646 16.7454 10.4326L12.5211 12.8715C12.4034 12.9395 12.3077 12.885 12.3074 12.7497L12.3014 10.6451C12.301 10.5099 12.396 10.3454 12.5137 10.2774L16.7381 7.83846C16.8558 7.77049 16.9508 7.606 16.9504 7.47136L16.9455 5.75999C16.9451 5.61594 17.0476 5.45603 17.158 5.39227Z" fill="#FB7B46"/>
</svg>
