<svg width="24" height="25" viewBox="0 0 24 25" fill="none" xmlns="http://www.w3.org/2000/svg">
<g id="Moon">
<path id="Vector" d="M12 20.48C16.4073 20.48 19.98 16.9072 19.98 12.5C19.98 8.09276 16.4073 4.51999 12 4.51999C7.59279 4.51999 4.02002 8.09276 4.02002 12.5C4.02002 16.9072 7.59279 20.48 12 20.48Z" fill="#FFBDF6"/>
<path id="Vector_2" d="M18.4127 8.9825C18.4125 8.52826 18.3799 8.07461 18.3152 7.625C17.6487 6.76223 16.8124 6.04522 15.858 5.51822C14.9036 4.99123 13.8513 4.66543 12.7661 4.56095C11.6809 4.45647 10.5858 4.57552 9.54841 4.91075C8.511 5.24598 7.55331 5.79027 6.73444 6.51003C5.91558 7.2298 5.25292 8.10975 4.78738 9.09559C4.32184 10.0814 4.06329 11.1522 4.02769 12.2419C3.99209 13.3315 4.1802 14.4169 4.58041 15.431C4.98061 16.4451 5.58442 17.3664 6.35456 18.1381C7.76676 18.5317 9.25084 18.5932 10.6908 18.3181C12.1307 18.0429 13.4875 17.4384 14.6551 16.5519C15.8227 15.6654 16.7694 14.5208 17.4213 13.2077C18.0731 11.8946 18.4124 10.4485 18.4127 8.9825Z" fill="#FFE3FB"/>
<path id="Vector_3" d="M12.1369 13.2163C12.1369 13.3231 12.0432 13.4188 12.03 13.5219C12.0268 13.6256 12.0168 13.7289 12 13.8313C11.9881 13.9367 11.9693 14.0413 11.9438 14.1444C11.9059 14.2444 11.8621 14.3421 11.8125 14.4369C11.76 14.5288 11.625 14.5606 11.5613 14.645C11.4975 14.7294 11.5013 14.87 11.4263 14.945C11.3513 15.02 11.3138 15.1475 11.2388 15.2131C11.1463 15.2718 11.0506 15.325 10.9519 15.3725C10.86 15.425 10.7007 15.3331 10.6013 15.3725C10.5019 15.4119 10.4607 15.6125 10.3575 15.6406C10.2544 15.6688 10.1232 15.5431 10.0163 15.5563C9.91433 15.5777 9.81092 15.5915 9.70691 15.5975C9.60003 15.5975 9.48191 15.7288 9.37878 15.7156C9.27566 15.7025 9.19128 15.5281 9.09753 15.4925C8.99524 15.4731 8.89438 15.4468 8.79566 15.4138C8.69654 15.3809 8.59949 15.342 8.50503 15.2975C8.41316 15.245 8.28003 15.2469 8.19753 15.1831C8.11503 15.1194 8.09628 14.975 8.02128 14.9C7.95779 14.8179 7.90015 14.7314 7.84878 14.6413C7.78513 14.5612 7.72747 14.4766 7.67628 14.3881C7.62191 14.2963 7.47753 14.2531 7.43628 14.1556C7.39503 14.0581 7.46441 13.9269 7.43628 13.8238C7.40981 13.7245 7.38977 13.6237 7.37628 13.5219C7.34775 13.4217 7.32645 13.3195 7.31253 13.2163C7.30601 13.1107 7.30601 13.0049 7.31253 12.8994C7.30598 12.7907 7.30598 12.6818 7.31253 12.5731C7.34066 12.47 7.50003 12.4138 7.53941 12.3163C7.57878 12.2188 7.48691 12.0519 7.53941 11.96C7.59191 11.8681 7.70066 11.8044 7.76441 11.72C7.83594 11.6404 7.91233 11.5652 7.99316 11.495C8.06816 11.42 8.10191 11.2906 8.18066 11.2269C8.27182 11.1666 8.36705 11.1127 8.46566 11.0656C8.55753 11.0113 8.69816 11.0656 8.79753 11.0188C8.89691 10.9719 8.97191 10.8856 9.07691 10.8594C9.18191 10.8331 9.26441 10.7281 9.37878 10.7131C9.49316 10.6981 9.60003 10.8669 9.70691 10.8669C9.81076 10.8536 9.91533 10.8467 10.02 10.8463C10.1268 10.8405 10.2339 10.8405 10.3407 10.8463C10.4411 10.8811 10.5394 10.9217 10.635 10.9681C10.7416 10.9915 10.8468 11.021 10.95 11.0563C11.0455 11.1075 11.137 11.1658 11.2238 11.2306C11.3069 11.3009 11.3852 11.3767 11.4582 11.4575C11.5344 11.5334 11.6064 11.6136 11.6738 11.6975C11.7417 11.7817 11.8043 11.87 11.8613 11.9619C11.914 12.0607 11.9603 12.1628 12 12.2675C12.0394 12.365 12 12.4906 12.0319 12.5938C12.0638 12.6969 12.1444 12.7813 12.1575 12.8938C12.158 13.0016 12.1511 13.1094 12.1369 13.2163Z" fill="#FFBDF6"/>
<path id="Vector_4" d="M17.4377 17.9656C17.4156 17.7917 17.3792 17.6199 17.329 17.4519C17.2417 17.2991 17.1414 17.1541 17.029 17.0188C16.9518 16.8646 16.8608 16.7177 16.7571 16.58C16.6608 16.4324 16.5523 16.2932 16.4327 16.1638C16.3033 16.0569 16.0577 16.1131 15.904 16.0269C15.7877 15.9594 15.7165 15.8169 15.6077 15.7288C14.4903 16.8378 13.1147 17.6516 11.6046 18.0969V18.4869C11.6128 18.6536 11.6361 18.8193 11.674 18.9819C11.704 19.1506 11.5577 19.3681 11.6158 19.5294C11.674 19.6906 11.9008 19.7769 11.9908 19.925C12.0802 20.0661 12.1825 20.1986 12.2965 20.3206C12.3303 20.3657 12.3557 20.4165 12.3715 20.4706C14.2242 20.386 15.9891 19.6565 17.3608 18.4081C17.4083 18.2653 17.4342 18.1161 17.4377 17.9656Z" fill="#CF1CB6"/>
<path id="Vector_5" d="M14.9849 15.6088C14.8169 15.59 14.6474 15.5863 14.4787 15.5975C14.312 15.614 14.147 15.6447 13.9856 15.6894C13.8202 15.7179 13.6576 15.7612 13.4999 15.8188C13.3406 15.8769 13.1362 15.8319 12.9862 15.9163C12.8362 16.0006 12.7818 16.205 12.6487 16.3156C12.5231 16.4222 12.4076 16.5402 12.3037 16.6681C12.1843 16.7835 12.0751 16.9089 11.9774 17.0431C11.8912 17.195 11.7112 17.3 11.6549 17.4575C11.6288 17.6312 11.6187 17.807 11.6249 17.9825C11.6178 18.0203 11.6134 18.0585 11.6118 18.0969C13.1172 17.6496 14.4881 16.8359 15.6018 15.7288C15.5734 15.7024 15.5403 15.6814 15.5043 15.6669C15.3332 15.6324 15.1594 15.613 14.9849 15.6088Z" fill="#FFBDF6"/>
<path id="Vector_6" d="M19.9427 11.735L19.8546 11.6656C19.7329 11.5822 19.602 11.513 19.4646 11.4594C19.3343 11.3963 19.1971 11.3484 19.0558 11.3169C18.9166 11.2581 18.7714 11.2147 18.6227 11.1875C18.469 11.1875 18.3358 11.2963 18.1915 11.3281C18.1652 11.3281 18.1427 11.3431 18.1165 11.3506C17.8627 12.3416 17.4491 13.2845 16.8921 14.1425C16.9536 14.2437 17.0225 14.3403 17.0983 14.4313C17.1921 14.5494 17.2146 14.7425 17.3308 14.8362C17.4471 14.93 17.6515 14.8869 17.7865 14.9525C17.9215 15.0181 18.0171 15.185 18.1615 15.2188C18.3109 15.2593 18.4643 15.2838 18.619 15.2919C18.7724 15.2719 18.9233 15.2354 19.069 15.1831C19.2171 15.1494 19.3258 15.0256 19.459 14.9619C19.5073 14.9393 19.5575 14.9211 19.609 14.9075C19.8555 14.1313 19.982 13.3219 19.984 12.5075C19.9802 12.2413 19.9671 11.9862 19.9427 11.735Z" fill="#CF1CB6"/>
<path id="Vector_7" d="M17.396 11.6713C17.2798 11.765 17.1148 11.8138 17.021 11.9319C16.9443 12.0631 16.8815 12.202 16.8335 12.3463C16.776 12.483 16.7338 12.6258 16.7079 12.7719C16.6801 12.9158 16.6694 13.0624 16.676 13.2088C16.676 13.3625 16.5598 13.5275 16.5935 13.6719C16.6273 13.8163 16.781 13.9269 16.8504 14.0619C16.8635 14.0881 16.8785 14.1106 16.8917 14.135C17.4487 13.2771 17.8622 12.3341 18.116 11.3431C18.0016 11.3732 17.8904 11.4146 17.7842 11.4669C17.6472 11.5196 17.517 11.5882 17.396 11.6713Z" fill="#FFBDF6"/>
<path id="Vector_8" d="M18.617 16.25C18.5327 16.25 18.4595 16.31 18.3827 16.3269C18.3056 16.3449 18.2308 16.3713 18.1595 16.4056C18.0848 16.4348 18.0137 16.4726 17.9477 16.5181C17.8748 16.5584 17.8063 16.6062 17.7433 16.6606C17.7016 16.7318 17.6677 16.8072 17.642 16.8856C17.6102 16.9603 17.5869 17.0383 17.5727 17.1181C17.5584 17.1966 17.5527 17.2765 17.5558 17.3563C17.5558 17.4388 17.492 17.5306 17.5108 17.6075C17.5295 17.6844 17.6158 17.7481 17.6514 17.8212C17.6855 17.8882 17.727 17.9511 17.7752 18.0087C18.2459 17.5162 18.6517 16.9655 18.9827 16.37C18.9397 16.3544 18.8959 16.3412 18.8514 16.3306C18.7745 16.3081 18.6995 16.25 18.617 16.25Z" fill="#CF1CB6"/>
<path id="Vector_9" d="M10.095 11.9862C9.94269 11.9961 9.78982 11.9796 9.64313 11.9375C9.49463 11.9262 9.34897 11.8907 9.21188 11.8325C9.06898 11.7788 8.9345 11.7049 8.8125 11.6131C8.69256 11.5153 8.58434 11.4039 8.49 11.2812C8.42181 11.1429 8.36839 10.9977 8.33063 10.8481C8.2461 10.7189 8.1751 10.5813 8.11875 10.4375C8.06985 10.2867 8.03533 10.1316 8.01562 9.97437C8.0229 9.81605 8.04678 9.65894 8.08688 9.50562C8.12063 9.34999 8.27437 9.24687 8.34937 9.11187C8.42437 8.97687 8.38875 8.76499 8.49 8.65249C8.59125 8.53999 8.78625 8.52124 8.9175 8.44249C9.04324 8.36186 9.18131 8.30233 9.32625 8.26624C9.48188 8.23437 9.6375 8.12187 9.78937 8.14249C9.94125 8.16312 10.0556 8.32999 10.1981 8.39749C10.3329 8.45725 10.459 8.53482 10.5731 8.62812C10.6923 8.72263 10.7999 8.83088 10.8937 8.95062C11 9.06529 11.0937 9.191 11.1731 9.32562C11.2127 9.47735 11.2384 9.63236 11.25 9.78874C11.2709 9.94158 11.2753 10.0962 11.2631 10.25C11.2645 10.3999 11.2494 10.5496 11.2181 10.6962C11.2127 10.8514 11.19 11.0055 11.1506 11.1556C11.0813 11.2981 10.9312 11.3769 10.83 11.4912C10.7348 11.599 10.6235 11.6913 10.5 11.765C10.3788 11.8616 10.2418 11.9365 10.095 11.9862Z" fill="#FFBDF6"/>
<path id="Vector_10" d="M10.9183 12.4419C10.7457 12.3751 10.5955 12.2606 10.4852 12.1119C10.3559 11.9834 10.2566 11.8277 10.1946 11.6563C10.1246 11.4829 10.0835 11.2992 10.0727 11.1125C10.0685 10.9228 10.0912 10.7334 10.1402 10.55C10.2084 10.3748 10.3019 10.2106 10.4177 10.0625C10.499 9.89394 10.6059 9.73897 10.7346 9.60314C10.8741 9.46857 11.0393 9.36337 11.2202 9.29376C11.4121 9.24835 11.6125 9.25417 11.8015 9.31064C11.989 9.36314 12.0902 9.54314 12.2215 9.68564C12.3527 9.82814 12.5346 9.92189 12.5965 10.1075C12.6583 10.2931 12.5965 10.4825 12.5965 10.6794C12.6017 10.864 12.5803 11.0484 12.5327 11.2269C12.5103 11.4201 12.4617 11.6093 12.3883 11.7894C12.2833 11.9563 12.0771 12.0313 11.9383 12.1456C11.8019 12.2679 11.6408 12.3594 11.4658 12.4138C11.2894 12.4731 11.1 12.4828 10.9183 12.4419ZM12.6752 6.52626C12.5383 6.58251 12.364 6.61814 12.3002 6.47564C12.2679 6.33764 12.2838 6.19273 12.3452 6.06501C12.3996 5.90939 12.424 5.74064 12.6077 5.70126C12.6893 5.67937 12.7761 5.69052 12.8495 5.73229C12.9229 5.77407 12.9768 5.84309 12.9996 5.92439C12.9971 6.04324 12.9664 6.15979 12.91 6.26444C12.8536 6.36908 12.7731 6.45882 12.6752 6.52626ZM11.6927 6.32939C11.7677 6.23564 11.8015 6.22626 11.7771 6.10814C11.7489 6.00305 11.6819 5.91259 11.5896 5.85501C11.5516 5.74973 11.487 5.65607 11.4021 5.58314C11.3205 5.49951 11.2262 5.42928 11.1227 5.37501C11.0125 5.32534 10.8957 5.29187 10.7758 5.27564C10.6596 5.25126 10.5396 5.25126 10.4233 5.27564C10.3044 5.29754 10.1902 5.34006 10.0858 5.40126C9.983 5.46477 9.8917 5.54529 9.81584 5.63939C9.74327 5.7323 9.69321 5.84076 9.66959 5.95626C9.64331 6.07166 9.64331 6.19149 9.66959 6.30689C9.68319 6.42564 9.72498 6.53943 9.79147 6.63876C9.87838 6.71918 9.97947 6.78276 10.0896 6.82626C10.2343 6.91609 10.3981 6.97068 10.5677 6.98564C10.6479 7.06013 10.7484 7.10909 10.8565 7.12626C10.9559 7.16789 11.0648 7.1815 11.1715 7.16564C11.276 7.14834 11.3793 7.12455 11.4808 7.09439C11.5838 7.06599 11.6809 7.01966 11.7677 6.95751C11.8148 6.9252 11.8524 6.88084 11.8764 6.82905C11.9005 6.77727 11.9102 6.71997 11.9046 6.66314C11.8933 6.65001 11.7021 6.35189 11.6927 6.32939ZM6.44272 11.375C6.29525 11.2078 6.09814 11.0921 5.88022 11.045C5.77273 11.0316 5.66376 11.036 5.55772 11.0581C5.44836 11.0446 5.33752 11.0491 5.22959 11.0713C5.12277 11.1054 5.02165 11.1553 4.92959 11.2194C4.84155 11.2957 4.76059 11.3798 4.68772 11.4706C4.63057 11.5726 4.58227 11.6792 4.54334 11.7894C4.48522 11.8906 4.38022 11.9769 4.35584 12.0819C4.32312 12.1976 4.31419 12.3188 4.32959 12.4381C4.35582 12.5564 4.41273 12.6657 4.49459 12.755C4.54889 12.8403 4.58644 12.9351 4.60522 13.0344C4.62959 13.1319 4.69147 13.2313 4.71772 13.3269C4.75522 13.4656 4.73459 13.6194 4.78522 13.6438C4.80959 13.6981 4.97272 13.6569 5.08522 13.6906C5.1843 13.7131 5.2744 13.7647 5.34397 13.8388C5.40584 13.9775 5.51647 13.8988 5.65522 13.7788C5.75834 13.6925 5.85209 13.5463 5.95522 13.5013C6.04125 13.4641 6.11571 13.4045 6.17084 13.3288C6.22897 13.25 6.33209 13.1844 6.35834 13.0906C6.38229 12.9895 6.37774 12.8837 6.34522 12.785C6.42186 12.6867 6.47912 12.5747 6.51397 12.455C6.56459 12.3388 6.70147 12.2394 6.70147 12.1119C6.69783 11.9835 6.67247 11.8568 6.62647 11.7369C6.58794 11.606 6.52565 11.4833 6.44272 11.375ZM14.6927 9.15876C14.6072 9.2111 14.5167 9.25505 14.4227 9.29001C14.3375 9.34055 14.247 9.38143 14.1527 9.41189C14.059 9.44704 13.9614 9.47096 13.8621 9.48314C13.761 9.48955 13.6595 9.48262 13.5602 9.46251C13.4703 9.4259 13.3868 9.37527 13.3127 9.31251C13.2198 9.27517 13.1341 9.22187 13.0596 9.15501C12.9833 9.08182 12.9199 8.99623 12.8721 8.90189C12.8399 8.80201 12.8247 8.69743 12.8271 8.59251C12.8271 8.49501 12.9058 8.40501 12.9302 8.30376C12.9546 8.20251 12.9096 8.08439 12.9565 7.99251C13.0033 7.90064 13.1158 7.85751 13.1815 7.77689C13.241 7.69791 13.3089 7.62561 13.384 7.56126C13.4646 7.49564 13.5133 7.37376 13.5996 7.33626C13.6858 7.29876 13.8152 7.32314 13.9108 7.29689C14.0047 7.26694 14.1015 7.24744 14.1996 7.23876C14.2987 7.23106 14.3983 7.23673 14.4958 7.25564C14.5982 7.26585 14.6982 7.29244 14.7921 7.33439C14.8668 7.40121 14.9301 7.47973 14.9796 7.56689C15.0374 7.64584 15.08 7.73486 15.1052 7.82939C15.1395 7.91994 15.1578 8.01572 15.1596 8.11251C15.1811 8.21096 15.1887 8.31195 15.1821 8.41251C15.1416 8.50548 15.0906 8.59355 15.0302 8.67501C14.9869 8.76345 14.9334 8.84651 14.8708 8.92251C14.8196 9.00705 14.7599 9.0862 14.6927 9.15876ZM14.9608 15.0781C14.8689 15.1317 14.7653 15.1619 14.659 15.1663C14.5545 15.1854 14.4482 15.193 14.3421 15.1888C14.2341 15.1885 14.1262 15.1797 14.0196 15.1625C13.9135 15.1411 13.8094 15.111 13.7083 15.0725C13.6115 15.0281 13.5276 14.9597 13.4646 14.8738C13.3932 14.8026 13.3499 14.708 13.3427 14.6075C13.3354 14.5025 13.3474 14.3969 13.3783 14.2963C13.4193 14.2004 13.4716 14.1098 13.534 14.0263C13.594 13.9419 13.7046 13.9025 13.7815 13.8388C13.8583 13.775 13.9052 13.6756 13.9877 13.6419C14.0814 13.626 14.1771 13.626 14.2708 13.6419C14.3613 13.635 14.4521 13.6478 14.5371 13.6794C14.6316 13.6989 14.7198 13.7414 14.794 13.8031C14.8427 13.8631 14.8465 13.9775 14.8952 14.0675C14.9392 14.1475 14.978 14.2301 15.0115 14.315C15.0451 14.3948 15.0708 14.4777 15.0883 14.5625C15.1122 14.6529 15.1211 14.7467 15.1146 14.84C15.0923 14.9347 15.038 15.0189 14.9608 15.0781ZM15.6021 10.4806C15.5209 10.5337 15.4296 10.5695 15.334 10.5856C15.2414 10.6128 15.1454 10.626 15.049 10.625C14.9518 10.6247 14.8551 10.6101 14.7621 10.5819C14.668 10.5514 14.5834 10.4972 14.5165 10.4244C14.4575 10.3448 14.4207 10.251 14.4096 10.1525C14.3811 10.0571 14.3878 9.95467 14.4283 9.86376C14.4733 9.77043 14.5372 9.68744 14.6158 9.62001C14.6833 9.56376 14.7658 9.51126 14.8446 9.45689C14.9284 9.41424 15.0156 9.3785 15.1052 9.35001C15.1971 9.30314 15.2721 9.22439 15.3546 9.21501C15.4017 9.21366 15.4484 9.22452 15.4902 9.24653C15.5319 9.26854 15.5672 9.30095 15.5927 9.34064C15.6559 9.42018 15.703 9.51124 15.7315 9.60876C15.7756 9.70442 15.8078 9.80519 15.8271 9.90876C15.817 10.0133 15.7911 10.1157 15.7502 10.2125C15.7296 10.315 15.6779 10.4086 15.6021 10.4806Z" fill="#FFBDF6"/>
</g>
</svg>
