<svg width="24" height="24" viewBox="0 0 24 24" fill="none" xmlns="http://www.w3.org/2000/svg">
<g id="Notification Bell">
<path id="Vector" d="M15.2658 19.8528C15.2664 20.413 15.1363 20.9657 14.8861 21.4669C14.5877 22.0627 14.1293 22.5636 13.5623 22.9135C12.9953 23.2634 12.342 23.4485 11.6757 23.4481C11.203 23.4493 10.7348 23.3571 10.2978 23.1769C9.86084 22.9967 9.46375 22.732 9.12933 22.3979C8.7949 22.0639 8.52972 21.6671 8.34899 21.2304C8.16826 20.7936 8.07555 20.3255 8.07617 19.8528C8.07617 18.6321 8.68888 17.5544 9.62347 16.9017C10.2265 16.4847 10.9425 16.2616 11.6757 16.2622C13.6569 16.2622 15.2663 17.8716 15.2663 19.8528H15.2658Z" fill="#4C5C75"/>
<path id="Vector_2" d="M19.7507 14.8715L19.7413 16.5092C19.7413 17.648 18.9931 18.7868 17.4919 19.6574C14.4754 21.4127 9.57189 21.408 6.53659 19.6574C5.00718 18.7727 4.24483 17.6198 4.24953 16.4621L4.25424 14.8245L19.7507 14.8715Z" fill="#F9A83D"/>
<path id="Vector_3" d="M17.4614 11.6752C20.4962 13.4272 20.5151 16.2686 17.4995 18.0211C14.4831 19.774 9.57717 19.7726 6.54235 18.0201C3.50611 16.2672 3.49153 13.4276 6.508 11.6747C9.52306 9.9227 14.4247 9.92223 17.4614 11.6752Z" fill="#FFB961"/>
<path id="Vector_4" d="M17.052 17.1074C14.3178 18.698 9.86608 18.698 7.11313 17.1074C5.61666 16.2415 4.9296 15.0886 5.05196 13.9591V13.9544C5.07078 13.7709 5.11313 13.5827 5.17902 13.3991L5.67784 11.2156L6.30372 8.49091C6.53902 7.46973 7.03313 6.56149 7.71549 5.83208C8.30843 5.17796 9.04725 4.66502 9.87078 4.33561C10.8386 3.94806 11.8918 3.82359 12.9233 3.97485C13.9548 4.1261 14.9279 4.54769 15.7437 5.19679C16.7649 6.0062 17.5178 7.14973 17.8284 8.49091L18.9625 13.4509C19.0096 13.5921 19.0425 13.738 19.0661 13.8791L19.0802 13.9591C19.212 15.0886 18.539 16.2415 17.052 17.1074Z" fill="#FFDD95"/>
<path id="Vector_5" d="M11.5585 5.07388C11.3618 5.07388 11.1768 5.02683 11.0112 4.9313C10.6262 4.70965 10.4135 4.26824 10.4116 3.68847C10.4083 2.6113 11.1396 1.344 12.0766 0.803296C12.5829 0.51059 13.0747 0.472943 13.461 0.695061C13.845 0.916237 14.0577 1.35624 14.0592 1.93365C14.0625 3.01271 13.3302 4.28188 12.3923 4.82353C12.1043 4.99012 11.821 5.07388 11.5585 5.07388ZM12.3825 1.33271C11.6436 1.76 11.021 2.83765 11.0234 3.68659C11.0243 4.03388 11.1312 4.29412 11.3161 4.40094C11.502 4.50777 11.7834 4.46918 12.0865 4.29365C12.8267 3.86635 13.4502 2.78636 13.4479 1.936C13.4469 1.59012 13.3406 1.33177 13.1561 1.22541C12.9688 1.11718 12.6869 1.15624 12.3825 1.33271Z" fill="#4C5C75"/>
<path id="Vector_6" d="M12.578 5.4131L12.1122 5.34628C12.1536 5.05969 12.1122 4.83475 11.9898 4.6771C11.8213 4.46016 11.5394 4.42769 11.5366 4.42769L11.5809 3.95898C11.6002 3.96087 12.0594 4.00604 12.3564 4.38204C12.5639 4.64463 12.6387 4.99145 12.578 5.4131Z" fill="#FFDD95"/>
<path id="Vector_7" d="M17.052 17.1073C14.3178 18.6979 9.86608 18.6979 7.11313 17.1073C5.61666 16.2414 4.9296 15.0885 5.05196 13.9591V13.9544C5.07078 13.7709 5.11313 13.5826 5.17902 13.3991L5.67784 11.2156L6.30372 8.49085C6.53902 7.46968 7.03313 6.56144 7.71549 5.83203C7.83784 8.26027 8.57666 12.7073 12.2378 14.3261C14.2378 15.2109 16.7461 14.7591 19.0661 13.8791L19.0802 13.9591C19.212 15.0885 18.539 16.2414 17.052 17.1073Z" fill="#FFD475"/>
<path id="Vector_8" d="M10.0261 11.1732C9.73716 11.2603 9.47645 11.4278 9.25669 11.6419C9.05433 11.8443 8.89245 12.1163 8.77669 12.3996C8.75927 12.5097 8.6261 12.5097 8.59739 12.3996C8.5012 12.1126 8.33909 11.8522 8.12408 11.6393C7.90906 11.4263 7.64712 11.2667 7.35927 11.1732C7.26045 11.1271 7.26045 10.9996 7.35927 10.9765C7.64822 10.8838 7.92022 10.6989 8.12869 10.4965C8.3428 10.2881 8.50469 10.0278 8.59739 9.72665C8.6261 9.63441 8.75927 9.63441 8.77622 9.72665C8.89245 10.0278 9.05386 10.2881 9.25669 10.4965C9.47645 10.6989 9.73669 10.8838 10.0261 10.9765C10.1362 11.0001 10.1362 11.1271 10.0261 11.1732Z" fill="white"/>
</g>
</svg>
