<svg width="16" height="16" viewBox="0 0 16 16" fill="none" xmlns="http://www.w3.org/2000/svg">
<g id="Art Papers">
<path id="Vector" d="M6.63832 6.10667L2.27002 9.43556L9.82854 12.6773L14.1954 9.34964L6.63832 6.10667Z" fill="#57B3FE"/>
<path id="Vector_2" d="M5.40482 5.88622L0.888672 9.01155L8.29104 12.5961L12.8057 9.4717L5.40482 5.88622Z" fill="#F3F1FC"/>
<path id="Vector_3" d="M8.04346 9.67259L11.3332 9.64148L9.72049 8.70459L8.04346 9.67259Z" fill="#FEBC1F"/>
<path id="Vector_4" d="M2.53613 6.472L8.04339 9.67259L9.72043 8.70459L11.3332 9.64148L8.04339 9.67259L10.5178 9.64918L11.2751 9.64207L11.3332 9.64148L15.1112 7.46014L7.99124 3.32266L6.5705 4.14281L2.53613 6.472Z" fill="#FFD06C"/>
<path id="Vector_5" d="M5.76666 3.75378L1.00488 7.04919L1.98473 7.52386L8.81051 10.8308L10.5178 9.64919L8.0434 9.6726L2.53614 6.47201L6.57051 4.14282L5.76666 3.75378Z" fill="#F45170"/>
<path id="Vector_6" d="M1.98438 7.52385L0.888672 8.28237L8.15563 11.8009L11.2747 9.64207L10.5174 9.64918L8.81015 10.8308L1.98438 7.52385Z" fill="#78E75A"/>
<path id="Vector_7" d="M9.34738 5.3117C9.24564 5.31163 9.14489 5.33161 9.05089 5.3705C8.95689 5.4094 8.87147 5.46645 8.79954 5.53838C8.7276 5.61032 8.67055 5.69573 8.63166 5.78974C8.59276 5.88374 8.57278 5.98449 8.57286 6.08622C8.57292 5.88075 8.49151 5.68363 8.34649 5.53807C8.20093 5.39305 8.00381 5.31164 7.79834 5.3117C8.00381 5.31176 8.20093 5.23036 8.34649 5.08533C8.49151 4.93978 8.57292 4.74266 8.57286 4.53719C8.57286 4.75082 8.65997 4.94519 8.79923 5.08533C8.94479 5.23036 9.1419 5.31176 9.34738 5.3117Z" fill="white"/>
</g>
</svg>
