<svg width="16" height="16" viewBox="0 0 16 16" fill="none" xmlns="http://www.w3.org/2000/svg">
<g id="Photography">
<g id="Group">
<path id="Vector" d="M14.8797 6.976L14.8477 13.184C14.8477 13.472 14.7517 13.664 14.5917 13.728L11.3277 15.616C11.4877 15.52 11.5837 15.328 11.5837 15.04V8.832C11.5837 8.512 11.4557 8.16 11.2637 7.872C11.1037 7.64801 10.9117 7.456 10.7197 7.328L2.01571 2.336C1.79171 2.208 1.56771 2.176 1.40771 2.272L4.67172 0.384005C4.83172 0.288005 5.05571 0.320005 5.27971 0.448005L13.9837 5.472C14.1757 5.6 14.3677 5.792 14.5277 6.016C14.7517 6.304 14.8797 6.656 14.8797 6.976Z" fill="#686868"/>
<path id="Vector_2" d="M10.7519 7.36001C11.2319 7.64801 11.6159 8.32001 11.6159 8.86401L11.5839 15.072C11.5839 15.616 11.1999 15.84 10.7199 15.584L2.01586 10.528C1.53586 10.24 1.15186 9.56801 1.15186 9.02401V2.81601C1.15186 2.27201 1.53586 2.04801 2.01586 2.30401L10.7519 7.36001Z" fill="#4F4D4D"/>
</g>
<path id="Vector_3" d="M5.05598 3.232C5.86895 3.232 6.52798 2.84517 6.52798 2.368C6.52798 1.89082 5.86895 1.504 5.05598 1.504C4.24302 1.504 3.58398 1.89082 3.58398 2.368C3.58398 2.84517 4.24302 3.232 5.05598 3.232Z" fill="#4F4D4D"/>
<path id="Vector_4" d="M4.03223 1.75999V2.36799C4.03223 2.68799 4.51223 2.97599 5.08823 2.97599C5.66423 2.97599 6.14423 2.71999 6.14423 2.36799V1.75999H4.03223Z" fill="#DD454D"/>
<path id="Vector_5" d="M5.056 2.36799C5.63921 2.36799 6.112 2.09578 6.112 1.75999C6.112 1.4242 5.63921 1.15199 5.056 1.15199C4.47279 1.15199 4 1.4242 4 1.75999C4 2.09578 4.47279 2.36799 5.056 2.36799Z" fill="#EF5A5A"/>
<g id="Group_2">
<path id="Vector_6" d="M10.5597 8.448V9.344C10.5597 9.376 10.5597 9.408 10.5277 9.44L10.3357 9.536C10.3677 9.536 10.3677 9.504 10.3677 9.44V8.544C10.3677 8.512 10.3357 8.448 10.3357 8.416C10.3037 8.384 10.2717 8.352 10.2717 8.352L9.02373 7.616C8.99173 7.584 8.95973 7.584 8.92773 7.616L9.11973 7.52C9.15173 7.52 9.18373 7.52 9.21573 7.52L10.4637 8.256C10.4957 8.288 10.5277 8.288 10.5277 8.32C10.5277 8.352 10.5597 8.416 10.5597 8.448Z" fill="#69C4EF"/>
<path id="Vector_7" d="M10.2398 8.352C10.3038 8.384 10.3678 8.48 10.3678 8.576V9.472C10.3678 9.568 10.3038 9.6 10.2398 9.536L8.99177 8.8C8.92777 8.768 8.86377 8.672 8.86377 8.576V7.68C8.86377 7.584 8.92777 7.552 8.99177 7.616L10.2398 8.352Z" fill="#0092BF"/>
<path id="Vector_8" d="M10.1757 8.416L9.0237 7.776C8.9917 7.776 8.9917 7.776 8.9917 7.808V8.576C8.9917 8.64 9.0237 8.704 9.0877 8.736C9.0877 8.736 10.0157 9.28 10.2397 9.376C10.2717 9.376 10.2717 9.376 10.2717 9.344V8.544C10.2397 8.512 10.2077 8.448 10.1757 8.416Z" fill="#A2DDF4"/>
</g>
<g id="Group_3">
<path id="Vector_9" d="M8.54409 10.048C8.54409 10.816 8.28809 11.36 7.84009 11.584L6.81609 12.192C7.26409 11.936 7.52009 11.392 7.52009 10.656C7.52009 9.12 6.43209 7.264 5.12009 6.496C4.44809 6.112 3.84009 6.08 3.39209 6.336L4.41609 5.728C4.86409 5.472 5.47209 5.504 6.14409 5.888C7.45609 6.656 8.54409 8.512 8.54409 10.048Z" fill="#929393"/>
<path id="Vector_10" d="M7.51999 10.624C7.51999 12.16 6.43199 12.768 5.08799 12C3.74399 11.232 2.68799 9.37601 2.68799 7.84001C2.68799 6.30401 3.77599 5.69601 5.11999 6.46401C6.46399 7.23201 7.51999 9.12001 7.51999 10.624Z" fill="#3D3D3D"/>
</g>
<g id="Group_4">
<path id="Vector_11" d="M6.496 10.496C6.08 10.752 5.632 11.008 5.216 11.232C5.12 11.296 4.96 11.328 4.832 11.296C4.736 11.296 4.608 11.264 4.48 11.2C4.448 11.168 4.384 11.168 4.352 11.136C3.68 10.752 3.104 9.792 3.104 8.992C3.104 8.608 3.232 8.32 3.456 8.192L4.736 7.424C4.512 7.552 4.384 7.84 4.384 8.224C4.384 9.024 4.928 9.952 5.632 10.368C5.664 10.4 5.728 10.4 5.76 10.432C5.888 10.496 6.016 10.528 6.112 10.528C6.24 10.592 6.4 10.56 6.496 10.496Z" fill="#929393"/>
<path id="Vector_12" d="M6.49582 10.496L5.21582 11.232C5.63182 11.008 6.07982 10.752 6.49582 10.496Z" fill="#686868"/>
<path id="Vector_13" d="M4.57564 8.09599C5.24764 8.47999 5.82364 9.43999 5.82364 10.24C5.82364 11.04 5.27964 11.328 4.57564 10.944C3.90364 10.56 3.32764 9.59999 3.32764 8.79999C3.32764 8.03199 3.87164 7.71199 4.57564 8.09599Z" fill="#A2DDF4"/>
<path id="Vector_14" d="M4.57558 8.736C4.95958 8.96 5.24758 9.472 5.24758 9.92C5.24758 10.336 4.92758 10.528 4.57558 10.304C4.19158 10.08 3.90358 9.568 3.90358 9.12C3.87158 8.704 4.19158 8.512 4.57558 8.736Z" fill="#69C4EF"/>
<path id="Vector_15" d="M6.75174 10.304C6.75174 10.848 6.55974 11.2 6.27174 11.392L5.56774 11.808C5.85574 11.616 6.04774 11.264 6.04774 10.72C6.04774 9.63199 5.27974 8.35199 4.35174 7.80799C3.87174 7.55199 3.45574 7.51999 3.13574 7.67999L3.83974 7.26399C4.15974 7.07199 4.57574 7.10399 5.05574 7.39199C5.98374 7.93599 6.75174 9.24799 6.75174 10.304Z" fill="#929393"/>
<path id="Vector_16" d="M4.35176 7.80799C5.27976 8.35199 6.04776 9.66399 6.04776 10.72C6.04776 11.808 5.27976 12.224 4.35176 11.68C3.42376 11.136 2.65576 9.82399 2.65576 8.76799C2.65576 7.71199 3.39176 7.26399 4.35176 7.80799ZM4.31976 11.168C4.99176 11.552 5.56776 11.232 5.56776 10.464C5.56776 9.66399 5.02376 8.73599 4.31976 8.31999C3.64776 7.93599 3.07176 8.25599 3.07176 9.02399C3.10376 9.82399 3.64776 10.784 4.31976 11.168Z" fill="#686868"/>
</g>
<g id="Group_5">
<path id="Vector_17" d="M14.1119 10.688C14.2719 10.592 14.3679 10.656 14.3679 10.848C14.3679 11.008 14.2399 11.232 14.1119 11.328L12.7999 12.064C12.6399 12.16 12.5439 12.096 12.5439 11.904C12.5439 11.744 12.6719 11.52 12.7999 11.424L14.1119 10.688ZM14.0799 9.504C14.2399 9.408 14.3359 9.472 14.3359 9.664C14.3359 9.824 14.2079 10.048 14.0799 10.144L12.7999 10.88C12.6399 10.976 12.5439 10.912 12.5439 10.72C12.5439 10.56 12.6719 10.336 12.7999 10.24L14.0799 9.504ZM14.0799 8.352C14.2399 8.256 14.3359 8.32 14.3359 8.512C14.3359 8.672 14.2079 8.896 14.0799 8.992L12.7999 9.728C12.6399 9.824 12.5439 9.76 12.5439 9.568C12.5439 9.408 12.6719 9.184 12.7999 9.088L14.0799 8.352ZM14.1119 11.872C14.2719 11.776 14.3679 11.84 14.3679 12.032C14.3679 12.192 14.2399 12.416 14.1119 12.512L12.7999 13.248C12.6399 13.344 12.5439 13.28 12.5439 13.088C12.5439 12.928 12.6719 12.704 12.7999 12.608L14.1119 11.872Z" fill="#4F4D4D"/>
</g>
<g id="Group_6">
<path id="Vector_18" d="M8.99219 7.808V8.576C8.99219 8.64 9.02419 8.704 9.08819 8.736C9.08819 8.736 10.0162 9.28 10.2402 9.376C10.2722 9.376 10.2722 9.376 10.2722 9.344V9.28L9.24819 8.672C9.18419 8.64 9.12019 8.544 9.12019 8.48V7.808L9.05619 7.776C8.99219 7.776 8.99219 7.776 8.99219 7.808Z" fill="#69C4EF"/>
</g>
</g>
</svg>
