<svg width="24" height="24" viewBox="0 0 24 24" fill="none" xmlns="http://www.w3.org/2000/svg">
<path d="M11.6479 4.67578C11.6479 4.67578 11.5774 5.80237 10.9082 6.22307V7.09978H10.4526C10.4526 7.09978 10.5698 5.53978 9.82441 5.74684C9.079 5.9539 9.98253 9.18825 9.98253 9.18825C9.98253 9.18825 7.80841 7.08613 8.36512 4.18872C8.92182 1.29178 11.0324 0.48566 12.7016 0.754366C14.3708 1.02307 16.8456 1.19578 16.1745 3.6899C16.1745 3.6899 16.1402 4.25648 14.7049 4.62637C13.2696 4.99672 11.6479 4.67578 11.6479 4.67578ZM16.0159 8.87719C16.0159 8.87719 16.759 9.42025 17.2541 10.497L16.6352 11.4207L17.6828 11.5445C17.6828 11.5445 18.3402 16.7167 15.7218 21.009C15.7218 21.009 17.6846 13.16 15.5444 9.78684L15.1703 8.7619L16.0159 8.87719ZM15.5938 21.0739C14.0456 18.9327 10.2042 15.8424 10.2042 15.8424L10.5486 14.7007L9.64512 15.2828C8.14771 13.3675 8.70112 11.5821 8.70112 11.5821L8.76324 11.3732C8.967 11.1191 9.48088 10.5426 9.91053 10.5031C9.82582 10.5765 9.75194 10.6555 9.70112 10.7346C9.29453 11.3167 9.61077 12.0852 10.1759 12.8537C10.8197 13.7402 11.7915 14.6278 12.3623 15.2546C12.8366 15.7741 13.4696 16.865 14.0517 17.9605C14.8366 19.4297 15.5204 20.9158 15.5938 21.0739Z" fill="#FFD651"/>
<path d="M9.90912 10.5035C9.90912 10.5035 10.9952 11.5812 13.6729 12.1666L13.1792 13.6838C13.1792 13.6838 11.0616 13.4019 10.1741 12.8527C9.28607 12.3035 9.06677 11.4174 9.06677 11.4174L9.90912 10.5035ZM13.6729 12.1666L15.4183 9.66449L16.0371 10.5031L14.9887 13.1977C14.5811 12.7379 14.1416 12.3967 13.6729 12.1666Z" fill="#FFD651"/>
<path d="M13.2353 13.5124L13.8715 13.8061L13.5534 14.327L14.0386 17.9289L14.6 19.5327L15.6009 21.087L15.7219 21.0089L16.3238 19.2894L16.2334 18.3233L14.6348 14.0146L14.1991 13.6522L14.7351 12.9313L14.3271 12.1783L13.6729 12.1666L13.1167 13.0687L13.2353 13.5124Z" fill="#FFD651"/>
<path d="M9.98259 9.18823L9.90918 10.5031L10.8362 12.5101L14.2381 12.6748L15.0386 11.4311L15.3798 9.80988L13.6729 9.41459L9.98259 9.18823Z" fill="#FFD651"/>
<path d="M19.153 17.5426C18.7803 18.1529 17.7294 19.6781 15.7238 21.0061L15.5996 21.0852C13.8311 22.232 11.3454 23.2094 7.9558 23.2941C7.9558 23.2941 4.5318 22.9948 4.54309 21.232C4.56003 19.4635 4.09133 14.6725 6.22686 13.1078C8.36239 11.5426 8.66733 11.4918 8.66733 11.4918C8.66733 11.4918 8.70121 11.4466 8.76333 11.3732C8.96709 11.119 9.48098 10.5426 9.91062 10.503L9.98403 9.18681L12.481 8.46917L16.1422 8.43528C16.1422 8.43528 17.7916 7.99481 18.5657 9.92705C19.3398 11.8593 19.865 16.3958 19.153 17.5426Z" fill="#6BB4F9"/>
<path d="M9.98259 9.18823L9.90918 10.5031L10.8362 12.5101L14.2381 12.6748L15.0386 11.4311L15.3798 9.80988L13.6729 9.41459L9.98259 9.18823Z" fill="#F5C9C6"/>
<path d="M17.0462 14.2259C17.0462 14.2259 16.8424 16.4296 16.8085 16.4522C16.769 16.4804 16.1648 19.2094 16.1648 19.2094L14.4132 19.1134C14.4132 19.1134 13.3229 17.8819 13.2721 17.7854C13.2212 17.6837 11.0066 14.311 10.9671 14.2263C10.9332 14.136 9.80288 13.0626 9.79158 13.0117C9.78029 12.9609 9.71252 12.0908 9.71252 12.0908L10.8198 12.0343L13.8245 12.7322L16.1022 10.4409L17.0462 14.2263V14.2259Z" fill="white"/>
<path d="M13.2353 13.5124L13.8936 13.6837L13.5534 14.327L14.0386 17.9289L14.6 19.5327L15.7219 21.0089L16.3238 19.2894L16.2334 18.3233L14.6494 13.9689L14.2094 13.575L14.7351 12.9313L14.3271 12.1783L13.6729 12.1666L13.1167 13.0687L13.2353 13.5124Z" fill="#E45239"/>
<path d="M13.673 12.1666L15.4476 9.57697L16.0372 10.5031L14.9887 13.1977C14.5812 12.7379 14.1417 12.3967 13.673 12.1666Z" fill="#E5EAF6"/>
<path d="M16.0161 8.8772C16.0161 8.8772 16.7591 9.42025 17.2542 10.497L16.6354 11.4207L17.6829 11.5445C17.6829 11.5445 18.3403 16.7167 15.7219 21.009C15.7219 21.009 17.6848 13.16 15.5445 9.78684L15.1704 8.7619L16.0161 8.8772Z" fill="#656FEA"/>
<path d="M16.0085 3.72704C16.0085 3.72704 17.0895 9.48468 14.5328 10.3247C11.9761 11.1647 9.87158 9.07763 9.87158 9.07763L8.80334 6.6108C8.80334 6.6108 8.95299 4.96515 9.00852 4.83621C9.06499 4.70727 11.0057 2.8221 11.0057 2.8221L13.6556 2.52374L16.0085 3.72704Z" fill="#F4D6D4"/>
<path d="M16.1727 3.69037C16.1727 3.69037 16.1379 4.2579 14.7021 4.6292C13.2729 4.99343 11.648 4.67814 11.648 4.67814C11.648 4.67814 11.5779 5.79908 10.9054 6.22637V7.10167H10.4504C10.4504 7.10167 10.5694 5.53932 9.82682 5.74967C9.07718 5.95296 9.98118 9.1892 9.98118 9.1892C9.98118 9.1892 7.80941 7.08708 8.36235 4.18779C8.92235 1.29508 11.0311 0.482374 12.6984 0.755786C14.3722 1.02167 16.8452 1.19673 16.1727 3.69037Z" fill="#8A4852"/>
<path d="M9.90912 10.5035C9.90912 10.5035 10.9952 11.5812 13.6729 12.1666L13.1792 13.6838C13.1792 13.6838 11.0616 13.4019 10.1741 12.8527C9.28607 12.3035 9.06677 11.4174 9.06677 11.4174L9.90912 10.5035Z" fill="#E5EAF6"/>
<path d="M15.7237 21.0061C14.0687 18.9176 10.2014 15.8438 10.2037 15.8419L10.5487 14.7007L9.64516 15.2828C8.14775 13.3675 8.70116 11.5821 8.70116 11.5821L8.76328 11.3732C8.96704 11.1191 9.48093 10.5426 9.91057 10.5031C9.82587 10.5765 9.75198 10.6555 9.70116 10.7346C9.29457 11.3167 9.61081 12.0852 10.176 12.8536C10.8197 13.7402 11.7915 14.6278 12.3623 15.2546C12.8367 15.7741 13.4696 16.8649 14.0517 17.9605C14.8367 19.4296 15.6503 20.848 15.7237 21.0061Z" fill="#656FEA"/>
</svg>
