<svg width="16" height="16" viewBox="0 0 16 16" fill="none" xmlns="http://www.w3.org/2000/svg">
<g id="Ancient Statue">
<g id="Group">
<path id="Vector" d="M11.2327 11.9731L11.2285 13.431L7.36133 15.6787L7.36517 14.2205L11.2327 11.9731Z" fill="#BFBEBE"/>
<path id="Vector_2" d="M7.36539 14.2205L7.36155 15.6787L3.46875 13.431L3.47291 11.9731L7.36539 14.2205Z" fill="#D7D7D7"/>
<path id="Vector_3" d="M11.2331 11.9731L7.36562 14.2205L3.47314 11.9731L7.34034 9.72575L11.2331 11.9731Z" fill="#E7E7E7"/>
</g>
<g id="Group_2">
<path id="Vector_4" d="M8.92367 9.81165L8.90866 11.93C8.90802 12.1601 8.75685 12.39 8.45497 12.5654C7.84588 12.9194 6.85589 12.9194 6.24415 12.5662C5.93564 12.3881 5.78156 12.1544 5.78223 11.921L5.79724 9.80272C5.79656 10.0361 5.95068 10.2698 6.25916 10.4479C6.8709 10.8011 7.86088 10.8011 8.46997 10.4471C8.77189 10.2717 8.92303 10.0419 8.92367 9.81165Z" fill="#AEAEAF"/>
<path id="Vector_5" d="M8.46295 9.16729C9.0747 9.52048 9.07786 10.0939 8.47012 10.4471C7.86103 10.8011 6.87105 10.8011 6.2593 10.4479C5.64622 10.0939 5.64298 9.52051 6.25207 9.16656C6.85982 8.81337 7.84986 8.81334 8.46295 9.16729Z" fill="#E7E7E7"/>
</g>
<g id="Group_3">
<path id="Vector_6" d="M8.71458 8.27012C9.46015 8.70058 9.46402 9.39952 8.72335 9.82999C7.98098 10.2614 6.77439 10.2614 6.02882 9.83095C5.28162 9.39956 5.27765 8.70064 6.02002 8.26922C6.76069 7.83876 7.96738 7.83872 8.71458 8.27012Z" fill="#E7E7E7"/>
<path id="Vector_7" d="M9.2761 9.0555L9.2578 9.61454C9.257 9.89508 9.0728 10.1752 8.7048 10.389C7.96244 10.8205 6.75584 10.8205 6.01028 10.39C5.63428 10.1729 5.44647 9.88807 5.44727 9.60369L5.46557 9.04465C5.46477 9.32903 5.65258 9.61386 6.02858 9.83095C6.77415 10.2614 7.98074 10.2614 8.72311 9.82999C9.09108 9.61614 9.2753 9.33604 9.2761 9.0555Z" fill="#BFBEBE"/>
</g>
<path id="Vector_8" d="M10.5026 8.53837C10.317 9.25534 9.80985 9.89921 8.32543 10.7521C6.84099 11.6062 5.55452 11.0867 5.29475 10.7521C5.03503 10.4187 5.25769 9.72586 5.04732 9.54042C4.83705 9.34231 4.75046 8.19166 4.58963 7.83287C4.42879 7.46202 4.66383 6.48471 4.70099 6.12593V6.05162C4.70099 5.99002 4.6886 5.94049 4.67622 5.89095V5.87886C4.66383 5.80394 4.63916 5.73028 4.60201 5.65598C4.54019 5.48263 4.42879 5.30929 4.36697 5.14862C4.25567 4.82727 4.82467 3.4169 4.82467 3.4169C7.13788 3.23146 8.84495 4.6787 9.3398 5.4947C9.82227 6.3113 10.5026 6.47198 11.0098 6.57105C11.517 6.68286 10.7005 7.8329 10.5026 8.53837Z" fill="#D7D7D7"/>
<path id="Vector_9" d="M7.1172 6.07241C7.21912 6.06905 7.51169 5.94982 7.6707 6.00086C7.82968 6.0519 8.13099 6.24364 8.16753 6.32582C8.20405 6.408 8.04885 6.62256 8.04885 6.62256C8.04885 6.62256 7.66725 6.6918 7.5027 6.57942C7.33816 6.46704 7.22251 6.41152 7.15403 6.31161C7.08552 6.21168 7.04843 6.07468 7.1172 6.07241Z" fill="#787777"/>
<path id="Vector_10" d="M4.39404 5.19623L4.50691 5.42893C4.50691 5.42893 5.53795 6.00384 5.53984 6.00749C5.53984 6.00749 5.33091 5.2112 4.39404 5.19623Z" fill="#AEAEAF"/>
<path id="Vector_11" d="M4.49463 5.40375C4.49463 5.40375 4.54593 5.56954 4.58314 5.63466C4.62036 5.69978 5.28669 5.71837 5.50065 5.96026C5.50065 5.96026 5.25744 5.48746 4.49463 5.40375Z" fill="#BFBEBE"/>
<path id="Vector_12" d="M4.44092 5.15773C4.70178 5.11424 4.98415 5.11123 5.23602 5.23382C5.50089 5.35824 5.60402 5.67658 5.58453 5.94355C5.5542 6.48896 5.38181 7.00298 5.23919 7.51459C5.17788 7.78339 5.01708 8.01229 5.22309 8.21283C5.38655 8.36262 5.7085 8.32096 5.95804 8.38256C6.21775 8.41456 6.49295 8.46653 6.73653 8.40611C6.94597 8.35776 6.64633 7.87088 6.53525 7.77251C6.66716 7.87264 7.03317 8.36013 6.7582 8.4623C6.48178 8.53962 6.21301 8.48768 5.94738 8.46413C5.68962 8.39888 5.41049 8.48467 5.14783 8.28352C4.94044 8.06106 4.99641 7.91513 5.12089 7.47958C5.27746 6.97101 5.46018 6.46426 5.50255 5.94058C5.52482 5.68326 5.4429 5.41024 5.20674 5.28643C4.98393 5.15533 4.70361 5.13296 4.44092 5.15773Z" fill="#AEAEAF"/>
<path id="Vector_13" d="M5.43082 6.02691C5.43082 6.02691 4.94845 6.20026 4.67626 5.89101C4.66387 5.8167 4.6392 5.73034 4.60205 5.65603C4.7505 5.59382 5.29047 5.4408 5.5008 5.96022C5.5008 5.96022 5.43082 6.01482 5.43082 6.02691Z" fill="#787777"/>
<path id="Vector_14" d="M5.48037 5.97737C5.28241 6.20025 4.88654 6.11327 4.70104 6.06435V6.05167C4.70104 5.99007 4.68865 5.94054 4.67627 5.891V5.87891C5.02267 6.07644 5.38139 6.00214 5.48037 5.97737Z" fill="#AEAEAF"/>
<path id="Vector_15" d="M5.46812 5.99005C5.34444 6.2993 4.70117 6.15072 4.70117 6.15072V6.02995C4.91144 6.16586 5.38152 6.01482 5.46812 5.99005ZM6.86399 6.19619C6.86399 6.19619 7.17397 5.2344 8.47756 6.40285C8.47756 6.40285 7.44424 5.75107 6.86399 6.19619Z" fill="#AEAEAF"/>
<path id="Vector_16" d="M6.87256 6.18947C6.87256 6.18947 7.08299 6.16605 7.35835 6.49069C7.63355 6.72999 8.01035 6.57853 8.24373 6.49069C8.47713 6.40285 8.3996 6.52823 8.38731 6.55056C8.31861 6.67559 7.82664 6.83264 7.38827 6.58621C7.36222 6.57171 7.01614 6.20144 6.87256 6.18947Z" fill="#AEAEAF"/>
<path id="Vector_17" d="M5.32773 9.14826C5.32773 9.14826 5.03342 9.43146 5.32773 9.55536C5.62203 9.67927 6.28811 9.89613 6.28811 9.89613C6.28811 9.89613 5.52136 9.96583 5.32773 9.72573C5.13413 9.48567 5.10315 9.43044 5.32773 9.14826ZM5.1707 8.85008C5.1707 8.85008 5.32219 8.82311 5.55592 9.04336C5.55592 9.04336 5.86155 8.96999 6.3605 9.14826C6.85941 9.32653 6.87291 9.25911 6.87291 9.25911C6.87291 9.25911 6.71109 9.43245 6.40994 9.27162C6.10879 9.11079 5.81211 9.32653 5.63234 9.25012C5.45253 9.17373 5.18552 8.94448 5.1707 8.85008ZM4.69643 2.82781C4.82034 2.68941 4.97672 2.58455 5.11317 2.45847C5.48546 2.11447 5.69141 1.63239 5.96187 1.20365C6.88114 -0.253629 7.69736 0.529411 8.42315 0.548355C8.56642 0.552099 8.72194 0.533091 8.84197 0.611331C8.98466 0.704355 9.02898 0.906595 9.17678 0.991203C9.42712 1.13447 9.75611 0.841635 10.0192 0.959971C10.1408 1.01469 10.2272 1.15159 10.3605 1.15805C10.5228 1.16589 10.8781 0.776131 10.9958 1.33719C11.1039 1.8521 11.2704 1.68685 11.4912 1.77655C11.6131 1.82605 11.6827 1.95229 11.7414 2.07005C12.4609 3.51443 12.267 3.35475 12.3074 3.80515C12.3648 4.44547 12.7552 4.4352 12.3483 5.80429C12.1029 6.62995 11.8493 7.47261 11.3488 8.17357C11.3009 8.24058 11.2351 8.31335 11.1533 8.30362C11.1017 8.29747 11.0605 8.25917 11.0244 8.22186C10.5163 7.69674 10.2419 6.98659 9.76875 6.42986C9.46827 6.07629 9.08546 5.78093 8.8821 5.36384C8.76639 5.12656 8.63528 4.88589 8.47746 4.67427C8.3181 4.46058 8.14866 4.30266 7.90331 4.19837C7.51883 4.03491 5.74533 3.57011 5.04616 3.83203C4.90645 3.88439 4.66354 4.16362 4.54895 4.08493C4.38143 3.96989 4.31736 3.25127 4.69643 2.82781Z" fill="#AEAEAF"/>
<path id="Vector_18" d="M10.2517 6.6049C10.2985 6.54833 10.3472 6.49213 10.407 6.44961C10.5653 6.33722 10.9681 6.27402 11.1139 6.37751C11.4864 6.64199 11.0614 8.0985 10.3367 8.0433C10.222 8.03456 10.1084 7.98324 10.0371 7.89303C9.9352 7.76417 9.93431 7.58509 9.93808 7.42084C9.94115 7.28736 9.90906 7.08973 9.96835 6.9705C10.0319 6.84266 10.1604 6.71511 10.2517 6.6049Z" fill="#D7D7D7"/>
<path id="Vector_19" d="M12.4647 4.83311C12.4283 5.05158 12.3555 5.24575 12.2058 5.18511C11.9105 5.05555 8.06727 0.662169 5.04932 2.67683C5.04932 2.67683 5.05741 2.35721 5.1626 1.96492C5.34868 1.3014 5.81796 0.423578 7.02756 0.447866C10.1425 0.520986 12.7824 3.11715 12.4647 4.83311Z" fill="#787777"/>
<path id="Vector_20" d="M12.4647 4.83311C12.1687 4.83311 8.36417 0.314618 5.1626 1.96492C5.34868 1.3014 5.81796 0.423578 7.02756 0.447866C10.1313 0.520698 12.7842 3.10732 12.4647 4.83311ZM10.0513 6.83254C10.0513 6.83254 10.4164 5.79302 11.075 6.21359C11.7336 6.63417 11.1226 8.3006 9.7577 8.54659C9.7577 8.54659 10.6861 8.16569 10.9797 7.4039C11.2733 6.64211 11.0591 5.87238 10.0513 6.83254Z" fill="#919292"/>
<path id="Vector_21" d="M6.95638 3.00564C6.87427 2.42465 6.30307 2.81409 5.88826 2.87639C4.93827 2.95338 5.30518 3.23879 4.56982 3.09204C5.38346 2.89226 4.8096 2.75383 5.85011 2.57018C6.05603 2.56717 6.28371 2.45783 6.53786 2.45844C6.85866 2.48308 7.04432 2.69341 6.95638 3.00564Z" fill="#919292"/>
<path id="Vector_22" d="M6.76293 3.67248C6.63621 3.49914 6.47489 3.35658 6.32561 3.35962C6.19208 3.3258 6.13742 3.53479 5.81406 3.63021C5.33163 3.67037 5.28757 3.46211 5.02149 3.77699C4.91112 3.88573 4.7643 3.84708 4.67627 3.80842C4.96725 3.82231 4.82968 3.5922 5.12085 3.39527C5.37781 3.27085 5.6244 3.37232 5.76024 3.32579C5.93752 3.31475 6.09611 3.01671 6.36769 3.12647C6.64891 3.20557 6.74107 3.47011 6.76293 3.67248ZM7.46536 2.92592C8.26817 2.31056 8.79678 3.46679 9.26683 3.60423C9.46043 3.67066 9.71803 3.68154 9.96168 3.81383C10.4221 4.07959 10.6534 4.58516 10.9292 4.83642C11.0745 5.0569 11.4043 4.58906 12.0146 5.62887C11.2498 4.79076 11.0611 5.28035 10.8118 5.04359C10.3671 4.70352 10.2003 4.27347 9.81272 4.08442C9.64587 3.97872 9.41982 3.95818 9.17278 3.86877C8.50328 3.62967 8.33329 2.53668 7.46536 2.92592Z" fill="#919292"/>
<path id="Vector_23" d="M7.39062 3.47315C7.5888 3.34569 7.87648 3.34992 8.09331 3.50336C8.30426 3.67913 8.36557 3.94611 8.53018 3.96483C8.68275 4.01376 8.97776 3.89901 9.25287 4.10918C9.48669 4.32179 9.51984 4.58153 9.63104 4.74217C9.86109 5.18573 10.7572 4.81507 10.841 5.168C10.9964 5.62464 11.3453 5.92605 11.8271 5.9641C11.3657 6.07705 10.8118 5.73094 10.6501 5.30995C10.5032 5.14445 9.71191 5.4839 9.36595 4.90102C9.23731 4.66665 9.19367 4.42989 9.07159 4.32419C8.97011 4.204 8.73824 4.28371 8.45338 4.18889C8.13837 4.04816 8.13907 3.73891 7.99456 3.61689C7.85943 3.46589 7.61149 3.3904 7.39062 3.47315Z" fill="#919292"/>
<path id="Vector_24" d="M9.81868 8.33181C10.024 7.97241 10.473 7.84739 10.6532 7.5176C10.7572 7.36537 10.8059 7.17453 10.8203 6.98185C10.8794 6.78979 10.5623 6.73721 10.4641 6.92326C10.4921 6.82541 10.5941 6.75293 10.7058 6.74992C11.0081 6.71174 10.9128 7.31926 10.7575 7.58345C10.4982 7.9368 10.0953 8.04733 9.81868 8.33181ZM9.75781 8.04473C9.75781 8.04473 10.0859 7.60851 10.0563 7.07568C10.0563 7.07568 10.2438 7.57808 9.75781 8.04473Z" fill="#AEAEAF"/>
</g>
</svg>
