<svg width="24" height="25" viewBox="0 0 24 25" fill="none" xmlns="http://www.w3.org/2000/svg">
<g clip-path="url(#clip0_486_1046)">
<path opacity="0.08" d="M21.5362 18.56L11.4374 23.8606C11.0549 24.0396 10.6368 24.1293 10.2146 24.1231C9.79237 24.117 9.37705 24.015 8.99994 23.825L4.08744 20.9769C3.42932 20.6019 3.39182 19.9869 4.00119 19.58L13.0799 13.6925C13.7549 13.2444 14.9549 13.22 15.6749 13.64L21.6018 17.075C22.3124 17.4894 22.2899 18.1681 21.5362 18.56Z" fill="black"/>
<path d="M19.8244 16.9081H19.3613V14.9825L18.0957 14.0731L19.1532 7.67748C19.2882 6.76623 19.6913 6.08748 20.3475 5.6656L20.8125 5.37498C20.8851 5.3287 20.9447 5.26462 20.9855 5.18881C21.0263 5.11301 21.0471 5.02802 21.0458 4.94194C21.0445 4.85585 21.0211 4.77154 20.978 4.69702C20.9349 4.6225 20.8734 4.56026 20.7994 4.51623L15.8382 1.5331C15.6282 1.40565 15.3872 1.33826 15.1416 1.33826C14.896 1.33826 14.655 1.40565 14.445 1.5331L13.6707 1.99998C13.3034 2.22205 13.0006 2.53635 12.7924 2.91166C12.5842 3.28696 12.4778 3.71021 12.4838 4.13935L12.5775 10.2744H12.1125L12.0207 4.13748C12.0155 3.62916 12.1428 3.12825 12.39 2.68408C12.6372 2.2399 12.9959 1.86778 13.4307 1.60435L14.205 1.13748C14.4878 0.966409 14.812 0.875977 15.1425 0.875977C15.473 0.875977 15.7972 0.966409 16.08 1.13748L21.0375 4.11123C21.1789 4.196 21.2962 4.3154 21.3786 4.45815C21.4609 4.6009 21.5055 4.76228 21.5081 4.92706C21.5108 5.09183 21.4713 5.25456 21.3936 5.39986C21.3158 5.54516 21.2023 5.66824 21.0638 5.75748L20.5988 6.0556C20.0588 6.40248 19.7269 6.97248 19.6107 7.7431L18.6 13.865L19.8244 14.75V16.9081Z" fill="#8FD4FF"/>
<path d="M9.47061 22.4713C9.05689 22.4773 8.64844 22.3779 8.28373 22.1825L5.49561 20.5719C5.34092 20.4991 5.20777 20.3874 5.10918 20.2477C5.01058 20.108 4.94992 19.9451 4.93311 19.775C4.93757 19.6137 4.98358 19.4563 5.06668 19.3181C5.14979 19.1798 5.26717 19.0653 5.40748 18.9856L13.155 13.9606C13.8075 13.5275 14.91 13.5031 15.6131 13.91L19.2694 16.0213C19.6331 16.2313 19.8319 16.535 19.8319 16.8556C19.8319 17.1763 19.5975 17.4913 19.2075 17.6956L10.5937 22.2181C10.2444 22.3895 9.85967 22.4763 9.47061 22.4713ZM14.4375 14.0863C14.0808 14.0763 13.7285 14.1673 13.4212 14.3488L5.67373 19.3738C5.60076 19.4112 5.53834 19.4664 5.49216 19.5342C5.44598 19.602 5.41751 19.6803 5.40936 19.7619C5.42657 19.8513 5.46526 19.9353 5.52209 20.0065C5.57892 20.0777 5.65219 20.134 5.73561 20.1706L8.52561 21.7813C8.81433 21.9244 9.13152 22.001 9.45377 22.0052C9.77602 22.0094 10.0951 21.9412 10.3875 21.8056L18.9937 17.2831C19.2281 17.1613 19.3687 17.0019 19.3687 16.8463C19.3687 16.6906 19.2525 16.5444 19.0425 16.4225L15.375 14.3113C15.0864 14.1586 14.7639 14.0812 14.4375 14.0863Z" fill="#8FD4FF"/>
<path d="M17.8556 14.6975L9.24182 19.22C8.91438 19.3732 8.55642 19.4501 8.19493 19.4449C7.83344 19.4398 7.47784 19.3526 7.15494 19.19L3.42744 17.0375C2.86494 16.7131 2.83307 16.1919 3.35432 15.845L11.0999 10.8219C11.6756 10.4469 12.6937 10.4169 13.3143 10.7769L17.9118 13.4375C18.5249 13.7844 18.4987 14.3619 17.8556 14.6975Z" fill="#8FD4FF"/>
<path d="M8.08316 16.1975C7.66123 16.2055 7.24426 16.1055 6.87191 15.9069L2.85754 13.5894C2.52004 13.4019 2.33066 13.1319 2.32129 12.8394C2.326 12.6883 2.36998 12.5411 2.44888 12.4122C2.52779 12.2834 2.63891 12.1772 2.77129 12.1044L11.0213 6.74187C11.6794 6.31249 12.8288 6.28812 13.5338 6.68749L18.4819 9.55249C18.8325 9.75499 19.0238 10.0325 19.0163 10.3325C19.0088 10.6325 18.7913 10.925 18.4182 11.12L9.23066 15.9425C8.87359 16.1167 8.48041 16.2041 8.08316 16.1975ZM12.3225 6.63499C11.9125 6.62345 11.5075 6.7281 11.1544 6.93687L2.89879 12.3125C2.80058 12.3649 2.71736 12.4414 2.65699 12.5349C2.59662 12.6284 2.5611 12.7358 2.55379 12.8469C2.5711 12.9669 2.61875 13.0805 2.69225 13.177C2.76575 13.2735 2.86265 13.3496 2.97379 13.3981L6.98629 15.7062C7.31663 15.873 7.68062 15.9624 8.05064 15.9676C8.42066 15.9728 8.78702 15.8937 9.12191 15.7362L18.3094 10.9137C18.6075 10.76 18.78 10.5387 18.7857 10.3269C18.7913 10.115 18.6413 9.91249 18.375 9.75312L13.4175 6.89562C13.0802 6.71868 12.7034 6.63029 12.3225 6.63874V6.63499Z" fill="#43BCFF"/>
<path d="M8.1563 17.9056C7.74862 17.9139 7.34567 17.8171 6.9863 17.6244L3.1163 15.3912C2.97473 15.326 2.85247 15.2253 2.76145 15.0988C2.67043 14.9723 2.61374 14.8243 2.59692 14.6694C2.60178 14.5229 2.6446 14.3803 2.72119 14.2554C2.79777 14.1305 2.90549 14.0276 3.0338 13.9569L11.0325 8.76499C11.6625 8.34499 12.7707 8.32249 13.4532 8.71624L18.2232 11.4687C18.5626 11.6562 18.7463 11.9337 18.7407 12.2187C18.735 12.5037 18.5232 12.7925 18.1613 12.98L9.26255 17.6581C8.91837 17.8264 8.53938 17.9112 8.1563 17.9056ZM12.2813 8.66749C11.8862 8.65668 11.4961 8.7581 11.1563 8.95999L3.1613 14.1519C3.06696 14.2014 2.98691 14.2743 2.9288 14.3636C2.87069 14.4528 2.83648 14.5556 2.82942 14.6619C2.84614 14.777 2.89192 14.886 2.96246 14.9785C3.033 15.071 3.12595 15.144 3.23255 15.1906L7.10067 17.4237C7.41944 17.5856 7.77099 17.6724 8.12845 17.6776C8.48591 17.6828 8.83983 17.6062 9.16317 17.4537L18.0526 12.7831C18.3376 12.6331 18.5044 12.4287 18.5082 12.2206C18.5119 12.0125 18.3713 11.8231 18.1069 11.6712L13.3369 8.91687C13.0126 8.74546 12.6499 8.65963 12.2832 8.66749H12.2813Z" fill="#43BCFF"/>
<path d="M7.91067 14.4744H8.14317V19.4375H7.91067V14.4744ZM1.92004 11.1055L2.38054 11.0311L3.26836 16.5237L2.80786 16.5982L1.92004 11.1055ZM18.1169 14.0849L18.9981 8.51429L19.4575 8.58685L18.5762 14.1575L18.1169 14.0849ZM12.0188 4.53442L12.4838 4.52692L12.5777 10.5189L12.1127 10.5262L12.0188 4.53442ZM4.79161 13.0906L5.02373 13.0765L5.32036 18.0402L5.08823 18.0541L4.79161 13.0906ZM15.2925 11.9765L15.7669 6.14579L15.9987 6.16454L15.5243 11.9954L15.2925 11.9765ZM11.1929 18.1162L11.4512 12.929L11.6834 12.9404L11.4252 18.1278L11.1929 18.1162Z" fill="#43BCFF"/>
<path d="M15.1247 15.9062L15.3778 10.82L15.6103 10.8317L15.357 15.9178L15.1247 15.9062ZM5.57361 8.30471L5.80555 8.28765L6.22686 13.97L5.99492 13.9871L5.57361 8.30471ZM8.78305 6.41265L9.01555 6.40253L9.2623 12.1254L9.02998 12.1353L8.78305 6.41265Z" fill="#43BCFF"/>
<path d="M7.99503 14.7088C7.53733 14.7158 7.08546 14.6054 6.68253 14.3882L2.49191 11.9713C2.11691 11.75 1.89003 11.4407 1.87878 11.1032C1.8844 10.9282 1.93519 10.7577 2.0262 10.6082C2.11721 10.4587 2.24535 10.3353 2.39816 10.25L10.9575 4.67565C11.6813 4.19378 12.9057 4.16753 13.6875 4.62503L18.8457 7.6044C19.2507 7.8369 19.4682 8.1669 19.4607 8.51565C19.4532 8.8644 19.2019 9.21128 18.7744 9.4344L9.24378 14.4275C8.85535 14.6179 8.42758 14.7143 7.99503 14.7088ZM12.375 4.76378C11.9693 4.75179 11.5686 4.85587 11.22 5.06378L2.65316 10.625C2.56699 10.6694 2.49334 10.7348 2.43896 10.815C2.38458 10.8953 2.35121 10.9879 2.34191 11.0844C2.36022 11.1893 2.40399 11.288 2.46937 11.3721C2.53475 11.4561 2.61975 11.5228 2.71691 11.5663L6.90941 13.9869C7.23802 14.1495 7.59881 14.2365 7.96539 14.2417C8.33197 14.2469 8.69508 14.1701 9.02816 14.0169L18.5625 9.0144C18.8344 8.8719 18.9938 8.6844 18.9975 8.49878C19.0013 8.31315 18.8625 8.14065 18.6225 7.99815L13.455 5.02065C13.1226 4.84495 12.751 4.75656 12.375 4.76378Z" fill="#43BCFF"/>
<path d="M8.22565 19.6794C7.81193 19.6854 7.40348 19.586 7.03878 19.3906L3.31128 17.2381C3.15626 17.1658 3.02281 17.0542 2.92416 16.9144C2.8255 16.7747 2.76505 16.6115 2.74878 16.4412C2.75305 16.2802 2.79878 16.1229 2.88154 15.9846C2.96431 15.8463 3.08132 15.7317 3.22128 15.6519L10.9744 10.625C11.625 10.1919 12.7294 10.1675 13.4307 10.5744L18.0282 13.2294C18.39 13.4375 18.5907 13.7431 18.5907 14.0637C18.5907 14.3844 18.3563 14.6994 17.9682 14.9019L9.34878 19.4262C8.99953 19.5978 8.61473 19.6845 8.22565 19.6794ZM12.2438 10.7525C11.8876 10.7424 11.536 10.8335 11.2294 11.015L3.48003 16.04C3.4058 16.0783 3.34257 16.1349 3.29631 16.2045C3.25005 16.274 3.22229 16.3542 3.21565 16.4375C3.23306 16.5271 3.27203 16.6112 3.3292 16.6824C3.38637 16.7536 3.46001 16.8099 3.54378 16.8462L7.27128 18.9875C7.55974 19.1314 7.8769 19.2084 8.19922 19.213C8.52154 19.2175 8.84075 19.1494 9.13315 19.0137L17.7488 14.4912C17.9832 14.3694 18.1238 14.21 18.1238 14.0544C18.1238 13.8987 18 13.7525 17.7957 13.625L13.2 10.9775C12.9056 10.8223 12.5765 10.7448 12.2438 10.7525Z" fill="#43BCFF"/>
<path fill-rule="evenodd" clip-rule="evenodd" d="M18.8606 17.1294L17.5144 19.5125C17.5144 19.5125 17.2087 19.3419 17.0325 19.2312C16.9388 19.1604 16.8649 19.0666 16.8179 18.9588C16.7709 18.8511 16.7525 18.7331 16.7644 18.6162C16.7833 18.2807 16.881 17.9543 17.0494 17.6634C17.2177 17.3726 17.4522 17.1254 17.7337 16.9419C18.0262 16.7731 18.2962 16.7694 18.465 16.9006C18.591 16.9866 18.7232 17.0631 18.8606 17.1294Z" fill="#4A2730"/>
<path fill-rule="evenodd" clip-rule="evenodd" d="M19.1494 17.75C19.1333 18.0872 19.0378 18.4157 18.8707 18.709C18.7035 19.0022 18.4694 19.2519 18.1876 19.4375C17.6513 19.7469 17.2163 19.4994 17.2163 18.875C17.2352 18.5392 17.333 18.2126 17.5017 17.9217C17.6705 17.6308 17.9055 17.3837 18.1876 17.2006C18.7144 16.8913 19.1494 17.1388 19.1494 17.75Z" fill="#30121B"/>
<path fill-rule="evenodd" clip-rule="evenodd" d="M18.6394 18.05C18.6314 18.2084 18.5864 18.3626 18.5079 18.5004C18.4294 18.6381 18.3197 18.7555 18.1875 18.8431C17.9325 18.9894 17.7281 18.8731 17.7281 18.5806C17.7368 18.4216 17.7829 18.2668 17.8627 18.129C17.9426 17.9912 18.0538 17.8742 18.1875 17.7875C18.4331 17.6413 18.6394 17.7594 18.6394 18.05ZM14.2256 19.94L12.8794 22.3231C12.8794 22.3231 12.5738 22.1544 12.3975 22.0438C12.3039 21.9728 12.2301 21.8789 12.1832 21.7713C12.1362 21.6636 12.1177 21.5456 12.1294 21.4288C12.1476 21.0928 12.2449 20.7658 12.4134 20.4746C12.5818 20.1833 12.8166 19.9359 13.0988 19.7525C13.3913 19.5838 13.6613 19.5819 13.83 19.7131C13.9556 19.7993 14.0879 19.8751 14.2256 19.94Z" fill="#4A2730"/>
<path fill-rule="evenodd" clip-rule="evenodd" d="M14.5144 20.5625C14.4975 20.9005 14.4007 21.2298 14.2318 21.5231C14.063 21.8165 13.8269 22.0656 13.5431 22.25C13.0069 22.5594 12.5737 22.31 12.5737 21.6875C12.592 21.3515 12.6893 21.0246 12.8577 20.7333C13.0262 20.442 13.261 20.1946 13.5431 20.0112C14.0794 19.7019 14.5144 19.9512 14.5144 20.5625Z" fill="#30121B"/>
<path fill-rule="evenodd" clip-rule="evenodd" d="M14.0025 20.8625C13.9934 21.0214 13.9471 21.176 13.8673 21.3138C13.7875 21.4516 13.6765 21.5686 13.5431 21.6556C13.29 21.8019 13.0837 21.6837 13.0837 21.3931C13.0925 21.2341 13.1387 21.0794 13.2185 20.9416C13.2984 20.8038 13.4096 20.6868 13.5431 20.6C13.7962 20.4519 14.0025 20.5625 14.0025 20.8625Z" fill="#4A2730"/>
<path d="M20.4918 4.51811C20.4081 4.51739 20.326 4.49476 20.2537 4.45249L15.7706 1.76186C15.6651 1.69846 15.5892 1.59578 15.5595 1.4764C15.5298 1.35702 15.5487 1.23073 15.6121 1.1253C15.6755 1.01988 15.7782 0.94396 15.8976 0.914247C16.017 0.884534 16.1433 0.903461 16.2487 0.966864L20.7299 3.65561C20.8165 3.70813 20.8835 3.78745 20.9209 3.88153C20.9582 3.97561 20.9638 4.0793 20.9369 4.17688C20.91 4.27445 20.8519 4.36056 20.7716 4.42215C20.6913 4.48374 20.593 4.51743 20.4918 4.51811Z" fill="#F62121"/>
<path d="M20.8631 4.50875C20.8214 4.50838 20.7806 4.49672 20.745 4.475L20.4469 4.29687C20.419 4.28202 20.3945 4.26164 20.3747 4.23699C20.355 4.21234 20.3405 4.18392 20.3321 4.15348C20.3237 4.12303 20.3216 4.0912 20.3259 4.05991C20.3302 4.02863 20.3409 3.99855 20.3572 3.97152C20.3735 3.94449 20.3952 3.92106 20.4209 3.90267C20.4465 3.88428 20.4757 3.87132 20.5065 3.86457C20.5374 3.85782 20.5693 3.85742 20.6003 3.8634C20.6313 3.86939 20.6608 3.88162 20.6869 3.89937L20.9831 4.0775C21.0361 4.10907 21.0743 4.1604 21.0895 4.22017C21.1046 4.27995 21.0953 4.34328 21.0638 4.39625C21.0428 4.43066 21.0133 4.45909 20.9782 4.4788C20.943 4.49851 20.9034 4.50882 20.8631 4.50875Z" fill="#8FD4FF"/>
</g>
<defs>
<clipPath id="clip0_486_1046">
<rect width="24" height="24" fill="white" transform="translate(0 0.5)"/>
</clipPath>
</defs>
</svg>
