<svg width="16" height="16" viewBox="0 0 16 16" fill="none" xmlns="http://www.w3.org/2000/svg">
<g id="Pile of Money">
<g id="Layer 2">
<path id="Vector" d="M5.645 2.5L15 7.915L10.355 10.615L1 5.215L5.645 2.5Z" fill="#F3F7DE"/>
<path id="Vector_2" d="M5.645 2.515L5.695 2.54L1.185 5.195L10.355 10.615L1 5.215L5.645 2.515Z" fill="white"/>
<path id="Vector_3" d="M15 7.91V10.785L10.355 13.49V10.615L15 7.91Z" fill="#A5AA85"/>
<path id="Vector_4" d="M10.355 10.615V13.49L1 8.09V5.215L10.355 10.615Z" fill="#C1C5AC"/>
<path id="Vector_5" d="M13.2052 7.415C13.1 7.45104 13.0079 7.51759 12.9407 7.60617C12.8735 7.69474 12.8341 7.80133 12.8277 7.91235C12.8213 8.02337 12.848 8.13379 12.9046 8.22954C12.9611 8.32529 13.0449 8.40203 13.1452 8.45L11.2802 9.535C10.9981 9.40655 10.6906 9.34343 10.3807 9.35036C10.0707 9.35728 9.76636 9.43407 9.49023 9.575L2.86523 5.75C2.97819 5.71183 3.07633 5.63919 3.14585 5.54233C3.21536 5.44546 3.25275 5.32923 3.25275 5.21C3.25275 5.09077 3.21536 4.97454 3.14585 4.87767C3.07633 4.7808 2.97819 4.70817 2.86523 4.67L4.72023 3.59C5.00883 3.73786 5.32846 3.81498 5.65273 3.81498C5.97701 3.81498 6.29663 3.73786 6.58523 3.59L13.2052 7.415Z" fill="#B7B899"/>
<path id="Vector_6" d="M9.3902 5.725C10.1652 6.17 10.1702 6.895 9.3902 7.34C8.9578 7.56198 8.47874 7.67776 7.9927 7.67776C7.50665 7.67776 7.02759 7.56198 6.5952 7.34C5.8202 6.895 5.8152 6.17 6.5952 5.72C7.02835 5.49998 7.50747 5.38572 7.9933 5.38659C8.47913 5.38746 8.95783 5.50343 9.3902 5.725ZM11.2952 7.715C11.3429 7.73101 11.3843 7.76159 11.4136 7.80241C11.443 7.84323 11.4588 7.89223 11.4588 7.9425C11.4588 7.99277 11.443 8.04178 11.4136 8.0826C11.3843 8.12342 11.3429 8.15399 11.2952 8.17C11.1735 8.23152 11.0391 8.26357 10.9027 8.26357C10.7663 8.26357 10.6319 8.23152 10.5102 8.17C10.4625 8.15399 10.4211 8.12342 10.3918 8.0826C10.3624 8.04178 10.3466 7.99277 10.3466 7.9425C10.3466 7.89223 10.3624 7.84323 10.3918 7.80241C10.4211 7.76159 10.4625 7.73101 10.5102 7.715C10.6317 7.6527 10.7662 7.62021 10.9027 7.62021C11.0392 7.62021 11.1737 7.6527 11.2952 7.715ZM6.0002 4.665C6.04785 4.68101 6.08927 4.71159 6.11862 4.75241C6.14796 4.79323 6.16375 4.84223 6.16375 4.8925C6.16375 4.94277 6.14796 4.99178 6.11862 5.0326C6.08927 5.07342 6.04785 5.10399 6.0002 5.12C5.87938 5.18147 5.74575 5.21352 5.6102 5.21352C5.47464 5.21352 5.34101 5.18147 5.2202 5.12C5.17254 5.10399 5.13112 5.07342 5.10177 5.0326C5.07243 4.99178 5.05664 4.94277 5.05664 4.8925C5.05664 4.84223 5.07243 4.79323 5.10177 4.75241C5.13112 4.71159 5.17254 4.68101 5.2202 4.665C5.34101 4.60353 5.47464 4.57149 5.6102 4.57149C5.74575 4.57149 5.87938 4.60353 6.0002 4.665Z" fill="#72745C"/>
<path id="Vector_7" d="M15 8.07001V8.23001L10.355 10.93V10.775L15 8.07001Z" fill="#898C6D"/>
<path id="Vector_8" d="M10.355 10.775V10.93L1 5.53V5.37L10.355 10.775Z" fill="#A5AA85"/>
<path id="Vector_9" d="M15 8.39V8.55L10.355 11.25V11.09L15 8.39Z" fill="#898C6D"/>
<path id="Vector_10" d="M10.355 11.09V11.25L1 5.85V5.69L10.355 11.09Z" fill="#A5AA85"/>
<path id="Vector_11" d="M15 8.71001V8.87001L10.355 11.57V11.41L15 8.71001Z" fill="#898C6D"/>
<path id="Vector_12" d="M10.355 11.41V11.57L1 6.16999V6.00999L10.355 11.41Z" fill="#A5AA85"/>
<path id="Vector_13" d="M15 9.03V9.19L10.355 11.89V11.73L15 9.03Z" fill="#898C6D"/>
<path id="Vector_14" d="M10.355 11.73V11.89L1 6.49V6.33L10.355 11.73Z" fill="#A5AA85"/>
<path id="Vector_15" d="M15 9.35001V9.51001L10.355 12.21V12.05L15 9.35001Z" fill="#898C6D"/>
<path id="Vector_16" d="M10.355 12.05V12.21L1 6.80999V6.64999L10.355 12.05Z" fill="#A5AA85"/>
<path id="Vector_17" d="M15 9.67V9.83L10.355 12.53V12.37L15 9.67Z" fill="#898C6D"/>
<path id="Vector_18" d="M10.355 12.37V12.53L1 7.13V6.97L10.355 12.37Z" fill="#A5AA85"/>
<path id="Vector_19" d="M15 9.99001V10.15L10.355 12.85V12.69L15 9.99001Z" fill="#898C6D"/>
<path id="Vector_20" d="M10.355 12.69V12.85L1 7.44999V7.28999L10.355 12.69Z" fill="#A5AA85"/>
<path id="Vector_21" d="M15 10.31V10.47L10.355 13.17V13.01L15 10.31Z" fill="#898C6D"/>
<path id="Vector_22" d="M10.355 13.01V13.17L1 7.77V7.61L10.355 13.01Z" fill="#A5AA85"/>
<path id="Vector_23" d="M15 10.625V10.785L10.355 13.49V13.325L15 10.625Z" fill="#898C6D"/>
<path id="Vector_24" d="M10.355 13.325V13.49L1 8.09V7.925L10.355 13.325Z" fill="#A5AA85"/>
<path id="Vector_25" d="M9.21488 4.57001L11.1749 5.70501L6.60488 8.44501L4.62988 7.31001L9.21488 4.57001Z" fill="#DFE7EA"/>
<path id="Vector_26" d="M4.62988 7.31L4.69988 7.27L6.66488 8.41L6.60488 8.445L4.62988 7.31Z" fill="white"/>
<path id="Vector_27" d="M4.62988 10.185V7.31L6.60488 8.445L6.61988 11.33L4.62988 10.185Z" fill="#DFE7EA"/>
<path id="Vector_28" d="M6.18986 8.115L6.10986 8.16L6.27486 8.255L10.8499 5.515L10.6849 5.42L6.18986 8.115Z" fill="#195B8B"/>
<path id="Vector_29" d="M4.95996 7.48999L5.12496 7.58999V7.58499L9.70496 4.85499L9.53996 4.75999L4.95996 7.48999Z" fill="#195B8B"/>
<path id="Vector_30" d="M6.28486 11.14L6.27486 8.255L6.10986 8.16V8.255L6.11986 11.045L6.27986 11.135L6.28486 11.14Z" fill="#417DAA"/>
<path id="Vector_31" d="M4.95996 7.49001V10.375L5.12496 10.47V7.59001L4.95996 7.49001Z" fill="#417DAA"/>
<path id="Vector_32" d="M11.175 5.705L6.82498 8.575L6.60498 8.445L11.175 5.705Z" fill="#72745C"/>
<path id="Vector_33" d="M6.61998 11.33L6.82498 8.57501L6.60498 8.44501L6.61998 11.33Z" fill="#72745C"/>
</g>
</g>
</svg>
