<svg width="16" height="16" viewBox="0 0 16 16" fill="none" xmlns="http://www.w3.org/2000/svg">
<g id="Digital Art">
<path id="Vector" d="M11.5207 13.0637V13.6C11.5195 13.9864 11.265 14.3727 10.7566 14.6681C9.73345 15.2625 8.073 15.2628 7.04485 14.669C6.52693 14.3698 6.26767 13.9769 6.26856 13.5846V13.0513C6.26856 12.6637 6.52248 12.2767 7.03122 11.981C8.05404 11.3867 9.71804 11.3884 10.7462 11.9822C11.2656 12.2821 11.524 12.6758 11.5204 13.0687L11.5207 13.0637Z" fill="#1D2943"/>
<path id="Vector_2" d="M11.5194 13.0637V13.6C11.5194 13.9852 11.2646 14.3733 10.7579 14.6667C9.73275 15.2622 8.07349 15.2622 7.04534 14.6696C6.52682 14.3704 6.26904 13.9763 6.26904 13.5852V13.0518L11.5194 13.0637Z" fill="#1D2943"/>
<path id="Vector_3" d="M10.7465 11.9822C11.7747 12.5757 11.78 13.5378 10.7569 14.1321C9.73381 14.7265 8.07336 14.7265 7.04521 14.133C6.01707 13.5396 6.00818 12.5757 7.03158 11.981C8.0544 11.3867 9.7184 11.3884 10.7465 11.9822Z" fill="#4C5C75"/>
<path id="Vector_4" d="M9.37092 10.4296L9.36589 12.6311L7.67285 13.6151L7.021 13.235L7.02603 11.0335L7.67789 11.4133L9.37092 10.4296Z" fill="#B0B8CF"/>
<path id="Vector_5" d="M7.67789 11.4133L9.37093 10.4296L9.36589 12.6311L7.67285 13.6151L7.67789 11.4133Z" fill="#B0B8CF"/>
<path id="Vector_6" d="M7.67789 11.4133L7.67285 13.6151L7.021 13.235L7.02603 11.0335L7.67789 11.4133Z" fill="#9EA9C9"/>
<path id="Vector_7" d="M13.4925 1.64415C13.4925 1.52415 13.4487 1.44059 13.3791 1.40356L13.3844 1.40652C13.3826 1.40551 13.3808 1.40452 13.3791 1.40356L12.5476 0.916743C12.3432 0.798521 12.7254 0.73778 2.85668 6.38578C2.65224 6.50371 2.4872 6.79022 2.48779 7.02459L2.50735 14.029C2.50735 14.1452 2.54883 14.2273 2.6155 14.2661L3.45165 14.7556C3.41863 14.7357 3.39224 14.7065 3.37579 14.6717C3.43357 14.7879 3.56365 14.8169 3.71505 14.7298L13.1429 9.28682C13.3474 9.1683 13.5124 8.88208 13.5118 8.64771L13.4925 1.64415ZM3.69372 6.87556C3.48187 6.99822 3.59802 6.93067 3.69372 6.87556C9.4952 3.57571 21.7669 -3.56207 3.69372 6.87556Z" fill="#4C5C75"/>
<path id="Vector_8" d="M13.3847 1.40681C13.3829 1.40569 13.3811 1.40461 13.3793 1.40355L13.3847 1.40681Z" fill="#4C5C75"/>
<path id="Vector_9" d="M13.3847 1.40681C13.3829 1.40569 13.3811 1.40461 13.3793 1.40355L13.3847 1.40681Z" fill="#E3E7F0"/>
<path id="Vector_10" d="M13.3844 1.40681C13.1788 1.288 13.5622 1.22755 3.69342 6.87526C3.48898 6.99377 3.32394 7.28029 3.32454 7.51466L3.34409 14.5182C3.34409 14.6347 3.38498 14.717 3.45165 14.7561L2.6155 14.2661C2.54883 14.2273 2.50735 14.1452 2.50735 14.029L2.48779 7.02459C2.4872 6.79022 2.65224 6.5037 2.85668 6.38577C12.7204 0.740737 12.342 0.797922 12.5479 0.916737L13.3844 1.40681Z" fill="#4C5C75"/>
<path id="Vector_11" d="M13.1216 1.43229C13.3261 1.31437 13.4923 1.40948 13.4929 1.64414L13.5122 8.648C13.5128 8.88237 13.3477 9.16889 13.1433 9.28681L3.71542 14.7298C3.51098 14.8483 3.34505 14.7529 3.34416 14.5182L3.3252 7.51437C3.32431 7.28 3.48935 6.99348 3.69409 6.87555L13.1216 1.43229Z" fill="#E3E7F0"/>
<path id="Vector_12" d="M3.60235 7.51378C3.60175 7.37749 3.71375 7.1843 3.83257 7.11586L12.7866 1.94608C12.8302 1.92102 12.8796 1.90784 12.9299 1.90787C12.9802 1.9079 13.0296 1.92113 13.0731 1.94624C13.1167 1.97135 13.1529 2.00745 13.1781 2.05095C13.2034 2.09444 13.2167 2.1438 13.2169 2.19408L13.2346 8.6486C13.2346 8.78489 13.1229 8.97808 13.0041 9.04652L4.05035 14.2163C4.00677 14.2414 3.95736 14.2547 3.90707 14.2547C3.85677 14.2547 3.80735 14.2415 3.76375 14.2164C3.72016 14.1913 3.68392 14.1553 3.65866 14.1118C3.6334 14.0683 3.62001 14.0189 3.61983 13.9686L3.60205 7.51378H3.60235Z" fill="white"/>
<path id="Vector_13" d="M5.75654 6.70725L11.1524 3.58429L11.1613 9.49244L5.74854 12.6249L5.75654 6.70725Z" fill="#F3F1FC"/>
<path id="Vector_14" d="M5.32504 6.99615L4.04297 7.73541L4.05986 13.4356L5.34164 12.6966L5.32504 6.99615ZM4.78223 10.0563L4.77897 9.61008L5.1286 9.40682L5.13156 9.85304L4.78223 10.0563ZM5.13186 10.0729V10.5191L4.78223 10.7188V10.2726L5.13186 10.0729ZM5.1286 9.19053L4.77897 9.39349V8.94401L5.1286 8.7443V9.19053ZM4.77571 7.61897L5.12178 7.41571L5.12504 7.86193L4.77541 8.06519L4.77571 7.61897ZM5.12534 8.08178V8.52801L4.77867 8.72771L4.77571 8.28149L5.12534 8.08178ZM4.60564 10.1559L4.25304 10.3591V9.9129L4.60267 9.70993L4.60564 10.1559ZM4.59912 7.71882V8.16504L4.24949 8.36801L4.24623 7.92178L4.59912 7.71882ZM4.60238 8.83082L4.24949 9.03408V8.58786L4.59912 8.3846L4.60238 8.83082ZM4.60238 9.04712V9.4969L4.25275 9.6966L4.24949 9.25038L4.60238 9.04712ZM4.60564 10.3757V10.8219L4.25601 11.0252L4.25304 10.579L4.60564 10.3757ZM4.25601 11.2379L4.60919 11.035V11.4845L4.2563 11.6877V11.2382L4.25601 11.2379ZM4.78549 11.3846L4.78223 10.9351L5.13186 10.7322L5.13512 11.1816L4.78549 11.3846Z" fill="#E3E7F0"/>
<path id="Vector_15" d="M4.59799 7.71971L4.59947 8.16623L4.24777 8.36919L4.24658 7.92267L4.59799 7.71971ZM5.12332 7.4166L5.12451 7.86311L4.77517 8.0646L4.77399 7.61808L5.12332 7.4166ZM4.60006 8.3843L4.60125 8.83082L4.24955 9.03378L4.24836 8.58726L4.60006 8.3843ZM5.1251 8.08089L5.12629 8.52741L4.77695 8.72919L4.77577 8.28267L5.1251 8.08089ZM4.60184 9.04593L4.60303 9.49511L4.25162 9.69808L4.25043 9.24889L4.60184 9.04593ZM5.12688 8.74282L5.12836 9.192L4.77903 9.39378L4.77754 8.9446L5.12688 8.74282ZM4.60392 9.71052L4.6051 10.157L4.2534 10.36L4.25221 9.91348L4.60392 9.71052ZM5.12895 9.40741L5.13014 9.85393L4.7808 10.0554L4.77962 9.60889L5.12895 9.40741ZM4.60569 10.3748L4.60688 10.8213L4.25547 11.0243L4.25399 10.5778L4.60569 10.3748ZM5.13073 10.0717L5.13192 10.5182L4.78258 10.72L4.7814 10.2735L5.13073 10.0717ZM4.60747 11.0367L4.60895 11.4859L4.25725 11.6889L4.25606 11.2397L4.60747 11.0367ZM5.13251 10.7336L5.13399 11.1828L4.78466 11.3843L4.78317 10.9351L5.13251 10.7336Z" fill="white"/>
<path id="Vector_16" d="M4.77481 11.936L4.7754 12.1644L4.62044 12.2539L4.62103 12.4827L4.37599 12.624L4.37451 12.1668L4.77481 11.936Z" fill="#F45170"/>
<path id="Vector_17" d="M5.0209 12.0228L5.02209 12.4773L4.62179 12.7084L4.6212 12.4827L4.62061 12.2539L4.77557 12.1644L5.0209 12.0228Z" fill="#78E75A"/>
<path id="Vector_18" d="M12.7937 7.83703L11.6031 8.52296L11.5928 4.48266L12.783 3.79674L12.7937 7.83674V7.83703ZM12.6334 6.73629L12.6325 6.512L11.759 7.01629L11.7596 7.24059L12.6334 6.73629ZM12.6304 5.82222L12.6301 5.59792L11.7563 6.10222L11.7572 6.32652L12.6307 5.82222H12.6304ZM12.6319 6.28059L12.6313 6.056L11.7578 6.56029L11.7584 6.78489L12.6319 6.28059ZM12.6346 7.19437L12.634 6.97007L11.7605 7.47437L11.7611 7.69866L12.6346 7.19437ZM12.6357 7.65274L12.6351 7.42814L11.7617 7.93274L11.7623 8.15703L12.6357 7.65274ZM12.6268 4.45007L12.626 4.22577L11.7525 4.73007L11.7531 4.95437L12.6268 4.45007ZM12.628 4.90815L12.6274 4.68385L11.754 5.18815L11.7546 5.41244L12.628 4.90815ZM12.6292 5.36415L12.6286 5.14192L11.7551 5.64652L11.7557 5.86844L12.6292 5.36415Z" fill="#E3E7F0"/>
<path id="Vector_19" d="M9.52879 5.50519L10.5137 7.92148L9.3765 8.57808C9.35724 8.19289 9.14775 7.97571 8.85205 7.98341L9.52879 5.50519Z" fill="#F45170"/>
<path id="Vector_20" d="M8.13585 7.29185L8.13881 8.35526C7.80163 8.69185 7.55748 9.19615 7.53911 9.63882L6.40163 10.2954L6.396 8.2963L8.13585 7.29185Z" fill="#78E75A"/>
<path id="Vector_21" d="M9.37778 8.63378C9.37955 9.21689 8.9677 9.93067 8.46015 10.2237C7.93481 10.5271 7.51289 10.2616 7.53926 9.63881C7.55763 9.19615 7.80178 8.69185 8.13896 8.35526C8.73393 7.76148 9.3757 7.89718 9.37778 8.63378Z" fill="#57B3FE"/>
</g>
</svg>
