<svg width="24" height="25" viewBox="0 0 24 25" fill="none" xmlns="http://www.w3.org/2000/svg">
<g id="Love Chat">
<path id="Vector" d="M21.3845 16.1061L19.2607 14.8722C19.4386 14.9758 19.6377 15.0689 19.8603 15.1522L21.984 16.3866C21.7767 16.31 21.5762 16.2161 21.3845 16.1061Z" fill="#FFD651"/>
<path id="Vector_2" d="M17.1136 1.25528L19.6487 2.72823C19.5151 2.65105 19.3301 2.66187 19.1263 2.77999L16.5908 1.30705C16.7951 1.18893 16.9805 1.17764 17.1136 1.25528Z" fill="#FFE2A9"/>
<path id="Vector_3" d="M4.79703 23.7447L2.26197 22.2718C2.1302 22.1951 2.04832 22.0318 2.04785 21.7998L4.58291 23.2727C4.58338 23.5047 4.66526 23.668 4.79703 23.7447Z" fill="#FFD651"/>
<path id="Vector_4" d="M4.58317 23.2732L2.04811 21.7998L2.01611 10.5663L4.55117 12.0393L4.58317 23.2732Z" fill="#EFC348"/>
<path id="Vector_5" d="M4.58289 23.2732L2.04783 21.7998L2.03418 17.0007L4.56924 18.4741L4.58289 23.2732Z" fill="#FFD651"/>
<path id="Vector_6" d="M5.28262 10.772L2.74756 9.29905L16.5904 1.30658L19.1254 2.77952L5.28262 10.772Z" fill="#FFE2A9"/>
<path id="Vector_7" d="M5.28262 10.772L2.74756 9.29904L14.2224 2.6741L16.7574 4.14704L5.28262 10.772Z" fill="#FFD651"/>
<path id="Vector_8" d="M5.28262 10.772L2.74756 9.29906L8.13109 6.19083L10.6661 7.66377L5.28262 10.772Z" fill="#EFC348"/>
<path id="Vector_9" d="M4.55118 12.0388L2.01612 10.5659C2.01471 10.1 2.34224 9.53295 2.74788 9.29907L5.28294 10.772C4.87729 11.0064 4.54976 11.573 4.55118 12.0388Z" fill="#FFD651"/>
<path id="Vector_10" d="M21.9842 16.387C20.5019 16.7696 19.2252 16.6689 18.0986 16.3155L5.31974 23.6934C4.9141 23.9278 4.58469 23.739 4.5828 23.2732L4.55127 12.0388C4.54986 11.5729 4.87739 11.0059 5.28304 10.7715L19.1263 2.77952C19.5315 2.54517 19.8614 2.7334 19.8623 3.19928L19.8892 12.5386C19.9428 14.4501 20.2247 15.7259 21.9842 16.387Z" fill="#DDB040"/>
<path id="Vector_11" d="M6.0025 11.3282C5.3865 11.5259 4.87967 12.0035 4.65285 12.6718C4.62273 12.7743 4.48391 12.7743 4.44814 12.6718C4.34633 12.3576 4.17147 12.072 3.93793 11.8384C3.70439 11.6049 3.41881 11.43 3.10461 11.3282C2.99638 11.292 2.99638 11.1536 3.10461 11.1174C3.418 11.0141 3.70279 10.8387 3.93611 10.6054C4.16944 10.372 4.34481 10.0873 4.44814 9.77387C4.48391 9.67128 4.62226 9.67128 4.65285 9.77387C4.88156 10.4468 5.39261 10.9221 6.0025 11.1174C6.02488 11.1245 6.04443 11.1385 6.0583 11.1575C6.07217 11.1765 6.07965 11.1993 6.07965 11.2228C6.07965 11.2463 6.07217 11.2692 6.0583 11.2881C6.04443 11.3071 6.02488 11.3211 6.0025 11.3282Z" fill="white"/>
<path id="Vector_12" d="M16.7815 8.94611C16.3448 8.6967 15.7754 8.77435 15.198 9.10188C14.6286 9.43741 14.0512 10.0148 13.622 10.7715C13.5128 10.9663 13.4117 11.1616 13.3255 11.3565L11.7891 10.4671C11.8747 10.2722 11.9759 10.0774 12.0855 9.88211C12.5142 9.12541 13.0917 8.54799 13.6611 8.21293C14.2385 7.88493 14.8079 7.80729 15.2446 8.0567L16.7815 8.94611Z" fill="#FC7E7E"/>
<path id="Vector_13" d="M15.198 9.10236C14.6286 9.43742 14.0512 10.0148 13.622 10.7715C13.5128 10.9664 13.4117 11.1617 13.3255 11.3565L11.7891 10.4671C11.8747 10.2722 11.9759 10.0774 12.0855 9.88213C12.5142 9.12542 13.0917 8.54848 13.6611 8.21295L15.198 9.10236Z" fill="#DD4A4A"/>
<path id="Vector_14" d="M13.622 10.7715C13.5128 10.9663 13.4117 11.1616 13.3255 11.3565L11.7891 10.4671C11.8747 10.2722 11.9759 10.0774 12.0855 9.88211L13.622 10.7715Z" fill="#F25A5A"/>
<path id="Vector_15" d="M9.86561 16.5941L8.32914 15.7056C7.45479 15.2016 7.45008 13.5706 8.32349 12.0515C8.76067 11.2976 9.3329 10.7165 9.90561 10.3856C10.4783 10.0548 11.052 9.97482 11.4915 10.2223L13.028 11.1113C12.5884 10.8633 12.0148 10.9438 11.4421 11.2741C10.8694 11.6049 10.2971 12.1861 9.86043 12.94C8.98655 14.4591 8.99126 16.0901 9.86514 16.5941H9.86561Z" fill="#DD4A4A"/>
<path id="Vector_16" d="M9.86043 12.94C8.98655 14.4591 8.99126 16.0901 9.86561 16.5941L8.32914 15.7057C7.45479 15.2017 7.45008 13.5706 8.32349 12.0511C8.76067 11.2977 9.3329 10.7165 9.90561 10.3857L11.4421 11.2741C10.8694 11.6049 10.2971 12.1861 9.86043 12.94Z" fill="#FC7E7E"/>
<path id="Vector_17" d="M9.86563 16.5941L8.32963 15.7056C7.45528 15.2016 7.45057 13.5706 8.32398 12.0511L9.86092 12.9405C8.98704 14.4591 8.99128 16.0901 9.86563 16.5941Z" fill="#DD4A4A"/>
<path id="Vector_18" d="M15.1998 9.10469C15.7725 8.77387 16.3457 8.69387 16.7829 8.94281C17.6676 9.44681 17.6723 11.0779 16.8036 12.5885L13.348 18.5734L9.86521 16.5941C8.99086 16.0906 8.98615 14.459 9.86004 12.94C10.2967 12.1861 10.869 11.6049 11.4412 11.2741C12.0144 10.9438 12.588 10.8633 13.0276 11.1108C13.1377 11.1795 13.2374 11.259 13.3226 11.3593C13.412 11.1588 13.5109 10.964 13.6205 10.7687C14.0549 10.0162 14.6271 9.43552 15.1998 9.10469Z" fill="#CC4848"/>
</g>
</svg>
