<svg width="16" height="16" viewBox="0 0 16 16" fill="none" xmlns="http://www.w3.org/2000/svg">
<g id="Idea">
<path id="Vector" d="M9.77076 13.3776V13.9091C9.77076 14.3788 9.58419 14.8292 9.25209 15.1613C8.91998 15.4934 8.46955 15.68 7.99988 15.68C7.53022 15.68 7.07979 15.4934 6.74768 15.1613C6.41558 14.8292 6.229 14.3788 6.229 13.9091V13.3776H9.77076Z" fill="#4C5C75"/>
<path id="Vector_2" d="M10.3812 11.832C10.3812 11.896 10.3716 11.9632 10.3524 12.0272C10.3812 12.136 10.3876 12.2448 10.3684 12.3504C10.378 12.3088 10.3812 12.264 10.3812 12.2224V12.776C10.3812 12.84 10.3716 12.9072 10.3524 12.9712C10.3812 13.08 10.3876 13.1888 10.3684 13.2944C10.378 13.2528 10.3812 13.208 10.3812 13.1664V13.72C10.378 14.072 10.1476 14.4208 9.68683 14.6896C8.76203 15.2272 7.25483 15.2272 6.32363 14.6896C5.85323 14.4176 5.61963 14.0624 5.61963 13.7072V13.1536C5.61963 13.0896 5.62603 13.0224 5.64523 12.9584C5.62603 12.8944 5.61963 12.8272 5.61963 12.7632V12.2096C5.61963 12.1424 5.62923 12.0784 5.64523 12.0144C5.62603 11.9504 5.61963 11.8832 5.61963 11.8192V11.2656C5.61963 10.9136 5.85003 10.5648 6.31083 10.296C7.23883 9.7552 8.74603 9.7552 9.67723 10.2928C10.202 10.5968 10.4324 11.0096 10.3684 11.4064C10.378 11.3616 10.3812 11.32 10.3812 11.2752V11.832Z" fill="#9EA9C9"/>
<path id="Vector_3" d="M9.58447 12.585C10.4658 13.0938 10.4706 13.919 9.59471 14.4278C8.71919 14.9366 7.29583 14.936 6.41455 14.4269C5.53455 13.919 5.52847 13.0947 6.40431 12.5856C7.27983 12.0768 8.70447 12.0768 9.58447 12.585Z" fill="#FFD06C"/>
<path id="Vector_4" d="M10.3798 13.1661V13.7216C10.3788 14.0723 10.1484 14.4224 9.68796 14.6899C8.76124 15.2285 7.255 15.2275 6.3222 14.6893C5.8534 14.4186 5.61884 14.063 5.62012 13.7078V13.1523C5.61884 13.5075 5.8534 13.8627 6.3222 14.1338C7.255 14.6723 8.76124 14.673 9.68796 14.1344C10.1484 13.8669 10.3788 13.5168 10.3798 13.1661Z" fill="#9EA9C9"/>
<path id="Vector_5" d="M9.67685 12.184C10.61 12.7226 10.6148 13.5958 9.68805 14.1344C8.76133 14.673 7.25509 14.672 6.32229 14.1338C5.39109 13.5962 5.38469 12.7235 6.31141 12.185C7.23813 11.6464 8.74533 11.6464 9.67685 12.184Z" fill="#E3E7F0"/>
<path id="Vector_6" d="M10.2487 12.5677V13.0925C10.2478 13.424 10.0302 13.7549 9.59499 14.0077C8.71947 14.5165 7.29611 14.5158 6.41483 14.007C5.97195 13.751 5.75051 13.415 5.75147 13.0797V12.5549C5.75051 12.8902 5.97195 13.2262 6.41483 13.4819C7.29611 13.9907 8.71947 13.9917 9.59499 13.4829C10.0302 13.2301 10.2478 12.8992 10.2487 12.5677Z" fill="#4C5C75"/>
<path id="Vector_7" d="M9.58447 11.64C10.4658 12.1488 10.4706 12.9741 9.59471 13.4829C8.71919 13.9917 7.29583 13.991 6.41455 13.4819C5.53455 12.9741 5.52847 12.1498 6.40431 11.6406C7.27983 11.1318 8.70447 11.1318 9.58447 11.64Z" fill="#FFD06C"/>
<path id="Vector_8" d="M10.3798 12.2211V12.7766C10.3788 13.1274 10.1484 13.4774 9.68796 13.745C8.76124 14.2835 7.255 14.2826 6.3222 13.7443C5.8534 13.4736 5.61884 13.1181 5.62012 12.7629V12.2074C5.61884 12.5626 5.8534 12.9178 6.3222 13.1888C7.255 13.7274 8.76124 13.728 9.68796 13.1894C10.1484 12.9219 10.3788 12.5718 10.3798 12.2211Z" fill="#9EA9C9"/>
<path id="Vector_9" d="M9.67685 11.239C10.61 11.7776 10.6148 12.6509 9.68805 13.1894C8.76133 13.728 7.25509 13.727 6.32229 13.1888C5.39109 12.6512 5.38469 11.7786 6.31141 11.24C7.23813 10.7014 8.74533 10.7014 9.67685 11.239Z" fill="#E3E7F0"/>
<path id="Vector_10" d="M10.2487 11.6227V12.1475C10.2478 12.479 10.0302 12.8099 9.59499 13.0627C8.71947 13.5715 7.29611 13.5709 6.41483 13.0621C5.97195 12.8061 5.75051 12.4701 5.75147 12.1347V11.6099C5.75051 11.9453 5.97195 12.2813 6.41483 12.537C7.29611 13.0458 8.71947 13.0467 9.59499 12.5379C10.0302 12.2851 10.2478 11.9542 10.2487 11.6227Z" fill="#4C5C75"/>
<path id="Vector_11" d="M9.58447 10.695C10.4658 11.2038 10.4706 12.0291 9.59471 12.5379C8.71919 13.0467 7.29583 13.0461 6.41455 12.537C5.53455 12.0291 5.52847 11.2048 6.40431 10.6957C7.27983 10.1869 8.70447 10.1869 9.58447 10.695Z" fill="#FFD06C"/>
<path id="Vector_12" d="M10.3798 11.2762V11.8317C10.3788 12.1824 10.1484 12.5325 9.68796 12.8C8.76124 13.3386 7.255 13.3376 6.3222 12.7994C5.8534 12.5286 5.61884 12.1731 5.62012 11.8179V11.2624C5.61884 11.6176 5.8534 11.9728 6.3222 12.2438C7.255 12.7824 8.76124 12.783 9.68796 12.2445C10.1484 11.977 10.3788 11.6269 10.3798 11.2762Z" fill="#9EA9C9"/>
<path id="Vector_13" d="M9.67685 10.2944C10.61 10.8326 10.6148 11.7059 9.68805 12.2445C8.76133 12.783 7.25509 12.7821 6.32229 12.2438C5.39109 11.7062 5.38469 10.8336 6.31141 10.295C7.23813 9.75649 8.74565 9.75649 9.67717 10.2941L9.67685 10.2944Z" fill="#E3E7F0"/>
<path id="Vector_14" d="M8.00872 12.3581C7.42312 12.3581 6.87528 12.2282 6.46696 11.9926C6.11304 11.7882 5.91016 11.5235 5.91016 11.2656C5.90952 11.0064 6.10376 10.751 6.45672 10.5456C6.86152 10.3104 7.40712 10.1808 7.99272 10.1808C8.57832 10.1808 9.12488 10.3104 9.53192 10.5453C9.89128 10.7526 10.0894 11.0112 10.0897 11.273C10.0897 11.5322 9.89544 11.7882 9.54248 11.9936C9.138 12.2288 8.59336 12.3581 8.00872 12.3581Z" fill="#9EA9C9"/>
<path id="Vector_15" d="M9.22645 10.7098L9.16853 10.7386C9.10741 10.7613 9.03957 10.7741 8.97205 10.7741C8.92053 10.7773 8.86901 10.7709 8.82069 10.7581C8.77429 10.7493 8.72964 10.733 8.68853 10.7098C8.54037 10.6227 8.53717 10.4842 8.68533 10.3971L8.74325 10.3683C8.78837 10.3523 8.83989 10.3427 8.89141 10.3363C8.95605 10.3296 9.02357 10.3363 9.08789 10.3459C9.13621 10.3587 9.18453 10.3747 9.22325 10.3971C9.37141 10.4842 9.37461 10.6227 9.22645 10.7098ZM7.31285 11.8179C7.26453 11.8435 7.20661 11.863 7.14517 11.873C7.09397 11.8826 7.03893 11.8858 6.98421 11.8794C6.92065 11.874 6.8585 11.8577 6.80053 11.831C6.79093 11.8278 6.78453 11.8214 6.77493 11.8182C6.62645 11.7344 6.62645 11.5926 6.77493 11.5088C6.86197 11.4623 6.95989 11.4401 7.05845 11.4445C7.11285 11.4477 7.16789 11.4541 7.21621 11.4701C7.24821 11.4797 7.28053 11.4925 7.30965 11.5085C7.46101 11.5926 7.46101 11.7344 7.31285 11.8179Z" fill="#4C5C75"/>
<path id="Vector_16" d="M8.97233 10.7744C8.92081 10.7776 8.86929 10.7712 8.82097 10.7581C8.78865 10.6387 8.76273 10.5069 8.74353 10.3683C8.67601 9.97504 8.64689 9.51456 8.64369 9.02464C8.64049 8.52864 8.66929 7.75232 8.73073 7.17536C8.73713 7.10144 8.74353 7.0304 8.75313 6.96608L8.92401 7.06592C8.85297 7.65216 8.81457 8.57056 8.81777 9.1248C8.81777 9.55968 8.84337 9.97184 8.89169 10.336C8.91409 10.4906 8.94321 10.6387 8.97233 10.7744ZM9.14513 6.42048C9.13041 6.41312 9.11569 6.41312 9.09617 6.42048C9.09105 6.42304 9.08625 6.42304 9.08369 6.42528C9.06139 6.44026 9.04227 6.45951 9.02744 6.48192C9.01261 6.50433 9.00236 6.52945 8.99729 6.55584L8.97553 6.70368C8.96497 6.74097 8.95093 6.77718 8.93361 6.81184C8.89905 6.8784 8.86449 6.92032 8.83025 6.9424C8.80049 6.95712 8.76849 6.96192 8.73905 6.94496L8.56433 6.84384C8.57823 6.85187 8.59409 6.85588 8.61013 6.85543C8.62618 6.85498 8.64179 6.85008 8.65521 6.84128C8.68977 6.8192 8.72657 6.77728 8.76113 6.71104C8.77585 6.67904 8.79089 6.64192 8.80049 6.60256C8.80751 6.5532 8.81572 6.50401 8.82513 6.45504C8.82972 6.4288 8.8395 6.40373 8.8539 6.38132C8.86829 6.3589 8.88702 6.33958 8.90897 6.32448C8.91377 6.32448 8.91857 6.32192 8.92113 6.31936C8.94097 6.312 8.95825 6.312 8.97041 6.31936L9.14513 6.42048ZM8.61585 7.15648L8.44113 7.05568C8.4311 7.05051 8.42192 7.04382 8.41393 7.03584C8.40712 7.03135 8.40134 7.02546 8.39697 7.01856L8.56913 7.11968C8.57393 7.12704 8.58161 7.13184 8.58641 7.13696C8.59601 7.14432 8.60625 7.15168 8.61585 7.15648Z" fill="#C9CEE2"/>
<path id="Vector_17" d="M8.21935 7.2432L8.04559 7.1424C8.05951 7.15039 8.07536 7.15438 8.09139 7.15393C8.10743 7.15348 8.12303 7.1486 8.13647 7.13984C8.17263 7.11904 8.20879 7.07648 8.24175 7.01056C8.27439 6.94432 8.29935 6.8576 8.30383 6.77024C8.30652 6.7413 8.31568 6.71333 8.33064 6.68841C8.34559 6.66348 8.36596 6.64224 8.39023 6.62624C8.41935 6.60928 8.44463 6.60736 8.46191 6.61728L8.63535 6.71808C8.61807 6.70848 8.59311 6.71008 8.56367 6.72704C8.5394 6.74304 8.51903 6.76428 8.50408 6.78921C8.48912 6.81413 8.47996 6.8421 8.47727 6.87104C8.47269 6.95437 8.45158 7.03595 8.41519 7.11104C8.38223 7.17728 8.34607 7.21984 8.30991 7.24064C8.29651 7.24934 8.28097 7.25418 8.26499 7.25463C8.24902 7.25509 8.23323 7.25113 8.21935 7.2432ZM8.09615 7.45696L7.92143 7.35584C7.91151 7.35104 7.90415 7.34368 7.89423 7.33632L7.87695 7.31904L8.05167 7.41984C8.05679 7.42496 8.06159 7.43232 8.06895 7.43712C8.07631 7.44448 8.08623 7.4496 8.09615 7.45696Z" fill="#C9CEE2"/>
<path id="Vector_18" d="M7.70095 7.54272L7.52719 7.44192C7.5411 7.44991 7.55695 7.4539 7.57299 7.45345C7.58903 7.453 7.60463 7.44812 7.61807 7.43936C7.65423 7.41856 7.69039 7.376 7.72335 7.31008C7.75599 7.24384 7.78095 7.15712 7.78543 7.06944C7.78812 7.0405 7.79728 7.01253 7.81223 6.98761C7.82719 6.96268 7.84756 6.94144 7.87183 6.92544C7.90095 6.9088 7.92623 6.90688 7.94351 6.9168L8.11695 7.0176C8.09967 7.00768 8.07471 7.0096 8.04527 7.02656C8.021 7.04256 8.00063 7.0638 7.98567 7.08873C7.97072 7.11365 7.96156 7.14162 7.95887 7.17056C7.95428 7.25389 7.93318 7.33547 7.89679 7.41056C7.86383 7.4768 7.82767 7.51936 7.79151 7.54016C7.7781 7.54886 7.76256 7.5537 7.74659 7.55415C7.73062 7.55461 7.71483 7.55065 7.70095 7.54272ZM7.57711 7.75488L7.40463 7.65376C7.38752 7.64461 7.37179 7.63308 7.35791 7.61952L7.53263 7.71776C7.53709 7.72469 7.54298 7.73059 7.54991 7.73504C7.5579 7.74302 7.56707 7.74972 7.57711 7.75488Z" fill="#C9CEE2"/>
<path id="Vector_19" d="M7.18386 7.84192L7.01074 7.74112C7.03954 7.75776 7.06994 7.75584 7.09906 7.73888C7.13522 7.71808 7.17138 7.67552 7.20434 7.6096C7.23698 7.54336 7.26194 7.45664 7.26642 7.36896C7.26911 7.34001 7.27827 7.31205 7.29323 7.28712C7.30818 7.26219 7.32855 7.24095 7.35282 7.22496C7.38162 7.20832 7.40658 7.2064 7.42354 7.21632L7.5973 7.31712C7.58034 7.3072 7.55538 7.30912 7.52626 7.32608C7.50199 7.34207 7.48162 7.36331 7.46667 7.38824C7.45171 7.41317 7.44255 7.44113 7.43986 7.47008C7.43527 7.5534 7.41417 7.63498 7.37778 7.71008C7.34482 7.77632 7.30866 7.81888 7.2725 7.83968C7.25943 7.8482 7.24426 7.85292 7.22866 7.85332C7.21306 7.85371 7.19734 7.84977 7.18386 7.84192Z" fill="#C9CEE2"/>
<path id="Vector_20" d="M9.08809 10.3456C9.11049 10.4874 9.13641 10.6195 9.16873 10.7389C9.10761 10.7613 9.03977 10.7741 8.97225 10.7741C8.94345 10.6387 8.91433 10.4906 8.89161 10.336C8.84072 9.9343 8.81603 9.52971 8.81769 9.1248C8.81449 8.57056 8.85289 7.65216 8.92393 7.06592C8.89513 7.09792 8.86281 7.12384 8.83049 7.14336C8.79975 7.16075 8.76577 7.17164 8.73065 7.17536C8.70783 7.18004 8.68428 7.1799 8.66152 7.17494C8.63876 7.16998 8.61729 7.16031 8.59849 7.14656C8.59529 7.14336 8.58889 7.14016 8.58569 7.13696C8.58249 7.13056 8.57609 7.12736 8.56969 7.12096C8.56969 7.12416 8.56649 7.12416 8.56649 7.12736C8.56346 7.13752 8.55904 7.14721 8.55337 7.15616C8.49545 7.2752 8.40841 7.38496 8.31177 7.43968C8.21833 7.4944 8.14089 7.48768 8.08297 7.44608C8.07977 7.44608 8.07657 7.44288 8.07657 7.44288C8.07337 7.43968 8.07017 7.43968 8.06697 7.43648C8.06377 7.43008 8.05737 7.42688 8.05097 7.42048C8.05097 7.42368 8.04777 7.42368 8.04777 7.42688C8.04484 7.43702 8.04053 7.44671 8.03497 7.45568C7.97673 7.57504 7.88969 7.68448 7.79305 7.7392C7.70281 7.79072 7.62537 7.78752 7.56745 7.7488C7.56035 7.74568 7.55385 7.74135 7.54825 7.736C7.54505 7.7296 7.53865 7.7264 7.53225 7.72C7.53225 7.7232 7.52905 7.7232 7.52905 7.7264C7.52585 7.736 7.52265 7.7456 7.51625 7.7552C7.45801 7.87456 7.37097 7.984 7.27433 8.03904C7.25151 8.05372 7.22643 8.06453 7.20009 8.07104C7.29033 8.52864 7.33545 9.3664 7.33545 9.90432C7.33865 10.4195 7.30025 10.9546 7.21641 11.4701C7.19721 11.6054 7.17129 11.7408 7.14537 11.873C7.09417 11.8826 7.03913 11.8858 6.98441 11.8794C7.01321 11.7376 7.03913 11.5926 7.05833 11.4442C7.12937 10.9738 7.16489 10.481 7.16169 10.0074C7.16169 9.81088 7.15529 9.58208 7.14249 9.35008C7.13599 9.21675 7.12628 9.08359 7.11337 8.95072C7.08425 8.57696 7.03913 8.216 6.97801 7.9648C6.96521 7.9392 6.95561 7.91008 6.94601 7.88096C6.93935 7.85798 6.93601 7.83417 6.93609 7.81024C6.93212 7.80002 6.92996 7.7892 6.92969 7.77824C6.92969 7.77472 6.92969 7.76832 6.93289 7.76512C6.93289 7.75232 6.93609 7.74272 6.93929 7.7296C6.94889 7.6912 6.97129 7.65536 7.00361 7.62976C7.00681 7.62656 7.01321 7.62336 7.01641 7.62016C7.03241 7.61376 7.04553 7.60736 7.05833 7.60736C7.06793 7.60736 7.07433 7.61056 7.08073 7.61376C7.09065 7.62016 7.09705 7.62976 7.10345 7.64576L7.12265 7.7232L7.14217 7.80064C7.15177 7.81344 7.15817 7.82304 7.16777 7.82944C7.17417 7.83264 7.17769 7.83904 7.18089 7.83904C7.18729 7.84224 7.19369 7.84544 7.19689 7.84544C7.22249 7.85824 7.24841 7.85184 7.27433 7.83904C7.30953 7.81984 7.34537 7.77472 7.37737 7.7104C7.38697 7.6912 7.39337 7.67168 7.40297 7.65216V7.64576C7.41257 7.62336 7.41929 7.59776 7.42569 7.57184C7.43529 7.53984 7.43849 7.504 7.44169 7.4688C7.44169 7.41696 7.48041 7.35264 7.52553 7.32704C7.55113 7.31104 7.57385 7.30784 7.59017 7.31424C7.59337 7.31424 7.59337 7.31744 7.59657 7.31744C7.61257 7.32384 7.61897 7.33984 7.62217 7.36544C7.62217 7.38784 7.62537 7.41056 7.63177 7.43008C7.64137 7.47808 7.66409 7.51392 7.68681 7.53312C7.69641 7.53952 7.70601 7.54592 7.71561 7.54912C7.74121 7.55552 7.76713 7.55232 7.79305 7.53952C7.82825 7.52032 7.86377 7.4784 7.89609 7.41056C7.90569 7.39456 7.91209 7.37536 7.91849 7.35616V7.35296C7.92169 7.34944 7.92169 7.34944 7.92169 7.34624C7.92809 7.32704 7.93481 7.30784 7.94121 7.28512C7.94441 7.26912 7.95081 7.2528 7.95081 7.2368C7.95721 7.2144 7.96041 7.19168 7.96041 7.16896C7.96041 7.11776 7.99913 7.05312 8.04425 7.0272C8.06985 7.0112 8.09257 7.008 8.10889 7.0144C8.11209 7.0144 8.11209 7.0176 8.11529 7.0176C8.13129 7.024 8.13769 7.04 8.14089 7.06592C8.14089 7.08832 8.14409 7.11104 8.15049 7.13024C8.16009 7.17856 8.18281 7.21408 8.20553 7.2336C8.22025 7.24544 8.23497 7.24832 8.24969 7.2512C8.25193 7.25152 8.25385 7.2528 8.25609 7.2528H8.25705C8.27625 7.2528 8.29545 7.2496 8.31145 7.24C8.34729 7.2208 8.38249 7.17856 8.41481 7.11104C8.42441 7.09504 8.43081 7.07584 8.43721 7.05632H8.44041V7.04352C8.45001 7.02112 8.45673 6.9984 8.46313 6.97248C8.47273 6.94048 8.47593 6.90496 8.47913 6.86944C8.47913 6.81792 8.51785 6.75328 8.56297 6.72768C8.59177 6.71168 8.61449 6.70848 8.63081 6.71488L8.63401 6.71808C8.64681 6.72768 8.65641 6.74368 8.65961 6.76608C8.65961 6.7888 8.66281 6.81152 8.66921 6.83072C8.67881 6.87904 8.70153 6.91456 8.72425 6.93376C8.74985 6.95616 8.77545 6.96256 8.80457 6.95296C8.81417 6.94976 8.82377 6.94336 8.83017 6.94016C8.83974 6.93512 8.84848 6.92865 8.85609 6.92096C8.86889 6.91136 8.88169 6.89536 8.89481 6.87616C8.90761 6.85984 8.92041 6.83712 8.93353 6.81152C8.94953 6.7792 8.96233 6.74368 8.97513 6.70176C8.98185 6.65376 8.99145 6.60512 8.99785 6.5568C9.00425 6.5312 9.01385 6.5024 9.03017 6.47968C9.03779 6.46931 9.04636 6.45967 9.05577 6.45088C9.06537 6.44096 9.07177 6.43136 9.08169 6.42496C9.08809 6.42496 9.09129 6.42176 9.09449 6.42176C9.11049 6.41536 9.12681 6.41536 9.13961 6.41856C9.14281 6.41856 9.14601 6.42176 9.14601 6.42176C9.16201 6.43136 9.17193 6.45376 9.17193 6.48256C9.16873 6.5376 9.15913 6.59552 9.14633 6.65024C9.04297 7.33344 8.98825 8.36768 8.99145 9.02464C8.99465 9.51104 9.02697 9.96224 9.08809 10.3456Z" fill="#E3E7F0"/>
<path id="Vector_21" d="M7.16162 10.0074C7.16482 10.481 7.1293 10.9738 7.05826 11.4442C7.03906 11.5926 7.01346 11.7376 6.98434 11.8794C6.92078 11.874 6.85862 11.8577 6.80066 11.831C6.82306 11.7117 6.84578 11.5926 6.86498 11.4701C6.94922 10.9535 6.99022 10.4309 6.98754 9.90751C6.98754 9.28255 6.92322 8.36415 6.80386 7.86175C6.77576 7.80321 6.75946 7.73971 6.75586 7.67487C6.75586 7.62655 6.78786 7.56223 6.82946 7.52991C6.83586 7.52671 6.83906 7.52031 6.84578 7.51711C6.86818 7.50751 6.89058 7.50431 6.9069 7.51391L7.08098 7.61375C7.07458 7.61055 7.06818 7.60735 7.05858 7.60735C7.04578 7.60735 7.03266 7.61375 7.01666 7.62015C7.01346 7.62335 7.00706 7.62655 7.00386 7.62975C6.97198 7.65507 6.94927 7.69014 6.93922 7.72959C6.93282 7.74559 6.92962 7.76159 6.93282 7.77791C6.93282 7.78751 6.93282 7.80031 6.93602 7.80991C6.93602 7.83583 6.93922 7.85855 6.94562 7.88095C6.95522 7.90975 6.96482 7.93887 6.97762 7.96479C7.03906 8.21599 7.08418 8.57695 7.1133 8.95039C7.1261 9.08287 7.1357 9.21791 7.1421 9.35039C7.1549 9.58207 7.16162 9.81087 7.16162 10.0074Z" fill="#C9CEE2"/>
<path id="Vector_22" opacity="0.5" d="M11.5976 8.01056C10.8572 8.8923 10.3668 9.95645 10.1774 11.0922C10.1774 11.4141 9.96689 11.7418 9.54289 11.9866C8.84369 12.3949 7.78257 12.4659 6.95313 12.2029C6.77989 12.15 6.61293 12.0785 6.45521 11.9894C6.01553 11.7328 5.79921 11.3955 5.81137 11.0646C5.61649 9.93184 5.10609 8.87072 4.36657 7.96704C3.68311 7.13173 3.31027 6.08536 3.31153 5.00608C3.31153 2.2336 5.71825 0.0243178 8.55313 0.351998C9.22129 0.429438 9.84625 0.648958 10.397 0.980158C11.6997 1.76288 12.597 3.1616 12.6805 4.7456C12.7504 5.93227 12.3629 7.10061 11.5976 8.01024V8.01056Z" fill="#FEBC1F"/>
<path id="Vector_23" d="M6.92967 3.8704C6.79578 3.87112 6.66335 3.89821 6.53995 3.95013C6.41654 4.00205 6.30458 4.07779 6.21046 4.17301C6.11634 4.26823 6.04191 4.38106 5.99142 4.50506C5.94093 4.62907 5.91538 4.7618 5.91623 4.89568C5.91477 4.6251 5.80601 4.36616 5.61382 4.17568C5.4211 3.986 5.16103 3.88047 4.89062 3.88224C5.16121 3.88079 5.42015 3.77203 5.61063 3.57984C5.79303 3.39424 5.90599 3.13824 5.90439 2.85664C5.90599 3.13824 6.02183 3.39296 6.20647 3.57664C6.39207 3.75904 6.64807 3.872 6.92967 3.8704Z" fill="white"/>
</g>
</svg>
