<svg width="16" height="16" viewBox="0 0 16 16" fill="none" xmlns="http://www.w3.org/2000/svg">
<g id="Artwork">
<path id="Vector" d="M12.0075 11.0281L4.93549 15.1111L4.01994 14.5793L3.99268 4.97185L11.0647 0.888885L11.9802 1.42074L12.0075 11.0281Z" fill="#BF7D5A"/>
<path id="Vector_2" d="M4.93549 15.1111L4.01994 14.579L3.99268 4.97185L4.90823 5.504L4.93549 15.1111Z" fill="#AA6256"/>
<path id="Vector_3" d="M4.90823 5.504L3.99268 4.97185L11.0647 0.888885L11.9802 1.42074L4.90823 5.504Z" fill="#DBA660"/>
<path id="Vector_4" d="M11.9802 1.42075L12.0075 11.0282L4.93546 15.1111L4.9082 5.504L11.9802 1.42075Z" fill="#BF7D5A"/>
<path id="Vector_5" d="M10.9803 2.60297L5.42773 5.80889L5.44936 13.4267C5.47248 13.4237 5.4947 13.4196 5.51988 13.4196C5.75099 13.4196 5.90359 13.5396 5.98122 13.6984C5.98862 13.7034 5.99633 13.7067 6.00403 13.7126C6.14625 13.8187 8.11899 12.309 8.40403 12.152C8.91781 11.8682 9.49736 11.6836 10.0298 11.4252C10.3048 11.1882 10.6147 11.0012 10.9649 10.8113C11.0271 10.7772 11.0908 10.7585 11.1537 10.7508C11.1913 10.701 11.2286 10.6513 11.2648 10.5976C11.2775 10.579 11.292 10.5647 11.3057 10.5484C11.455 7.936 11.3732 5.19171 10.9803 2.60297Z" fill="white"/>
<path id="Vector_6" d="M11.4858 10.7283L5.4511 14.2119L5.44873 13.4039L10.7844 10.323V10.3209L10.761 2.72475L11.4624 2.31941L11.4858 10.7283Z" fill="#DBA660"/>
<path id="Vector_7" d="M10.7844 10.3209V10.323L5.44873 13.4039L5.4511 14.2119L11.4855 10.7283L10.7844 10.3209Z" fill="#DBA660"/>
<path id="Vector_8" d="M11.486 10.7283L11.4626 2.31941L10.7612 2.72475L10.7846 10.3209L11.486 10.7283Z" fill="#AA6256"/>
<path id="Vector_9" d="M10.1051 5.98933C9.73473 9.30637 8.13858 10.6747 7.78332 11.3055C7.73858 11.3855 7.67784 11.4803 7.58481 11.4699C7.44614 11.4539 7.44495 11.2844 7.4737 11.1481L7.59281 10.5763C7.4035 10.9399 7.18802 11.2893 6.94807 11.6216C6.76851 11.8702 6.6011 11.8039 6.59933 11.6012C6.59518 10.9745 6.65473 10.5396 6.73207 10.0267C7.0177 8.1363 7.15932 6.49748 7.8254 5.27526C7.89918 5.13926 8.09147 5.16622 8.13947 5.29807C8.14688 5.31763 8.17236 5.32178 8.18481 5.30518C8.61029 4.72 8.63755 4.48296 8.6974 4.31881C8.74184 4.19526 8.92762 4.25778 8.8891 4.38341C8.82747 4.584 8.73473 4.78548 8.80377 4.9763C8.94663 4.79688 9.05695 4.5938 9.1297 4.3763C9.22303 4.096 9.22747 4.15378 9.25207 4.10578C9.34095 4.00237 9.51103 4.07407 9.50303 4.21037L9.4811 4.57837C9.47518 4.68207 9.55844 4.69244 9.60792 4.66015C9.67192 4.61837 9.68555 4.54074 9.7294 4.48385C9.72984 4.4834 9.73024 4.4829 9.73058 4.48237C9.77621 4.42518 9.86747 4.46755 9.85829 4.54015C9.83814 4.70133 9.93325 4.7677 9.93888 4.81392C10.0207 5.46281 9.55192 5.69155 9.55577 5.98637C9.63607 6.03081 9.72644 5.94489 9.7691 5.8637C9.81236 5.78074 9.86362 5.67733 9.95873 5.67763C10.0091 5.67763 10.0535 5.70874 10.079 5.7517C10.122 5.82489 10.114 5.90874 10.1051 5.98933Z" fill="#FFD06C"/>
<path id="Vector_10" d="M6.33295 10.2542C6.36258 10.1357 6.38333 10.0148 6.39518 9.89334C6.40081 9.83526 6.32288 9.81097 6.29355 9.86104L6.13236 10.1387L6.13177 10.1402C6.09651 10.1997 6.00436 10.1733 6.00495 10.104C6.00644 9.98104 6.05414 9.85897 6.09888 9.736C6.11518 9.69156 6.05088 9.66489 6.03073 9.70785C5.97414 9.82934 5.77325 10.2424 5.67873 10.344C5.64436 10.3807 5.58273 10.3547 5.58451 10.3043C5.60021 9.83734 5.82421 9.39645 5.94688 8.94104C6.17444 8.09719 6.04021 7.60178 6.48525 6.80445C6.67331 6.46741 6.85205 6.12526 7.02125 5.77837C7.05088 5.71763 7.14184 5.73778 7.14392 5.80504C7.15012 6.08273 7.11089 6.35957 7.02777 6.6246C7.01947 6.65185 7.05799 6.66786 7.07162 6.64267C7.31518 6.19941 7.35488 6.08741 7.45532 6.14489C7.52288 6.18341 7.47933 6.59408 7.4731 6.65156C7.47014 6.67704 7.50392 6.6886 7.51725 6.66637C7.76318 6.25008 7.8417 6.072 8.00614 6.1123C8.02984 6.26341 7.87399 6.36711 7.85888 6.69897C7.85592 6.76919 7.94836 6.80089 7.98866 6.74311C8.08881 6.59882 8.13473 6.26608 8.37592 6.0326C8.40436 6.00474 8.45236 6.01985 8.43666 6.08119C8.41058 6.1846 8.32673 6.672 8.42777 6.70341C8.44436 6.70806 8.46203 6.707 8.47794 6.70039C8.49385 6.69377 8.50707 6.682 8.51547 6.66697L8.76762 6.232C8.80377 6.16978 8.89918 6.20386 8.88762 6.27437C8.82184 6.67793 8.39695 9.3526 8.07755 9.11526C8.12703 8.78311 8.1694 8.44978 8.20466 8.11586C8.21562 8.01215 8.07281 7.97393 8.03044 8.06904C8.02361 8.0841 8.01739 8.09942 8.01177 8.11497C7.87933 8.48656 7.72 8.84801 7.53503 9.19645C7.4734 9.3123 7.40614 9.43052 7.29207 9.50104C7.23073 9.53897 7.14303 9.50904 7.16851 9.37956L7.34895 8.46963C7.36199 8.40356 7.26599 8.37719 7.24436 8.44089L7.23133 8.48237C7.07962 8.99556 6.87281 9.49067 6.65147 9.97748C6.58688 10.1197 6.53118 10.259 6.41295 10.3191C6.36999 10.341 6.3214 10.3013 6.33295 10.2539V10.2542Z" fill="#F45170"/>
<path id="Vector_11" d="M8.93229 8.02371C8.57169 8.79793 8.73258 9.44741 8.5554 9.85986C8.4772 10.0419 8.41137 10.229 8.35836 10.4199C8.35425 10.4337 8.35453 10.4486 8.35914 10.4623C8.36375 10.476 8.37248 10.488 8.38414 10.4966C8.42829 10.5271 8.47688 10.4782 8.50414 10.4359L8.69436 10.1416C8.70917 10.3686 8.53021 10.5867 8.58443 10.8077C8.59006 10.8311 8.59925 10.8551 8.62917 10.8619C8.64183 10.8643 8.65489 10.8634 8.66712 10.8594C8.67935 10.8553 8.69035 10.8483 8.6991 10.8388C8.76073 10.776 8.74295 10.6536 8.83214 10.6871C8.96754 10.7375 9.13051 10.7061 9.23747 10.6086C9.28666 10.5639 9.32369 10.5073 9.36014 10.4516C9.56695 10.1316 9.76636 9.80445 9.90591 9.45008C10.1228 8.89897 10.1142 8.36178 10.0609 8.26104C10.0286 8.20089 9.90266 8.16267 9.88754 7.89956C9.88103 7.78252 9.89732 7.66489 9.88399 7.54786C9.87125 7.43763 9.76903 7.38578 9.62858 7.4806C9.53377 7.5443 9.45673 7.46163 9.48428 7.38786C9.56932 7.16119 9.69821 6.8163 9.58799 6.83793C9.4191 6.87052 9.03806 7.79615 8.93229 8.02371Z" fill="#57B3FE"/>
</g>
</svg>
