<svg width="24" height="25" viewBox="0 0 24 25" fill="none" xmlns="http://www.w3.org/2000/svg">
<g id="Shopping Cart" clip-path="url(#clip0_298_475)">
<path id="Vector" opacity="0.08" d="M21.5362 18.56L11.4374 23.8606C11.0549 24.0395 10.6368 24.1293 10.2146 24.1231C9.79237 24.1169 9.37705 24.015 8.99994 23.825L4.08744 20.9769C3.42932 20.6019 3.39182 19.9869 4.00119 19.58L13.0799 13.6925C13.7549 13.2444 14.9549 13.22 15.6749 13.64L21.6018 17.075C22.3124 17.4894 22.2899 18.1681 21.5362 18.56Z" fill="black"/>
<path id="Vector_2" d="M19.8244 16.9081H19.3613V14.9825L18.0957 14.0731L19.1532 7.67751C19.2882 6.76626 19.6913 6.08751 20.3475 5.66563L20.8125 5.37501C20.8851 5.32873 20.9447 5.26465 20.9855 5.18885C21.0263 5.11304 21.0471 5.02805 21.0458 4.94197C21.0445 4.85588 21.0211 4.77157 20.978 4.69705C20.9349 4.62253 20.8734 4.56029 20.7994 4.51626L15.8382 1.53313C15.6282 1.40568 15.3872 1.33829 15.1416 1.33829C14.896 1.33829 14.655 1.40568 14.445 1.53313L13.6707 2.00001C13.3034 2.22209 13.0006 2.53638 12.7924 2.91169C12.5842 3.28699 12.4778 3.71024 12.4838 4.13938L12.5775 10.2744H12.1125L12.0207 4.13751C12.0155 3.62919 12.1428 3.12828 12.39 2.68411C12.6372 2.23993 12.9959 1.86781 13.4307 1.60438L14.205 1.13751C14.4878 0.966439 14.812 0.876007 15.1425 0.876007C15.473 0.876007 15.7972 0.966439 16.08 1.13751L21.0375 4.11126C21.1789 4.19603 21.2962 4.31543 21.3786 4.45818C21.4609 4.60093 21.5055 4.76231 21.5081 4.92709C21.5108 5.09186 21.4713 5.25459 21.3936 5.39989C21.3158 5.54519 21.2023 5.66827 21.0638 5.75751L20.5988 6.05563C20.0588 6.40251 19.7269 6.97251 19.6107 7.74313L18.6 13.865L19.8244 14.75V16.9081Z" fill="#8FD4FF"/>
<path id="Vector_3" d="M9.47061 22.4713C9.05689 22.4773 8.64844 22.3779 8.28373 22.1825L5.49561 20.5719C5.34092 20.4991 5.20777 20.3874 5.10918 20.2477C5.01058 20.108 4.94992 19.9451 4.93311 19.775C4.93757 19.6137 4.98358 19.4563 5.06668 19.3181C5.14979 19.1798 5.26717 19.0653 5.40748 18.9856L13.155 13.9606C13.8075 13.5275 14.91 13.5031 15.6131 13.91L19.2694 16.0213C19.6331 16.2313 19.8319 16.535 19.8319 16.8556C19.8319 17.1763 19.5975 17.4913 19.2075 17.6956L10.5937 22.2181C10.2444 22.3896 9.85967 22.4763 9.47061 22.4713ZM14.4375 14.0863C14.0808 14.0763 13.7285 14.1673 13.4212 14.3488L5.67373 19.3738C5.60076 19.4112 5.53834 19.4664 5.49216 19.5342C5.44598 19.602 5.41751 19.6803 5.40936 19.7619C5.42657 19.8513 5.46526 19.9353 5.52209 20.0065C5.57892 20.0777 5.65219 20.134 5.73561 20.1706L8.52561 21.7813C8.81433 21.9244 9.13152 22.001 9.45377 22.0052C9.77602 22.0094 10.0951 21.9412 10.3875 21.8056L18.9937 17.2831C19.2281 17.1613 19.3687 17.0019 19.3687 16.8463C19.3687 16.6906 19.2525 16.5444 19.0425 16.4225L15.375 14.3113C15.0864 14.1586 14.7639 14.0812 14.4375 14.0863Z" fill="#8FD4FF"/>
<path id="Vector_4" d="M17.8554 14.6975L9.2417 19.22C8.91425 19.3733 8.5563 19.4502 8.19481 19.445C7.83332 19.4398 7.47772 19.3526 7.15482 19.19L3.42732 17.0375C2.86482 16.7131 2.83295 16.1919 3.3542 15.845L11.0998 10.8219C11.6754 10.4469 12.6936 10.4169 13.3142 10.7769L17.9117 13.4375C18.5248 13.7844 18.4986 14.3619 17.8554 14.6975Z" fill="#8FD4FF"/>
<path id="Vector_5" d="M8.08316 16.1975C7.66123 16.2055 7.24426 16.1055 6.87191 15.9069L2.85754 13.5894C2.52004 13.4019 2.33066 13.1319 2.32129 12.8394C2.326 12.6883 2.36998 12.5411 2.44888 12.4122C2.52779 12.2834 2.63891 12.1772 2.77129 12.1044L11.0213 6.74187C11.6794 6.31249 12.8288 6.28812 13.5338 6.68749L18.4819 9.55249C18.8325 9.75499 19.0238 10.0325 19.0163 10.3325C19.0088 10.6325 18.7913 10.925 18.4182 11.12L9.23066 15.9425C8.87359 16.1167 8.48041 16.2041 8.08316 16.1975ZM12.3225 6.63499C11.9125 6.62345 11.5075 6.7281 11.1544 6.93687L2.89879 12.3125C2.80058 12.3649 2.71736 12.4414 2.65699 12.5349C2.59662 12.6284 2.5611 12.7358 2.55379 12.8469C2.5711 12.9669 2.61875 13.0805 2.69225 13.177C2.76575 13.2735 2.86265 13.3496 2.97379 13.3981L6.98629 15.7062C7.31663 15.873 7.68062 15.9624 8.05064 15.9676C8.42066 15.9728 8.78702 15.8937 9.12191 15.7362L18.3094 10.9137C18.6075 10.76 18.78 10.5387 18.7857 10.3269C18.7913 10.115 18.6413 9.91249 18.375 9.75312L13.4175 6.89562C13.0802 6.71868 12.7034 6.63029 12.3225 6.63874V6.63499Z" fill="#43BCFF"/>
<path id="Vector_6" d="M8.15605 17.9056C7.74837 17.9139 7.34542 17.8171 6.98605 17.6244L3.11605 15.3912C2.97449 15.326 2.85223 15.2253 2.76121 15.0988C2.67018 14.9723 2.6135 14.8243 2.59668 14.6694C2.60154 14.5229 2.64436 14.3803 2.72094 14.2554C2.79753 14.1305 2.90525 14.0276 3.03355 13.9569L11.0323 8.76499C11.6623 8.34499 12.7704 8.32249 13.4529 8.71624L18.2229 11.4687C18.5623 11.6562 18.7461 11.9337 18.7404 12.2187C18.7348 12.5037 18.5229 12.7925 18.1611 12.98L9.26231 17.6581C8.91813 17.8264 8.53913 17.9112 8.15605 17.9056ZM12.2811 8.66749C11.8859 8.65668 11.4959 8.7581 11.1561 8.95999L3.16105 14.1519C3.06672 14.2014 2.98667 14.2743 2.92856 14.3636C2.87045 14.4528 2.83623 14.5556 2.82918 14.6619C2.84589 14.777 2.89168 14.886 2.96222 14.9785C3.03275 15.071 3.12571 15.144 3.2323 15.1906L7.10043 17.4237C7.4192 17.5856 7.77074 17.6724 8.12821 17.6776C8.48567 17.6828 8.83959 17.6062 9.16293 17.4537L18.0523 12.7831C18.3373 12.6331 18.5042 12.4287 18.5079 12.2206C18.5117 12.0125 18.3711 11.8231 18.1067 11.6712L13.3367 8.91687C13.0124 8.74546 12.6497 8.65963 12.2829 8.66749H12.2811Z" fill="#43BCFF"/>
<path id="Vector_7" d="M7.91055 14.4744H8.14305V19.4375H7.91055V14.4744ZM1.91992 11.1056L2.38042 11.0311L3.26823 16.5238L2.80773 16.5982L1.91992 11.1056ZM18.1167 14.0849L18.998 8.51432L19.4574 8.58688L18.5761 14.1575L18.1167 14.0849ZM12.0187 4.53445L12.4837 4.52695L12.5776 10.5189L12.1126 10.5262L12.0187 4.53445ZM4.79148 13.0906L5.02361 13.0766L5.32023 18.0403L5.08811 18.0541L4.79148 13.0906ZM15.2924 11.9765L15.7668 6.14582L15.9985 6.16457L15.5242 11.9954L15.2924 11.9765ZM11.1927 18.1162L11.4511 12.929L11.6832 12.9404L11.425 18.1278L11.1927 18.1162Z" fill="#43BCFF"/>
<path id="Vector_8" d="M15.1248 15.9061L15.3779 10.82L15.6104 10.8316L15.3571 15.9177L15.1248 15.9061ZM5.57373 8.30468L5.80567 8.28762L6.22698 13.97L5.99504 13.9871L5.57373 8.30468ZM8.78317 6.41262L9.01567 6.4025L9.26242 12.1254L9.03011 12.1353L8.78317 6.41262Z" fill="#43BCFF"/>
<path id="Vector_9" d="M7.99516 14.7087C7.53745 14.7157 7.08558 14.6054 6.68266 14.3881L2.49203 11.9712C2.11703 11.75 1.89016 11.4406 1.87891 11.1031C1.88453 10.9282 1.93531 10.7577 2.02632 10.6082C2.11733 10.4587 2.24547 10.3353 2.39828 10.25L10.9577 4.67562C11.6814 4.19375 12.9058 4.1675 13.6877 4.625L18.8458 7.60437C19.2508 7.83687 19.4683 8.16687 19.4608 8.51562C19.4533 8.86437 19.202 9.21125 18.7745 9.43437L9.24391 14.4275C8.85547 14.6179 8.4277 14.7142 7.99516 14.7087ZM12.3752 4.76375C11.9694 4.75176 11.5687 4.85584 11.2202 5.06375L2.65328 10.625C2.56711 10.6694 2.49346 10.7347 2.43908 10.815C2.38471 10.8953 2.35134 10.9879 2.34203 11.0844C2.36034 11.1892 2.40411 11.288 2.46949 11.372C2.53487 11.456 2.61987 11.5227 2.71703 11.5662L6.90953 13.9869C7.23814 14.1494 7.59893 14.2365 7.96551 14.2417C8.33209 14.2469 8.6952 14.1701 9.02828 14.0169L18.5627 9.01437C18.8345 8.87187 18.9939 8.68437 18.9977 8.49875C19.0014 8.31312 18.8627 8.14062 18.6227 7.99812L13.4552 5.02062C13.1227 4.84492 12.7511 4.75653 12.3752 4.76375Z" fill="#43BCFF"/>
<path id="Vector_10" d="M8.22541 19.6794C7.81169 19.6854 7.40324 19.586 7.03854 19.3906L3.31104 17.2381C3.15601 17.1658 3.02257 17.0542 2.92391 16.9144C2.82526 16.7747 2.7648 16.6115 2.74854 16.4412C2.75281 16.2802 2.79854 16.1229 2.8813 15.9846C2.96407 15.8463 3.08107 15.7317 3.22104 15.6519L10.9742 10.625C11.6248 10.1919 12.7292 10.1675 13.4304 10.5744L18.0279 13.2294C18.3898 13.4375 18.5904 13.7431 18.5904 14.0637C18.5904 14.3844 18.356 14.6994 17.9679 14.9019L9.34854 19.4262C8.99929 19.5978 8.61448 19.6845 8.22541 19.6794ZM12.2435 10.7525C11.8874 10.7424 11.5357 10.8335 11.2292 11.015L3.47979 16.04C3.40556 16.0783 3.34233 16.1349 3.29607 16.2045C3.24981 16.274 3.22205 16.3542 3.21541 16.4375C3.23281 16.5271 3.27178 16.6112 3.32895 16.6824C3.38612 16.7536 3.45977 16.8099 3.54354 16.8462L7.27104 18.9875C7.5595 19.1314 7.87666 19.2084 8.19898 19.213C8.5213 19.2175 8.84051 19.1494 9.13291 19.0137L17.7485 14.4912C17.9829 14.3694 18.1235 14.21 18.1235 14.0544C18.1235 13.8987 17.9998 13.7525 17.7954 13.625L13.1998 10.9775C12.9054 10.8223 12.5762 10.7448 12.2435 10.7525Z" fill="#43BCFF"/>
<path id="Vector_11" fill-rule="evenodd" clip-rule="evenodd" d="M18.8605 17.1294L17.5142 19.5125C17.5142 19.5125 17.2086 19.3419 17.0324 19.2312C16.9386 19.1604 16.8647 19.0666 16.8178 18.9588C16.7708 18.8511 16.7524 18.7331 16.7642 18.6162C16.7832 18.2807 16.8808 17.9543 17.0492 17.6634C17.2176 17.3726 17.4521 17.1254 17.7336 16.9419C18.0261 16.7731 18.2961 16.7694 18.4649 16.9006C18.5909 16.9866 18.7231 17.0631 18.8605 17.1294Z" fill="#4A2730"/>
<path id="Vector_12" fill-rule="evenodd" clip-rule="evenodd" d="M19.1494 17.75C19.1333 18.0872 19.0378 18.4157 18.8707 18.709C18.7035 19.0022 18.4694 19.2519 18.1876 19.4375C17.6513 19.7469 17.2163 19.4994 17.2163 18.875C17.2352 18.5392 17.333 18.2126 17.5017 17.9217C17.6705 17.6308 17.9055 17.3837 18.1876 17.2006C18.7144 16.8913 19.1494 17.1388 19.1494 17.75Z" fill="#30121B"/>
<path id="Vector_13" fill-rule="evenodd" clip-rule="evenodd" d="M18.6394 18.05C18.6314 18.2084 18.5864 18.3626 18.5079 18.5004C18.4294 18.6381 18.3197 18.7555 18.1875 18.8431C17.9325 18.9894 17.7281 18.8731 17.7281 18.5806C17.7368 18.4216 17.7829 18.2668 17.8627 18.129C17.9426 17.9912 18.0538 17.8742 18.1875 17.7875C18.4331 17.6413 18.6394 17.7594 18.6394 18.05ZM14.2256 19.94L12.8794 22.3231C12.8794 22.3231 12.5738 22.1544 12.3975 22.0438C12.3039 21.9728 12.2301 21.8789 12.1832 21.7713C12.1362 21.6636 12.1177 21.5456 12.1294 21.4288C12.1476 21.0928 12.2449 20.7658 12.4134 20.4746C12.5818 20.1833 12.8166 19.9359 13.0988 19.7525C13.3913 19.5838 13.6613 19.5819 13.83 19.7131C13.9556 19.7993 14.0879 19.8751 14.2256 19.94Z" fill="#4A2730"/>
<path id="Vector_14" fill-rule="evenodd" clip-rule="evenodd" d="M14.5144 20.5625C14.4975 20.9006 14.4007 21.2298 14.2318 21.5232C14.063 21.8165 13.8269 22.0656 13.5431 22.25C13.0069 22.5594 12.5737 22.31 12.5737 21.6875C12.592 21.3515 12.6893 21.0246 12.8577 20.7333C13.0262 20.442 13.261 20.1946 13.5431 20.0113C14.0794 19.7019 14.5144 19.9513 14.5144 20.5625Z" fill="#30121B"/>
<path id="Vector_15" fill-rule="evenodd" clip-rule="evenodd" d="M14.0027 20.8625C13.9936 21.0214 13.9473 21.176 13.8675 21.3138C13.7877 21.4516 13.6767 21.5686 13.5434 21.6556C13.2902 21.8019 13.084 21.6837 13.084 21.3931C13.0928 21.2341 13.139 21.0794 13.2188 20.9416C13.2986 20.8038 13.4098 20.6868 13.5434 20.6C13.7965 20.4519 14.0027 20.5625 14.0027 20.8625Z" fill="#4A2730"/>
<path id="Vector_16" d="M20.4919 4.51811C20.4082 4.51739 20.3261 4.49476 20.2538 4.45249L15.7707 1.76186C15.6653 1.69846 15.5893 1.59578 15.5596 1.4764C15.5299 1.35702 15.5488 1.23073 15.6122 1.1253C15.6757 1.01988 15.7783 0.94396 15.8977 0.914247C16.0171 0.884534 16.1434 0.903461 16.2488 0.966864L20.7301 3.65561C20.8166 3.70813 20.8836 3.78745 20.921 3.88153C20.9583 3.97561 20.964 4.0793 20.937 4.17688C20.9101 4.27445 20.852 4.36056 20.7717 4.42215C20.6914 4.48374 20.5932 4.51743 20.4919 4.51811Z" fill="#F62121"/>
<path id="Vector_17" d="M20.8631 4.50875C20.8214 4.50838 20.7806 4.49672 20.745 4.475L20.4469 4.29687C20.419 4.28202 20.3945 4.26164 20.3747 4.23699C20.355 4.21234 20.3405 4.18392 20.3321 4.15348C20.3237 4.12303 20.3216 4.0912 20.3259 4.05991C20.3302 4.02863 20.3409 3.99855 20.3572 3.97152C20.3735 3.94449 20.3952 3.92106 20.4209 3.90267C20.4465 3.88428 20.4757 3.87132 20.5065 3.86457C20.5374 3.85782 20.5693 3.85742 20.6003 3.8634C20.6313 3.86939 20.6608 3.88162 20.6869 3.89937L20.9831 4.0775C21.0361 4.10907 21.0743 4.1604 21.0895 4.22017C21.1046 4.27995 21.0953 4.34328 21.0638 4.39625C21.0428 4.43066 21.0133 4.45909 20.9782 4.4788C20.943 4.49851 20.9034 4.50882 20.8631 4.50875Z" fill="#8FD4FF"/>
</g>
<defs>
<clipPath id="clip0_298_475">
<rect width="24" height="24" fill="white" transform="translate(0 0.5)"/>
</clipPath>
</defs>
</svg>
